# Blender 4.3.2
# www.blender.org
mtllib ground.mtl
o 立方体.002
v -71.738884 0.000031 286.323639
v -71.738884 -0.000031 -278.984955
v 75.261124 0.000031 286.323639
v 75.261124 -0.000031 -278.984955
v 29.001640 -0.345913 -27.855263
v 29.001640 -0.345913 -40.415260
v 29.001640 3.314089 -27.855263
v 41.221642 -0.345913 -27.855263
v 41.221642 -0.345913 -40.415260
v 41.221642 3.314089 -27.855263
v 41.221642 3.314089 -40.415260
v 29.001640 3.314089 -40.415260
v -51.278870 -1.233448 -269.688934
v -51.278870 -1.233448 164.252380
v -51.278870 5.365087 -269.688934
v -39.058872 -1.233448 -269.688934
v -39.058872 -1.233448 164.252380
v -39.058872 5.365087 -269.688934
v -39.058872 5.365087 164.252380
v -51.278870 5.365087 164.252380
v -18.991917 -0.345913 -27.855263
v -18.991917 -0.345913 -40.415260
v -18.991917 3.314089 -27.855263
v -6.771917 -0.345913 -27.855263
v -6.771917 -0.345913 -40.415260
v -6.771917 3.314089 -27.855263
v -6.771917 3.314089 -40.415260
v -18.991917 3.314089 -40.415260
v 29.001640 -0.345913 -90.138153
v 29.001640 -0.345913 -102.698151
v 29.001640 3.314089 -90.138153
v 41.221642 -0.345913 -90.138153
v 41.221642 -0.345913 -102.698151
v 41.221642 3.314089 -90.138153
v 41.221642 3.314089 -102.698151
v 29.001640 3.314089 -102.698151
v -19.380615 -0.345913 -92.064758
v -19.380615 -0.345913 -104.624756
v -19.380615 3.314089 -92.064758
v -7.160616 -0.345913 -92.064758
v -7.160616 -0.345913 -104.624756
v -7.160616 3.314089 -92.064758
v -7.160616 3.314089 -104.624756
v -19.380615 3.314089 -104.624756
vn -0.0000 1.0000 -0.0000
vn -1.0000 -0.0000 -0.0000
vn -0.0000 -1.0000 -0.0000
vn -0.0000 -0.0000 1.0000
vn 1.0000 -0.0000 -0.0000
vn -0.0000 -0.0000 -1.0000
vt 0.800000 0.010526
vt 0.375000 0.000000
vt 0.625000 0.000000
vt 0.625000 0.250000
vt 0.375000 0.250000
vt 0.125000 0.500000
vt 0.375000 0.500000
vt 0.375000 0.750000
vt 0.125000 0.750000
vt 0.625000 0.750000
vt 0.625000 1.000000
vt 0.375000 1.000000
vt 0.625000 0.500000
vt 0.875000 0.500000
vt 0.875000 0.750000
s 1
usemtl マテリアル.006
f 1/1/1 3/1/1 4/1/1 2/1/1
s 0
usemtl マテリアル.004
f 5/2/2 7/3/2 12/4/2 6/5/2
f 6/6/3 9/7/3 8/8/3 5/9/3
f 8/8/4 10/10/4 7/11/4 5/12/4
f 9/7/5 11/13/5 10/10/5 8/8/5
f 11/13/1 12/14/1 7/15/1 10/10/1
f 6/5/6 12/4/6 11/13/6 9/7/6
f 14/6/1 17/7/1 16/8/1 13/9/1
f 13/2/5 15/3/5 20/4/5 14/5/5
f 16/8/4 18/10/4 15/11/4 13/12/4
f 17/7/2 19/13/2 18/10/2 16/8/2
f 19/13/3 20/14/3 15/15/3 18/10/3
f 14/5/6 20/4/6 19/13/6 17/7/6
f 21/2/2 23/3/2 28/4/2 22/5/2
f 22/6/3 25/7/3 24/8/3 21/9/3
f 24/8/4 26/10/4 23/11/4 21/12/4
f 25/7/5 27/13/5 26/10/5 24/8/5
f 27/13/1 28/14/1 23/15/1 26/10/1
f 22/5/6 28/4/6 27/13/6 25/7/6
f 29/2/2 31/3/2 36/4/2 30/5/2
f 30/6/3 33/7/3 32/8/3 29/9/3
f 32/8/4 34/10/4 31/11/4 29/12/4
f 33/7/5 35/13/5 34/10/5 32/8/5
f 35/13/1 36/14/1 31/15/1 34/10/1
f 30/5/6 36/4/6 35/13/6 33/7/6
f 37/2/2 39/3/2 44/4/2 38/5/2
f 38/6/3 41/7/3 40/8/3 37/9/3
f 40/8/4 42/10/4 39/11/4 37/12/4
f 41/7/5 43/13/5 42/10/5 40/8/5
f 43/13/1 44/14/1 39/15/1 42/10/1
f 38/5/6 44/4/6 43/13/6 41/7/6
