# Blender 4.1.1
# www.blender.org
mtllib stage1.mtl
o 立方体.002
v 100.478210 1.000039 100.000000
v -99.521767 1.000005 100.000000
v 100.478210 0.999995 -100.000000
v 100.478210 -0.999963 100.000000
v 100.478210 -1.000008 -100.000000
v -99.521767 -0.999990 100.000000
v -99.521774 -1.000041 -99.999992
v -99.521774 0.999961 -99.999992
v -38.917290 -4.406743 -46.688030
v -38.917290 -4.406748 -72.943604
v -38.917290 25.177839 -46.688030
v -18.578396 -4.406743 -46.688030
v -18.578396 -4.406748 -72.943604
v -18.578396 25.177839 -46.688030
v -18.578396 25.177835 -72.943604
v -38.917290 25.177835 -72.943604
v -56.548325 22.943180 -54.815815
v -56.548325 22.943176 -64.815811
v -56.548325 24.159515 -54.815815
v -46.548325 22.943180 -54.815815
v -46.548325 22.943176 -64.815811
v -46.548325 24.159515 -54.815815
v -46.548325 24.159512 -64.815811
v -56.548325 24.159512 -64.815811
v -22.224369 1.000000 5.123997
v -22.224369 0.999998 -6.875999
v -22.224369 7.000000 5.123997
v -10.224373 1.000000 5.123997
v -10.224373 0.999998 -6.875999
v -10.224373 7.000000 5.123997
v -10.224373 7.000000 -6.875999
v -22.224369 7.000000 -6.875999
v -38.769409 1.000000 5.123997
v -38.769409 0.999998 -6.875999
v -38.769409 11.000001 5.123995
v -26.769409 1.000000 5.123997
v -26.769409 0.999998 -6.875999
v -26.769409 11.000001 5.123995
v -26.769409 10.999999 -6.876001
v -38.769409 10.999999 -6.876001
v -38.769409 1.000000 5.123997
v -38.769409 0.999998 -6.875999
v -38.769409 11.000001 5.123995
v -26.769409 1.000000 5.123997
v -26.769409 0.999998 -6.875999
v -26.769409 11.000001 5.123995
v -26.769409 10.999999 -6.876001
v -38.769409 10.999999 -6.876001
v -75.826889 1.000000 5.123997
v -75.826889 0.999998 -6.875999
v -75.826889 11.000001 5.123995
v -45.826897 1.000000 5.123997
v -45.826897 0.999998 -6.875999
v -45.826897 11.000001 5.123995
v -45.826897 10.999999 -6.876001
v -75.826889 10.999999 -6.876001
v -75.826889 1.000004 22.794575
v -75.826889 1.000002 10.794567
v -75.826889 11.000005 22.794575
v -45.826897 1.000004 22.794575
v -45.826897 1.000002 10.794567
v -45.826897 11.000005 22.794575
v -45.826897 11.000003 10.794565
v -75.826889 11.000003 10.794565
v -75.826889 1.000006 42.745815
v -75.826889 1.000004 30.745800
v -75.826889 11.000007 42.745815
v -45.826897 1.000006 42.745815
v -45.826897 1.000004 30.745800
v -45.826897 11.000007 42.745815
v -45.826897 11.000005 30.745800
v -75.826889 11.000005 30.745800
v -41.890274 4.373349 42.372372
v -41.890274 4.373347 30.372364
v -41.890274 14.373346 42.372372
v -25.890274 4.373349 42.372372
v -25.890274 4.373347 30.372364
v -25.890274 14.373346 42.372372
v -25.890274 14.373345 30.372360
v -41.890274 14.373345 30.372360
v -19.518833 4.373349 42.372372
v -19.518833 4.373347 30.372364
v -19.518833 14.373346 42.372372
v -3.518833 4.373349 42.372372
v -3.518833 4.373347 30.372364
v -3.518833 14.373346 42.372372
v -3.518833 14.373345 30.372360
v -19.518833 14.373345 30.372360
v 3.375862 4.373349 42.372372
v 3.375862 4.373347 30.372364
v 3.375862 14.373346 42.372372
v 51.525578 4.373349 42.372372
v 51.525578 4.373347 30.372364
v 51.525578 14.373346 42.372372
v 51.525578 14.373345 30.372360
v 3.375862 14.373345 30.372360
v 19.069698 -4.406743 -46.688030
v 19.069698 -4.406748 -72.943604
v 19.069698 25.177839 -46.688030
v 39.408573 -4.406743 -46.688030
v 39.408573 -4.406748 -72.943604
v 39.408573 25.177839 -46.688030
v 39.408573 25.177835 -72.943604
v 19.069698 25.177835 -72.943604
v -10.381882 -4.406743 -46.688030
v -10.381882 -4.406748 -72.943604
v -10.381882 25.177839 -46.688030
v 9.957008 -4.406743 -46.688030
v 9.957008 -4.406748 -72.943604
v 9.957008 25.177839 -46.688030
v 9.957008 25.177835 -72.943604
v -10.381882 25.177835 -72.943604
v -56.548321 22.943184 -36.864170
v -56.548321 22.943180 -46.864170
v -56.548321 24.159519 -36.864170
v -46.548321 22.943184 -36.864170
v -46.548321 22.943180 -46.864170
v -46.548321 24.159519 -36.864170
v -46.548321 24.159515 -46.864170
v -56.548321 24.159515 -46.864170
v -56.548321 22.943184 -20.355564
v -56.548321 22.943184 -30.355562
v -56.548321 24.159519 -20.355564
v -46.548321 22.943184 -20.355564
v -46.548321 22.943184 -30.355562
v -46.548321 24.159519 -20.355564
v -46.548321 24.159519 -30.355562
v -56.548321 24.159519 -30.355562
v -56.548321 22.943188 -3.397774
v -56.548321 22.943184 -13.397774
v -56.548321 24.159523 -3.397774
v -46.548321 22.943188 -3.397774
v -46.548321 22.943184 -13.397774
v -46.548321 24.159523 -3.397774
v -46.548321 24.159519 -13.397774
v -56.548321 24.159519 -13.397774
v -38.036705 22.943188 -3.397774
v -38.036705 22.943184 -13.397774
v -38.036705 24.159523 -3.397774
v -28.036703 22.943188 -3.397774
v -28.036703 22.943184 -13.397774
v -28.036703 24.159523 -3.397774
v -28.036703 24.159519 -13.397774
v -38.036705 24.159519 -13.397774
v -19.639223 22.943188 -3.397774
v -19.639223 22.943184 -13.397774
v -19.639223 24.159523 -3.397774
v -9.639225 22.943188 -3.397774
v -9.639225 22.943184 -13.397774
v -9.639225 24.159523 -3.397774
v -9.639225 24.159519 -13.397774
v -19.639223 24.159519 -13.397774
v -0.321835 22.943188 -3.397774
v -0.321835 22.943184 -13.397774
v -0.321835 24.159523 -3.397774
v 9.678165 22.943188 -3.397774
v 9.678165 22.943184 -13.397774
v 9.678165 24.159523 -3.397774
v 9.678165 24.159519 -13.397774
v -0.321835 24.159519 -13.397774
v 17.321789 22.943188 -3.397774
v 17.321789 22.943184 -13.397774
v 17.321789 24.159523 -3.397774
v 27.321789 22.943188 -3.397774
v 27.321789 22.943184 -13.397774
v 27.321789 24.159523 -3.397774
v 27.321789 24.159519 -13.397774
v 17.321789 24.159519 -13.397774
v 34.995144 22.943188 -3.397774
v 34.995144 22.943184 -13.397774
v 34.995144 24.159523 -3.397774
v 44.995144 22.943188 -3.397774
v 44.995144 22.943184 -13.397774
v 44.995144 24.159523 -3.397774
v 44.995144 24.159519 -13.397774
v 34.995144 24.159519 -13.397774
v 52.350674 22.943188 -3.397774
v 52.350674 22.943184 -13.397774
v 52.350674 24.159523 -3.397774
v 62.350674 22.943188 -3.397774
v 62.350674 22.943184 -13.397774
v 62.350674 24.159523 -3.397774
v 62.350674 24.159519 -13.397774
v 52.350674 24.159519 -13.397774
v 52.350674 22.943184 -18.408157
v 52.350674 22.943184 -28.408157
v 52.350674 24.159519 -18.408157
v 62.350674 22.943184 -18.408157
v 62.350674 22.943184 -28.408157
v 62.350674 24.159519 -18.408157
v 62.350674 24.159519 -28.408157
v 52.350674 24.159519 -28.408157
v 52.350674 22.943184 -33.752388
v 52.350674 22.943180 -43.752388
v 52.350674 24.159519 -33.752388
v 62.350674 22.943184 -33.752388
v 62.350674 22.943180 -43.752388
v 62.350674 24.159519 -33.752388
v 62.350674 24.159515 -43.752388
v 52.350674 24.159515 -43.752388
v 52.350674 22.943180 -50.120167
v 52.350674 22.943180 -60.120167
v 52.350674 24.159515 -50.120167
v 62.350674 22.943180 -50.120167
v 62.350674 22.943180 -60.120167
v 62.350674 24.159515 -50.120167
v 62.350674 24.159515 -60.120167
v 52.350674 24.159515 -60.120167
v 42.963619 22.943176 -64.140236
v 42.963619 22.943176 -74.140236
v 42.963619 24.159512 -64.140236
v 52.963619 22.943176 -64.140236
v 52.963619 22.943176 -74.140236
v 52.963619 24.159512 -64.140236
v 52.963619 24.159512 -74.140236
v 42.963619 24.159512 -74.140236
v -0.999989 -1.000002 1.000000
v -0.999989 -1.000002 -0.999996
v -0.999989 1.000000 1.000000
v 1.000008 -1.000002 1.000000
v 1.000008 -1.000002 -0.999996
v 1.000008 1.000000 1.000000
v 1.000008 1.000000 -0.999996
v -0.999989 1.000000 -0.999996
v 67.059967 1.000002 14.359409
v 67.059967 1.000000 4.359409
v 67.059967 29.000004 14.359406
v 77.059967 1.000002 14.359409
v 77.059967 1.000000 4.359409
v 77.059967 29.000004 14.359406
v 77.059967 29.000000 4.359404
v 67.059967 29.000000 4.359404
v 67.059967 1.000006 34.676266
v 67.059967 1.000004 24.676266
v 67.059967 29.000004 34.676258
v 77.059967 1.000006 34.676266
v 77.059967 1.000004 24.676266
v 77.059967 29.000004 34.676258
v 77.059967 29.000004 24.676262
v 67.059967 29.000004 24.676262
v 67.083511 29.000004 34.452305
v 67.083511 29.000004 32.452305
v 67.083511 31.000006 34.452305
v 69.083527 29.000004 34.452305
v 69.083527 29.000004 32.452305
v 69.083527 31.000006 34.452305
v 69.083527 31.000006 32.452305
v 67.083511 31.000006 32.452305
v 67.083511 29.000008 38.875622
v 67.083511 29.000004 36.875614
v 67.083511 31.000010 38.875622
v 69.083527 29.000008 38.875622
v 69.083527 29.000004 36.875614
v 69.083527 31.000010 38.875622
v 69.083527 31.000006 36.875614
v 67.083511 31.000006 36.875614
v 67.083511 29.000008 43.088963
v 67.083511 29.000008 41.088955
v 67.083511 31.000010 43.088963
v 69.083527 29.000008 43.088963
v 69.083527 29.000008 41.088955
v 69.083527 31.000010 43.088963
v 69.083527 31.000010 41.088955
v 67.083511 31.000010 41.088955
v 67.083511 29.000008 47.603191
v 67.083511 29.000008 45.603184
v 67.083511 31.000010 47.603191
v 69.083527 29.000008 47.603191
v 69.083527 29.000008 45.603184
v 69.083527 31.000010 47.603191
v 69.083527 31.000010 45.603184
v 67.083511 31.000010 45.603184
v 67.083511 29.000008 51.564091
v 67.083511 29.000008 49.564075
v 67.083511 31.000010 51.564091
v 69.083527 29.000008 51.564091
v 69.083527 29.000008 49.564075
v 69.083527 31.000010 51.564091
v 69.083527 31.000010 49.564075
v 67.083511 31.000010 49.564075
v 62.895435 29.000008 51.564091
v 62.895435 29.000008 49.564075
v 62.895435 31.000010 51.564091
v 64.895447 29.000008 51.564091
v 64.895447 29.000008 49.564075
v 64.895447 31.000010 51.564091
v 64.895447 31.000010 49.564075
v 62.895435 31.000010 49.564075
v 58.630795 29.000008 51.564091
v 58.630795 29.000008 49.564075
v 58.630795 31.000010 51.564091
v 60.630802 29.000008 51.564091
v 60.630802 29.000008 49.564075
v 60.630802 31.000010 51.564091
v 60.630802 31.000010 49.564075
v 58.630795 31.000010 49.564075
v 54.727520 29.000008 51.564091
v 54.727520 29.000008 49.564075
v 54.727520 31.000010 51.564091
v 56.727528 29.000008 51.564091
v 56.727528 29.000008 49.564075
v 56.727528 31.000010 51.564091
v 56.727528 31.000010 49.564075
v 54.727520 31.000010 49.564075
v 50.830578 29.000008 51.564091
v 50.830578 29.000008 49.564075
v 50.830578 31.000010 51.564091
v 52.830585 29.000008 51.564091
v 52.830585 29.000008 49.564075
v 52.830585 31.000010 51.564091
v 52.830585 31.000010 49.564075
v 50.830578 31.000010 49.564075
v 47.101696 29.000008 51.564091
v 47.101696 29.000008 49.564075
v 47.101696 31.000010 51.564091
v 49.101696 29.000008 51.564091
v 49.101696 29.000008 49.564075
v 49.101696 31.000010 51.564091
v 49.101696 31.000010 49.564075
v 47.101696 31.000010 49.564075
v 39.410534 28.269527 53.564083
v 39.410534 28.269527 47.564083
v 39.410534 30.269527 53.564083
v 45.410542 28.269527 53.564083
v 45.410542 28.269527 47.564083
v 45.410542 30.269527 53.564083
v 45.410542 30.269527 47.564083
v 39.410534 30.269527 47.564083
v -16.384357 0.040816 55.445004
v -16.692287 0.992224 55.445004
v -16.384357 0.040816 49.445004
v -16.692287 0.992224 49.445004
v 40.700253 18.516420 55.445004
v 40.392315 19.467831 55.445004
v 40.700253 18.516420 49.445004
v 40.392315 19.467831 49.445004
vn -0.0000 1.0000 -0.0000
vn -0.0000 -0.0000 1.0000
vn 1.0000 -0.0000 -0.0000
vn -0.0000 -1.0000 -0.0000
vn -1.0000 -0.0000 -0.0000
vn -0.0000 -0.0000 -1.0000
vn -0.9514 -0.3079 -0.0000
vn 0.9514 0.3079 -0.0000
vn 0.3079 -0.9514 -0.0000
vn -0.3079 0.9514 -0.0000
vt 0.752350 0.833921
vt 0.376469 0.083333
vt 0.417842 0.083333
vt 0.417842 0.124706
vt 0.376469 0.124706
vt 0.417842 0.000588
vt 0.459215 0.000588
vt 0.459215 0.041960
vt 0.417842 0.041960
vt 0.459215 0.124706
vt 0.459215 0.166079
vt 0.417842 0.166079
vt 0.459215 0.083333
vt 0.500588 0.083333
vt 0.500588 0.124706
vt 0.376469 0.250000
vt 0.417842 0.250000
vt 0.417842 0.291373
vt 0.376469 0.291373
vt 0.417842 0.167254
vt 0.459215 0.167254
vt 0.459215 0.208627
vt 0.417842 0.208627
vt 0.459215 0.291373
vt 0.459215 0.332746
vt 0.417842 0.332746
vt 0.459215 0.250000
vt 0.500588 0.250000
vt 0.500588 0.291373
vt 0.167254 0.000588
vt 0.208627 0.000588
vt 0.208627 0.041960
vt 0.167254 0.041960
vt 0.125881 0.083333
vt 0.167254 0.083333
vt 0.167254 0.124706
vt 0.125881 0.124706
vt 0.208627 0.124706
vt 0.208627 0.166079
vt 0.167254 0.166079
vt 0.208627 0.083333
vt 0.250000 0.083333
vt 0.250000 0.124706
vt 0.041960 0.167254
vt 0.083333 0.167254
vt 0.083333 0.208627
vt 0.041960 0.208627
vt 0.000588 0.250000
vt 0.041960 0.250000
vt 0.041960 0.291373
vt 0.000588 0.291373
vt 0.083333 0.291373
vt 0.083333 0.332746
vt 0.041960 0.332746
vt 0.083333 0.250000
vt 0.124706 0.250000
vt 0.124706 0.291373
vt 0.417842 0.333921
vt 0.459215 0.333921
vt 0.459215 0.375294
vt 0.417842 0.375294
vt 0.376469 0.416667
vt 0.417842 0.416667
vt 0.417842 0.458040
vt 0.376469 0.458040
vt 0.459215 0.458040
vt 0.459215 0.499412
vt 0.417842 0.499412
vt 0.459215 0.416667
vt 0.500588 0.416667
vt 0.500588 0.458040
vt 0.167254 0.167254
vt 0.208627 0.167254
vt 0.208627 0.208627
vt 0.167254 0.208627
vt 0.125881 0.250000
vt 0.167254 0.250000
vt 0.167254 0.291373
vt 0.125881 0.291373
vt 0.208627 0.291373
vt 0.208627 0.332746
vt 0.167254 0.332746
vt 0.208627 0.250000
vt 0.250000 0.250000
vt 0.250000 0.291373
vt 0.543136 0.000588
vt 0.584509 0.000588
vt 0.584509 0.041960
vt 0.543136 0.041960
vt 0.501763 0.083333
vt 0.543136 0.083333
vt 0.543136 0.124706
vt 0.501763 0.124706
vt 0.584509 0.124706
vt 0.584509 0.166079
vt 0.543136 0.166079
vt 0.584509 0.083333
vt 0.625881 0.083333
vt 0.625881 0.124706
vt 0.543136 0.167254
vt 0.584509 0.167254
vt 0.584509 0.208627
vt 0.543136 0.208627
vt 0.501763 0.250000
vt 0.543136 0.250000
vt 0.543136 0.291373
vt 0.501763 0.291373
vt 0.584509 0.291373
vt 0.584509 0.332746
vt 0.543136 0.332746
vt 0.584509 0.250000
vt 0.625881 0.250000
vt 0.625881 0.291373
vt 0.543136 0.333921
vt 0.584509 0.333921
vt 0.584509 0.375294
vt 0.543136 0.375294
vt 0.501763 0.416667
vt 0.543136 0.416667
vt 0.543136 0.458040
vt 0.501763 0.458040
vt 0.584509 0.458040
vt 0.584509 0.499412
vt 0.543136 0.499412
vt 0.584509 0.416667
vt 0.625881 0.416667
vt 0.625881 0.458040
vt 0.292548 0.333921
vt 0.333921 0.333921
vt 0.333921 0.375294
vt 0.292548 0.375294
vt 0.251175 0.416667
vt 0.292548 0.416667
vt 0.292548 0.458040
vt 0.251175 0.458040
vt 0.333921 0.458040
vt 0.333921 0.499412
vt 0.292548 0.499412
vt 0.333921 0.416667
vt 0.375294 0.416667
vt 0.375294 0.458040
vt 0.041960 0.000588
vt 0.083333 0.000588
vt 0.083333 0.041960
vt 0.041960 0.041960
vt 0.000588 0.083333
vt 0.041960 0.083333
vt 0.041960 0.124706
vt 0.000588 0.124706
vt 0.083333 0.124706
vt 0.083333 0.166079
vt 0.041960 0.166079
vt 0.083333 0.083333
vt 0.124706 0.083333
vt 0.124706 0.124706
vt 0.167254 0.333921
vt 0.208627 0.333921
vt 0.208627 0.375294
vt 0.167254 0.375294
vt 0.125881 0.416667
vt 0.167254 0.416667
vt 0.167254 0.458040
vt 0.125881 0.458040
vt 0.208627 0.458040
vt 0.208627 0.499412
vt 0.167254 0.499412
vt 0.208627 0.416667
vt 0.250000 0.416667
vt 0.250000 0.458040
vt 0.041960 0.500588
vt 0.083333 0.500588
vt 0.083333 0.541961
vt 0.041960 0.541961
vt 0.000588 0.583333
vt 0.041960 0.583333
vt 0.041960 0.624706
vt 0.000588 0.624706
vt 0.083333 0.624706
vt 0.083333 0.666079
vt 0.041960 0.666079
vt 0.083333 0.583333
vt 0.124706 0.583333
vt 0.124706 0.624706
vt 0.292548 0.000588
vt 0.333921 0.000588
vt 0.333921 0.041960
vt 0.292548 0.041960
vt 0.251175 0.083333
vt 0.292548 0.083333
vt 0.292548 0.124706
vt 0.251175 0.124706
vt 0.333921 0.124706
vt 0.333921 0.166079
vt 0.292548 0.166079
vt 0.333921 0.083333
vt 0.375294 0.083333
vt 0.375294 0.124706
vt 0.167254 0.500588
vt 0.208627 0.500588
vt 0.208627 0.541961
vt 0.167254 0.541961
vt 0.125881 0.583333
vt 0.167254 0.583333
vt 0.167254 0.624706
vt 0.125881 0.624706
vt 0.208627 0.624706
vt 0.208627 0.666079
vt 0.167254 0.666079
vt 0.208627 0.583333
vt 0.250000 0.583333
vt 0.250000 0.624706
vt 0.041960 0.667254
vt 0.083333 0.667254
vt 0.083333 0.708627
vt 0.041960 0.708627
vt 0.000588 0.750000
vt 0.041960 0.750000
vt 0.041960 0.791373
vt 0.000588 0.791373
vt 0.083333 0.791373
vt 0.083333 0.832746
vt 0.041960 0.832746
vt 0.083333 0.750000
vt 0.124706 0.750000
vt 0.124706 0.791373
vt 0.167254 0.667254
vt 0.208627 0.667254
vt 0.208627 0.708627
vt 0.167254 0.708627
vt 0.125881 0.750000
vt 0.167254 0.750000
vt 0.167254 0.791373
vt 0.125881 0.791373
vt 0.208627 0.791373
vt 0.208627 0.832746
vt 0.167254 0.832746
vt 0.208627 0.750000
vt 0.250000 0.750000
vt 0.250000 0.791373
vt 0.292548 0.667254
vt 0.333921 0.667254
vt 0.333921 0.708627
vt 0.292548 0.708627
vt 0.251175 0.750000
vt 0.292548 0.750000
vt 0.292548 0.791373
vt 0.251175 0.791373
vt 0.333921 0.791373
vt 0.333921 0.832746
vt 0.292548 0.832746
vt 0.333921 0.750000
vt 0.375294 0.750000
vt 0.375294 0.791373
vt 0.668429 0.167254
vt 0.709802 0.167254
vt 0.709802 0.208627
vt 0.668429 0.208627
vt 0.627057 0.250000
vt 0.668429 0.250000
vt 0.668429 0.291373
vt 0.627057 0.291373
vt 0.709802 0.291373
vt 0.709802 0.332746
vt 0.668429 0.332746
vt 0.709802 0.250000
vt 0.751175 0.250000
vt 0.751175 0.291373
vt 0.417842 0.667254
vt 0.459215 0.667254
vt 0.459215 0.708627
vt 0.417842 0.708627
vt 0.376469 0.750000
vt 0.417842 0.750000
vt 0.417842 0.791373
vt 0.376469 0.791373
vt 0.459215 0.791373
vt 0.459215 0.832746
vt 0.417842 0.832746
vt 0.459215 0.750000
vt 0.500588 0.750000
vt 0.500588 0.791373
vt 0.292548 0.500588
vt 0.333921 0.500588
vt 0.333921 0.541961
vt 0.292548 0.541961
vt 0.251175 0.583333
vt 0.292548 0.583333
vt 0.292548 0.624706
vt 0.251175 0.624706
vt 0.333921 0.624706
vt 0.333921 0.666079
vt 0.292548 0.666079
vt 0.333921 0.583333
vt 0.375294 0.583333
vt 0.375294 0.624706
vt 0.292548 0.167254
vt 0.333921 0.167254
vt 0.333921 0.208627
vt 0.292548 0.208627
vt 0.251175 0.250000
vt 0.292548 0.250000
vt 0.292548 0.291373
vt 0.251175 0.291373
vt 0.333921 0.291373
vt 0.333921 0.332746
vt 0.292548 0.332746
vt 0.333921 0.250000
vt 0.375294 0.250000
vt 0.375294 0.291373
vt 0.417842 0.500588
vt 0.459215 0.500588
vt 0.459215 0.541961
vt 0.417842 0.541961
vt 0.376469 0.583333
vt 0.417842 0.583333
vt 0.417842 0.624706
vt 0.376469 0.624706
vt 0.459215 0.624706
vt 0.459215 0.666079
vt 0.417842 0.666079
vt 0.459215 0.583333
vt 0.500588 0.583333
vt 0.500588 0.624706
vt 0.543136 0.667254
vt 0.584509 0.667254
vt 0.584509 0.708627
vt 0.543136 0.708627
vt 0.501763 0.750000
vt 0.543136 0.750000
vt 0.543136 0.791373
vt 0.501763 0.791373
vt 0.584509 0.791373
vt 0.584509 0.832746
vt 0.543136 0.832746
vt 0.584509 0.750000
vt 0.625881 0.750000
vt 0.625881 0.791373
vt 0.668430 0.667254
vt 0.709802 0.667254
vt 0.709802 0.708627
vt 0.668430 0.708627
vt 0.627057 0.750000
vt 0.668430 0.750000
vt 0.668430 0.791373
vt 0.627057 0.791373
vt 0.709802 0.791373
vt 0.709802 0.832746
vt 0.668430 0.832746
vt 0.709802 0.750000
vt 0.751175 0.750000
vt 0.751175 0.791373
vt 0.793723 0.000588
vt 0.835096 0.000588
vt 0.835096 0.041960
vt 0.793723 0.041960
vt 0.752350 0.083333
vt 0.793723 0.083333
vt 0.793723 0.124706
vt 0.752350 0.124706
vt 0.835096 0.124706
vt 0.835096 0.166079
vt 0.793723 0.166079
vt 0.835096 0.083333
vt 0.876469 0.083333
vt 0.876469 0.124706
vt 0.752350 0.250000
vt 0.793723 0.250000
vt 0.793723 0.291373
vt 0.752350 0.291373
vt 0.793723 0.167254
vt 0.835096 0.167254
vt 0.835096 0.208627
vt 0.793723 0.208627
vt 0.835096 0.291373
vt 0.835096 0.332746
vt 0.793723 0.332746
vt 0.835096 0.250000
vt 0.627057 0.416667
vt 0.668429 0.416667
vt 0.668429 0.458040
vt 0.627057 0.458040
vt 0.668429 0.333921
vt 0.709802 0.333921
vt 0.709802 0.375294
vt 0.668429 0.375294
vt 0.709802 0.458040
vt 0.709802 0.499412
vt 0.668429 0.499412
vt 0.709802 0.416667
vt 0.751175 0.416667
vt 0.751175 0.458040
vt 0.752350 0.416667
vt 0.793723 0.416667
vt 0.793723 0.458040
vt 0.752350 0.458040
vt 0.793723 0.333921
vt 0.835096 0.333921
vt 0.835096 0.375294
vt 0.793723 0.375294
vt 0.835096 0.458040
vt 0.835096 0.499412
vt 0.793723 0.499412
vt 0.835096 0.416667
vt 0.876469 0.416667
vt 0.876469 0.458040
vt 0.752350 0.583333
vt 0.793723 0.583333
vt 0.793723 0.624706
vt 0.752350 0.624706
vt 0.793723 0.500588
vt 0.835096 0.500588
vt 0.835096 0.541960
vt 0.793723 0.541960
vt 0.835096 0.624706
vt 0.835096 0.666079
vt 0.793723 0.666079
vt 0.835096 0.583333
vt 0.876469 0.583333
vt 0.876469 0.624706
vt 0.501763 0.583333
vt 0.543136 0.583333
vt 0.543136 0.624706
vt 0.501763 0.624706
vt 0.543136 0.500588
vt 0.584509 0.500588
vt 0.584509 0.541961
vt 0.543136 0.541961
vt 0.584509 0.624706
vt 0.584509 0.666079
vt 0.543136 0.666079
vt 0.584509 0.583333
vt 0.625881 0.583333
vt 0.625881 0.624706
vt 0.000588 0.416667
vt 0.041961 0.416667
vt 0.041961 0.458040
vt 0.000588 0.458040
vt 0.041961 0.333921
vt 0.083333 0.333921
vt 0.083333 0.375294
vt 0.041961 0.375294
vt 0.083333 0.458040
vt 0.083333 0.499412
vt 0.041961 0.499412
vt 0.083333 0.416667
vt 0.124706 0.416667
vt 0.124706 0.458040
vt 0.627057 0.083333
vt 0.668430 0.083333
vt 0.668430 0.124706
vt 0.627057 0.124706
vt 0.668430 0.000588
vt 0.709802 0.000588
vt 0.709802 0.041960
vt 0.668430 0.041960
vt 0.709802 0.124706
vt 0.709802 0.166079
vt 0.668430 0.166079
vt 0.709802 0.083333
vt 0.751175 0.083333
vt 0.751175 0.124706
vt 0.752350 0.750000
vt 0.793723 0.750000
vt 0.793723 0.791373
vt 0.752350 0.791373
vt 0.793723 0.667254
vt 0.835096 0.667254
vt 0.835096 0.708627
vt 0.793723 0.708627
vt 0.835096 0.791373
vt 0.835096 0.832746
vt 0.793723 0.832746
vt 0.835096 0.750000
vt 0.876469 0.750000
vt 0.876469 0.791373
vt 0.000588 0.916667
vt 0.041961 0.916667
vt 0.041961 0.958040
vt 0.000588 0.958040
vt 0.041961 0.833921
vt 0.083333 0.833921
vt 0.083333 0.875294
vt 0.041961 0.875294
vt 0.083333 0.958040
vt 0.083333 0.999412
vt 0.041961 0.999412
vt 0.083333 0.916667
vt 0.124706 0.916667
vt 0.124706 0.958040
vt 0.125881 0.916667
vt 0.167254 0.916667
vt 0.167254 0.958040
vt 0.125881 0.958040
vt 0.167254 0.833921
vt 0.208627 0.833921
vt 0.208627 0.875294
vt 0.167254 0.875294
vt 0.208627 0.958040
vt 0.208627 0.999412
vt 0.167254 0.999412
vt 0.208627 0.916667
vt 0.250000 0.916667
vt 0.250000 0.958040
vt 0.251175 0.916667
vt 0.292548 0.916667
vt 0.292548 0.958040
vt 0.251175 0.958040
vt 0.292548 0.833921
vt 0.333921 0.833921
vt 0.333921 0.875294
vt 0.292548 0.875294
vt 0.333921 0.958040
vt 0.333921 0.999412
vt 0.292548 0.999412
vt 0.333921 0.916667
vt 0.375294 0.916667
vt 0.375294 0.958040
vt 0.376469 0.916667
vt 0.417842 0.916667
vt 0.417842 0.958040
vt 0.376469 0.958040
vt 0.417842 0.833921
vt 0.459215 0.833921
vt 0.459215 0.875294
vt 0.417842 0.875294
vt 0.459215 0.958040
vt 0.459215 0.999412
vt 0.417842 0.999412
vt 0.459215 0.916667
vt 0.500588 0.916667
vt 0.500588 0.958040
vt 0.627057 0.583333
vt 0.668429 0.583333
vt 0.668429 0.624706
vt 0.627057 0.624706
vt 0.668429 0.500588
vt 0.709802 0.500588
vt 0.709802 0.541960
vt 0.668429 0.541960
vt 0.709802 0.624706
vt 0.709802 0.666079
vt 0.668429 0.666079
vt 0.709802 0.583333
vt 0.751175 0.583333
vt 0.751175 0.624706
vt 0.501763 0.916667
vt 0.543136 0.916667
vt 0.543136 0.958040
vt 0.501763 0.958040
vt 0.543136 0.833921
vt 0.584509 0.833921
vt 0.584509 0.875294
vt 0.543136 0.875294
vt 0.584509 0.958040
vt 0.584509 0.999412
vt 0.543136 0.999412
vt 0.584509 0.916667
vt 0.625881 0.916667
vt 0.625881 0.958040
vt 0.668429 0.833921
vt 0.709802 0.833921
vt 0.709802 0.875294
vt 0.668429 0.875294
vt 0.709802 0.916667
vt 0.668429 0.916667
vt 0.709802 0.958040
vt 0.668429 0.958040
vt 0.709802 0.999412
vt 0.668429 0.999412
vt 0.627057 0.916667
vt 0.627057 0.958040
vt 0.751175 0.916667
vt 0.751175 0.958040
s 1
usemtl Material.001
f 1/1/1 3/1/1 8/1/1 2/1/1
f 4/1/2 1/1/2 2/1/2 6/1/2
f 5/1/3 3/1/3 1/1/3 4/1/3
f 5/1/4 4/1/4 6/1/4 7/1/4
f 6/1/5 2/1/5 8/1/5 7/1/5
f 7/1/6 8/1/6 3/1/6 5/1/6
s 0
f 10/2/4 13/3/4 12/4/4 9/5/4
f 9/6/5 11/7/5 16/8/5 10/9/5
f 12/4/2 14/10/2 11/11/2 9/12/2
f 13/3/3 15/13/3 14/10/3 12/4/3
f 15/13/1 16/14/1 11/15/1 14/10/1
f 10/9/6 16/8/6 15/13/6 13/3/6
f 18/16/4 21/17/4 20/18/4 17/19/4
f 17/20/5 19/21/5 24/22/5 18/23/5
f 20/18/2 22/24/2 19/25/2 17/26/2
f 21/17/3 23/27/3 22/24/3 20/18/3
f 23/27/1 24/28/1 19/29/1 22/24/1
f 18/23/6 24/22/6 23/27/6 21/17/6
f 25/30/5 27/31/5 32/32/5 26/33/5
f 26/34/4 29/35/4 28/36/4 25/37/4
f 28/36/2 30/38/2 27/39/2 25/40/2
f 29/35/3 31/41/3 30/38/3 28/36/3
f 31/41/1 32/42/1 27/43/1 30/38/1
f 26/33/6 32/32/6 31/41/6 29/35/6
f 33/44/5 35/45/5 40/46/5 34/47/5
f 34/48/4 37/49/4 36/50/4 33/51/4
f 36/50/2 38/52/2 35/53/2 33/54/2
f 37/49/3 39/55/3 38/52/3 36/50/3
f 39/55/1 40/56/1 35/57/1 38/52/1
f 34/47/6 40/46/6 39/55/6 37/49/6
f 41/58/5 43/59/5 48/60/5 42/61/5
f 42/62/4 45/63/4 44/64/4 41/65/4
f 44/64/2 46/66/2 43/67/2 41/68/2
f 45/63/3 47/69/3 46/66/3 44/64/3
f 47/69/1 48/70/1 43/71/1 46/66/1
f 42/61/6 48/60/6 47/69/6 45/63/6
f 49/72/5 51/73/5 56/74/5 50/75/5
f 50/76/4 53/77/4 52/78/4 49/79/4
f 52/78/2 54/80/2 51/81/2 49/82/2
f 53/77/3 55/83/3 54/80/3 52/78/3
f 55/83/1 56/84/1 51/85/1 54/80/1
f 50/75/6 56/74/6 55/83/6 53/77/6
f 57/86/5 59/87/5 64/88/5 58/89/5
f 58/90/4 61/91/4 60/92/4 57/93/4
f 60/92/2 62/94/2 59/95/2 57/96/2
f 61/91/3 63/97/3 62/94/3 60/92/3
f 63/97/1 64/98/1 59/99/1 62/94/1
f 58/89/6 64/88/6 63/97/6 61/91/6
f 65/100/5 67/101/5 72/102/5 66/103/5
f 66/104/4 69/105/4 68/106/4 65/107/4
f 68/106/2 70/108/2 67/109/2 65/110/2
f 69/105/3 71/111/3 70/108/3 68/106/3
f 71/111/1 72/112/1 67/113/1 70/108/1
f 66/103/6 72/102/6 71/111/6 69/105/6
f 73/114/5 75/115/5 80/116/5 74/117/5
f 74/118/4 77/119/4 76/120/4 73/121/4
f 76/120/2 78/122/2 75/123/2 73/124/2
f 77/119/3 79/125/3 78/122/3 76/120/3
f 79/125/1 80/126/1 75/127/1 78/122/1
f 74/117/6 80/116/6 79/125/6 77/119/6
f 81/128/5 83/129/5 88/130/5 82/131/5
f 82/132/4 85/133/4 84/134/4 81/135/4
f 84/134/2 86/136/2 83/137/2 81/138/2
f 85/133/3 87/139/3 86/136/3 84/134/3
f 87/139/1 88/140/1 83/141/1 86/136/1
f 82/131/6 88/130/6 87/139/6 85/133/6
f 89/142/5 91/143/5 96/144/5 90/145/5
f 90/146/4 93/147/4 92/148/4 89/149/4
f 92/148/2 94/150/2 91/151/2 89/152/2
f 93/147/3 95/153/3 94/150/3 92/148/3
f 95/153/1 96/154/1 91/155/1 94/150/1
f 90/145/6 96/144/6 95/153/6 93/147/6
f 97/156/5 99/157/5 104/158/5 98/159/5
f 98/160/4 101/161/4 100/162/4 97/163/4
f 100/162/2 102/164/2 99/165/2 97/166/2
f 101/161/3 103/167/3 102/164/3 100/162/3
f 103/167/1 104/168/1 99/169/1 102/164/1
f 98/159/6 104/158/6 103/167/6 101/161/6
f 105/170/5 107/171/5 112/172/5 106/173/5
f 106/174/4 109/175/4 108/176/4 105/177/4
f 108/176/2 110/178/2 107/179/2 105/180/2
f 109/175/3 111/181/3 110/178/3 108/176/3
f 111/181/1 112/182/1 107/183/1 110/178/1
f 106/173/6 112/172/6 111/181/6 109/175/6
f 113/184/5 115/185/5 120/186/5 114/187/5
f 114/188/4 117/189/4 116/190/4 113/191/4
f 116/190/2 118/192/2 115/193/2 113/194/2
f 117/189/3 119/195/3 118/192/3 116/190/3
f 119/195/1 120/196/1 115/197/1 118/192/1
f 114/187/6 120/186/6 119/195/6 117/189/6
f 121/198/5 123/199/5 128/200/5 122/201/5
f 122/202/4 125/203/4 124/204/4 121/205/4
f 124/204/2 126/206/2 123/207/2 121/208/2
f 125/203/3 127/209/3 126/206/3 124/204/3
f 127/209/1 128/210/1 123/211/1 126/206/1
f 122/201/6 128/200/6 127/209/6 125/203/6
f 129/212/5 131/213/5 136/214/5 130/215/5
f 130/216/4 133/217/4 132/218/4 129/219/4
f 132/218/2 134/220/2 131/221/2 129/222/2
f 133/217/3 135/223/3 134/220/3 132/218/3
f 135/223/1 136/224/1 131/225/1 134/220/1
f 130/215/6 136/214/6 135/223/6 133/217/6
f 137/226/5 139/227/5 144/228/5 138/229/5
f 138/230/4 141/231/4 140/232/4 137/233/4
f 140/232/2 142/234/2 139/235/2 137/236/2
f 141/231/3 143/237/3 142/234/3 140/232/3
f 143/237/1 144/238/1 139/239/1 142/234/1
f 138/229/6 144/228/6 143/237/6 141/231/6
f 145/240/5 147/241/5 152/242/5 146/243/5
f 146/244/4 149/245/4 148/246/4 145/247/4
f 148/246/2 150/248/2 147/249/2 145/250/2
f 149/245/3 151/251/3 150/248/3 148/246/3
f 151/251/1 152/252/1 147/253/1 150/248/1
f 146/243/6 152/242/6 151/251/6 149/245/6
f 153/254/5 155/255/5 160/256/5 154/257/5
f 154/258/4 157/259/4 156/260/4 153/261/4
f 156/260/2 158/262/2 155/263/2 153/264/2
f 157/259/3 159/265/3 158/262/3 156/260/3
f 159/265/1 160/266/1 155/267/1 158/262/1
f 154/257/6 160/256/6 159/265/6 157/259/6
f 161/268/5 163/269/5 168/270/5 162/271/5
f 162/272/4 165/273/4 164/274/4 161/275/4
f 164/274/2 166/276/2 163/277/2 161/278/2
f 165/273/3 167/279/3 166/276/3 164/274/3
f 167/279/1 168/280/1 163/281/1 166/276/1
f 162/271/6 168/270/6 167/279/6 165/273/6
f 169/282/5 171/283/5 176/284/5 170/285/5
f 170/286/4 173/287/4 172/288/4 169/289/4
f 172/288/2 174/290/2 171/291/2 169/292/2
f 173/287/3 175/293/3 174/290/3 172/288/3
f 175/293/1 176/294/1 171/295/1 174/290/1
f 170/285/6 176/284/6 175/293/6 173/287/6
f 177/296/5 179/297/5 184/298/5 178/299/5
f 178/300/4 181/301/4 180/302/4 177/303/4
f 180/302/2 182/304/2 179/305/2 177/306/2
f 181/301/3 183/307/3 182/304/3 180/302/3
f 183/307/1 184/308/1 179/309/1 182/304/1
f 178/299/6 184/298/6 183/307/6 181/301/6
f 185/310/5 187/311/5 192/312/5 186/313/5
f 186/314/4 189/315/4 188/316/4 185/317/4
f 188/316/2 190/318/2 187/319/2 185/320/2
f 189/315/3 191/321/3 190/318/3 188/316/3
f 191/321/1 192/322/1 187/323/1 190/318/1
f 186/313/6 192/312/6 191/321/6 189/315/6
f 193/324/5 195/325/5 200/326/5 194/327/5
f 194/328/4 197/329/4 196/330/4 193/331/4
f 196/330/2 198/332/2 195/333/2 193/334/2
f 197/329/3 199/335/3 198/332/3 196/330/3
f 199/335/1 200/336/1 195/337/1 198/332/1
f 194/327/6 200/326/6 199/335/6 197/329/6
f 201/338/5 203/339/5 208/340/5 202/341/5
f 202/342/4 205/343/4 204/344/4 201/345/4
f 204/344/2 206/346/2 203/347/2 201/348/2
f 205/343/3 207/349/3 206/346/3 204/344/3
f 207/349/1 208/350/1 203/351/1 206/346/1
f 202/341/6 208/340/6 207/349/6 205/343/6
f 209/352/5 211/353/5 216/354/5 210/355/5
f 210/356/4 213/357/4 212/358/4 209/359/4
f 212/358/2 214/360/2 211/361/2 209/362/2
f 213/357/3 215/363/3 214/360/3 212/358/3
f 215/363/1 216/364/1 211/365/1 214/360/1
f 210/355/6 216/354/6 215/363/6 213/357/6
f 218/366/4 221/367/4 220/368/4 217/369/4
f 217/370/5 219/371/5 224/372/5 218/373/5
f 220/368/2 222/374/2 219/375/2 217/376/2
f 221/367/3 223/377/3 222/374/3 220/368/3
f 218/373/6 224/372/6 223/377/6 221/367/6
f 226/378/4 229/379/4 228/380/4 225/381/4
f 225/382/5 227/383/5 232/384/5 226/385/5
f 228/380/2 230/386/2 227/387/2 225/388/2
f 229/379/3 231/389/3 230/386/3 228/380/3
f 231/389/1 232/390/1 227/391/1 230/386/1
f 226/385/6 232/384/6 231/389/6 229/379/6
f 234/392/4 237/393/4 236/394/4 233/395/4
f 233/396/5 235/397/5 240/398/5 234/399/5
f 236/394/2 238/400/2 235/401/2 233/402/2
f 237/393/3 239/403/3 238/400/3 236/394/3
f 239/403/1 240/404/1 235/405/1 238/400/1
f 234/399/6 240/398/6 239/403/6 237/393/6
f 242/406/4 245/407/4 244/408/4 241/409/4
f 241/410/5 243/411/5 248/412/5 242/413/5
f 244/408/2 246/414/2 243/415/2 241/416/2
f 245/407/3 247/417/3 246/414/3 244/408/3
f 247/417/1 248/418/1 243/419/1 246/414/1
f 242/413/6 248/412/6 247/417/6 245/407/6
f 250/420/4 253/421/4 252/422/4 249/423/4
f 249/424/5 251/425/5 256/426/5 250/427/5
f 252/422/2 254/428/2 251/429/2 249/430/2
f 253/421/3 255/431/3 254/428/3 252/422/3
f 255/431/1 256/432/1 251/433/1 254/428/1
f 250/427/6 256/426/6 255/431/6 253/421/6
f 258/434/4 261/435/4 260/436/4 257/437/4
f 257/438/5 259/439/5 264/440/5 258/441/5
f 260/436/2 262/442/2 259/443/2 257/444/2
f 261/435/3 263/445/3 262/442/3 260/436/3
f 263/445/1 264/446/1 259/447/1 262/442/1
f 258/441/6 264/440/6 263/445/6 261/435/6
f 266/448/4 269/449/4 268/450/4 265/451/4
f 265/452/5 267/453/5 272/454/5 266/455/5
f 268/450/2 270/456/2 267/457/2 265/458/2
f 269/449/3 271/459/3 270/456/3 268/450/3
f 271/459/1 272/460/1 267/461/1 270/456/1
f 266/455/6 272/454/6 271/459/6 269/449/6
f 274/462/4 277/463/4 276/464/4 273/465/4
f 273/466/5 275/467/5 280/468/5 274/469/5
f 276/464/2 278/470/2 275/471/2 273/472/2
f 277/463/3 279/473/3 278/470/3 276/464/3
f 279/473/1 280/474/1 275/475/1 278/470/1
f 274/469/6 280/468/6 279/473/6 277/463/6
f 282/476/4 285/477/4 284/478/4 281/479/4
f 281/480/5 283/481/5 288/482/5 282/483/5
f 284/478/2 286/484/2 283/485/2 281/486/2
f 285/477/3 287/487/3 286/484/3 284/478/3
f 287/487/1 288/488/1 283/489/1 286/484/1
f 282/483/6 288/482/6 287/487/6 285/477/6
f 290/490/4 293/491/4 292/492/4 289/493/4
f 289/494/5 291/495/5 296/496/5 290/497/5
f 292/492/2 294/498/2 291/499/2 289/500/2
f 293/491/3 295/501/3 294/498/3 292/492/3
f 295/501/1 296/502/1 291/503/1 294/498/1
f 290/497/6 296/496/6 295/501/6 293/491/6
f 298/504/4 301/505/4 300/506/4 297/507/4
f 297/508/5 299/509/5 304/510/5 298/511/5
f 300/506/2 302/512/2 299/513/2 297/514/2
f 301/505/3 303/515/3 302/512/3 300/506/3
f 303/515/1 304/516/1 299/517/1 302/512/1
f 298/511/6 304/510/6 303/515/6 301/505/6
f 306/518/4 309/519/4 308/520/4 305/521/4
f 305/522/5 307/523/5 312/524/5 306/525/5
f 308/520/2 310/526/2 307/527/2 305/528/2
f 309/519/3 311/529/3 310/526/3 308/520/3
f 311/529/1 312/530/1 307/531/1 310/526/1
f 306/525/6 312/524/6 311/529/6 309/519/6
f 314/532/4 317/533/4 316/534/4 313/535/4
f 313/536/5 315/537/5 320/538/5 314/539/5
f 316/534/2 318/540/2 315/541/2 313/542/2
f 317/533/3 319/543/3 318/540/3 316/534/3
f 319/543/1 320/544/1 315/545/1 318/540/1
f 314/539/6 320/538/6 319/543/6 317/533/6
f 322/546/4 325/547/4 324/548/4 321/549/4
f 321/550/5 323/551/5 328/552/5 322/553/5
f 324/548/2 326/554/2 323/555/2 321/556/2
f 325/547/3 327/557/3 326/554/3 324/548/3
f 327/557/1 328/558/1 323/559/1 326/554/1
f 322/553/6 328/552/6 327/557/6 325/547/6
f 329/560/7 330/561/7 332/562/7 331/563/7
f 331/563/6 332/562/6 336/564/6 335/565/6
f 335/565/8 336/564/8 334/566/8 333/567/8
f 333/567/2 334/566/2 330/568/2 329/569/2
f 331/570/9 335/565/9 333/567/9 329/571/9
f 336/564/10 332/572/10 330/573/10 334/566/10
