# Blender 4.1.1
# www.blender.org
mtllib Spring.mtl
o 立方体
v -1.176154 0.524474 -1.268070
v -1.176154 1.020738 -1.268070
v 1.185967 0.524474 -1.268070
v 1.185967 1.020738 -1.268070
v -1.176154 0.524474 1.268070
v -1.176154 1.020738 1.268070
v 1.185967 0.524474 1.268070
v 1.185967 1.020738 1.268070
v -1.119439 -1.036851 -1.273550
v -1.119439 -0.599310 -1.273550
v 1.129251 -1.036851 -1.273550
v 1.129251 -0.599310 -1.273550
v -1.119439 -1.036851 1.273550
v -1.119439 -0.599310 1.273550
v 1.129251 -1.036851 1.273550
v 1.129251 -0.599310 1.273550
v -0.950369 0.614495 -1.000000
v -0.902848 0.736205 -1.000000
v 0.912661 -0.112911 -1.000000
v 0.960182 0.008799 -1.000000
v -0.950369 0.614495 1.000000
v -0.902848 0.736205 1.000000
v 0.912661 -0.112911 1.000000
v 0.960182 0.008799 1.000000
v 0.915614 0.729832 -1.000000
v 0.962281 0.607793 -1.000000
v -0.952468 0.015501 -1.000000
v -0.905801 -0.106538 -1.000000
v 0.915614 0.729832 1.000000
v 0.962281 0.607793 1.000000
v -0.952468 0.015501 1.000000
v -0.905802 -0.106538 1.000000
v 0.915614 0.026916 -1.000000
v 0.962281 -0.095124 -1.000000
v -0.952468 -0.687415 -1.000000
v -0.905801 -0.809455 -1.000000
v 0.915614 0.026916 1.000000
v 0.962281 -0.095124 1.000000
v -0.952468 -0.687415 1.000000
v -0.905802 -0.809455 1.000000
v -0.950369 -0.088421 -1.000000
v -0.902848 0.033289 -1.000000
v 0.912661 -0.815828 -1.000000
v 0.960182 -0.694118 -1.000000
v -0.950369 -0.088421 1.000000
v -0.902848 0.033289 1.000000
v 0.912661 -0.815828 1.000000
v 0.960182 -0.694118 1.000000
vn -0.0000 -0.0000 -1.0000
vn 1.0000 -0.0000 -0.0000
vn -0.0000 -0.0000 1.0000
vn -1.0000 -0.0000 -0.0000
vn -0.0000 -1.0000 -0.0000
vn -0.0000 1.0000 -0.0000
vn 0.9315 -0.3637 -0.0000
vn -0.9315 0.3637 -0.0000
vn -0.3637 -0.9315 -0.0000
vn 0.3637 0.9315 -0.0000
vn -0.9340 -0.3572 -0.0000
vn 0.9340 0.3572 -0.0000
vn -0.3572 0.9340 -0.0000
vn 0.3572 -0.9340 -0.0000
vt 0.745350 0.758374
vt 0.823814 0.679910
vt 0.823814 0.758374
vt 0.745350 0.679910
vt 0.823814 0.601446
vt 0.745350 0.601446
vt 0.823814 0.522982
vt 0.745350 0.522982
vt 0.823814 0.444518
vt 0.902278 0.522982
vt 0.902278 0.601446
vt 0.666886 0.601446
vt 0.745350 0.444518
vt 0.666886 0.522982
vt 0.111184 0.000219
vt 0.222149 0.000219
vt 0.222149 0.111184
vt 0.111184 0.111184
vt 0.222149 0.222149
vt 0.111184 0.222149
vt 0.222149 0.333114
vt 0.111184 0.333114
vt 0.222149 0.444079
vt 0.111184 0.444079
vt 0.000219 0.222149
vt 0.000219 0.333114
vt 0.333114 0.222149
vt 0.333114 0.333114
vt 0.444518 0.000219
vt 0.555482 0.000219
vt 0.555482 0.111184
vt 0.444518 0.111184
vt 0.555482 0.222149
vt 0.444518 0.222149
vt 0.555482 0.333114
vt 0.444518 0.333114
vt 0.555482 0.444079
vt 0.444518 0.444079
vt 0.333553 0.222149
vt 0.333553 0.333114
vt 0.666447 0.222149
vt 0.666447 0.333114
vt 0.111184 0.444518
vt 0.222149 0.444518
vt 0.222149 0.555482
vt 0.111184 0.555482
vt 0.222149 0.666447
vt 0.111184 0.666447
vt 0.222149 0.777412
vt 0.111184 0.777412
vt 0.222149 0.888377
vt 0.111184 0.888377
vt 0.000219 0.666447
vt 0.000219 0.777412
vt 0.333114 0.666447
vt 0.333114 0.777412
vt 0.444518 0.444518
vt 0.555482 0.444518
vt 0.555482 0.555482
vt 0.444518 0.555482
vt 0.555482 0.666447
vt 0.444518 0.666447
vt 0.555482 0.777412
vt 0.444518 0.777412
vt 0.555482 0.888377
vt 0.444518 0.888377
vt 0.333553 0.666447
vt 0.333553 0.777412
vt 0.666447 0.666447
vt 0.666447 0.777412
vt 0.777851 0.000219
vt 0.888816 0.000219
vt 0.888816 0.111184
vt 0.777851 0.111184
vt 0.888816 0.222149
vt 0.777851 0.222149
vt 0.888816 0.333114
vt 0.777851 0.333114
vt 0.888816 0.444079
vt 0.777851 0.444079
vt 0.666886 0.222149
vt 0.666886 0.333114
vt 0.999781 0.222149
vt 0.999781 0.333114
s 0
usemtl マテリアル
f 2/1/1 3/2/1 1/3/1
f 4/4/2 7/5/2 3/2/2
f 8/6/3 5/7/3 7/5/3
f 6/8/4 1/9/4 5/7/4
f 7/5/5 1/10/5 3/11/5
f 4/12/6 6/8/6 8/6/6
f 2/1/1 4/4/1 3/2/1
f 4/4/2 8/6/2 7/5/2
f 8/6/3 6/8/3 5/7/3
f 6/8/4 2/13/4 1/9/4
f 7/5/5 5/7/5 1/10/5
f 4/12/6 2/14/6 6/8/6
f 9/15/1 10/16/1 12/17/1 11/18/1
f 11/18/2 12/17/2 16/19/2 15/20/2
f 15/20/3 16/19/3 14/21/3 13/22/3
f 13/22/4 14/21/4 10/23/4 9/24/4
f 11/25/5 15/20/5 13/22/5 9/26/5
f 16/19/6 12/27/6 10/28/6 14/21/6
f 17/29/1 18/30/1 20/31/1 19/32/1
f 19/32/7 20/31/7 24/33/7 23/34/7
f 23/34/3 24/33/3 22/35/3 21/36/3
f 21/36/8 22/35/8 18/37/8 17/38/8
f 19/39/9 23/34/9 21/36/9 17/40/9
f 24/33/10 20/41/10 18/42/10 22/35/10
f 25/43/1 26/44/1 28/45/1 27/46/1
f 27/46/11 28/45/11 32/47/11 31/48/11
f 31/48/3 32/47/3 30/49/3 29/50/3
f 29/50/12 30/49/12 26/51/12 25/52/12
f 27/53/13 31/48/13 29/50/13 25/54/13
f 32/47/14 28/55/14 26/56/14 30/49/14
f 33/57/1 34/58/1 36/59/1 35/60/1
f 35/60/11 36/59/11 40/61/11 39/62/11
f 39/62/3 40/61/3 38/63/3 37/64/3
f 37/64/12 38/63/12 34/65/12 33/66/12
f 35/67/13 39/62/13 37/64/13 33/68/13
f 40/61/14 36/69/14 34/70/14 38/63/14
f 41/71/1 42/72/1 44/73/1 43/74/1
f 43/74/7 44/73/7 48/75/7 47/76/7
f 47/76/3 48/75/3 46/77/3 45/78/3
f 45/78/8 46/77/8 42/79/8 41/80/8
f 43/81/9 47/76/9 45/78/9 41/82/9
f 48/75/10 44/83/10 42/84/10 46/77/10
