# Blender 4.1.1
# www.blender.org
mtllib EnemyGhost.mtl
o 球
v 0.555200 0.879209 0.148327
v 0.845550 0.584552 0.198525
v 1.002686 0.199563 0.225692
v 1.022907 -0.008791 0.229188
v 1.002686 -0.217145 0.225692
v 0.845550 -0.602133 0.198525
v 0.164970 1.038676 0.122112
v 0.351936 0.977902 0.194102
v 0.524246 0.879209 0.260448
v 0.675276 0.746391 0.318601
v 0.799223 0.584552 0.366326
v 0.891325 0.399910 0.401789
v 0.948040 0.199563 0.423627
v 0.967191 -0.008791 0.431001
v 0.948040 -0.217145 0.423627
v 0.891325 -0.417492 0.401789
v 0.799223 -0.602133 0.366326
v 0.675276 -0.763973 0.318601
v 0.524246 -0.896791 0.260448
v 0.351936 -0.995483 0.194102
v 0.164970 -1.056258 0.122112
v 0.146628 1.038676 0.158606
v 0.315957 0.977902 0.265688
v 0.472012 0.879209 0.364376
v 0.608796 0.746391 0.450876
v 0.721051 0.584552 0.521865
v 0.804464 0.399910 0.574614
v 0.855829 0.199563 0.607097
v 0.873173 -0.008791 0.618066
v 0.855829 -0.217145 0.607097
v 0.804464 -0.417492 0.574614
v 0.721051 -0.602133 0.521865
v 0.608796 -0.763973 0.450876
v 0.472012 -0.896791 0.364376
v 0.315957 -0.995483 0.265688
v 0.146628 -1.056258 0.158606
v 0.121519 1.038676 0.190821
v 0.266704 0.977902 0.328880
v 0.400507 0.879209 0.456116
v 0.517787 0.746391 0.567640
v 0.614036 0.584552 0.659164
v 0.685555 0.399910 0.727173
v 0.729597 0.199563 0.769053
v 0.744467 -0.008791 0.783194
v 0.729597 -0.217145 0.769053
v 0.685555 -0.417492 0.727173
v 0.614036 -0.602133 0.659164
v 0.517787 -0.763973 0.567640
v 0.400507 -0.896791 0.456116
v 0.266704 -0.995483 0.328880
v 0.121519 -1.056258 0.190821
v 0.090607 1.038676 0.217519
v 0.206069 0.977902 0.381249
v 0.312478 0.879209 0.532144
v 0.405748 0.746391 0.664405
v 0.482291 0.584552 0.772948
v 0.539169 0.399910 0.853603
v 0.574193 0.199563 0.903270
v 0.586020 -0.008791 0.920040
v 0.574193 -0.217145 0.903270
v 0.539169 -0.417492 0.853603
v 0.482291 -0.602133 0.772948
v 0.405748 -0.763973 0.664405
v 0.312478 -0.896791 0.532144
v 0.206069 -0.995483 0.381249
v 0.090607 -1.056258 0.217519
v 0.055081 1.038676 0.237673
v 0.136382 0.977902 0.420782
v 0.211309 0.879209 0.589537
v 0.276983 0.746391 0.737452
v 0.330880 0.584552 0.858843
v 0.370930 0.399910 0.949045
v 0.395592 0.199563 1.004590
v 0.403919 -0.008791 1.023346
v 0.395592 -0.217145 1.004590
v 0.370930 -0.417492 0.949045
v 0.330880 -0.602133 0.858843
v 0.276983 -0.763973 0.737452
v 0.211309 -0.896791 0.589537
v 0.136382 -0.995483 0.420782
v 0.055081 -1.056258 0.237673
v -0.029469 1.059197 0.047245
v 0.016306 1.038676 0.250508
v 0.060321 0.977902 0.445961
v 0.100886 0.879209 0.626091
v 0.136442 0.746391 0.783976
v 0.165621 0.584552 0.913549
v 0.187304 0.399910 1.009831
v 0.200656 0.199563 1.069120
v 0.205164 -0.008791 1.089140
v 0.200656 -0.217145 1.069120
v 0.187304 -0.417492 1.009831
v 0.165621 -0.602133 0.913549
v 0.136442 -0.763973 0.783976
v 0.100886 -0.896791 0.626091
v 0.060321 -0.995483 0.445961
v 0.016306 -1.056258 0.250508
v -0.024228 1.038676 0.255533
v -0.019190 0.977902 0.455817
v -0.014546 0.879209 0.640399
v -0.010475 0.746391 0.802188
v -0.007135 0.584552 0.934963
v -0.004653 0.399910 1.033625
v -0.003124 0.199563 1.094380
v -0.002608 -0.008791 1.114895
v -0.003124 -0.217145 1.094380
v -0.004653 -0.417492 1.033625
v -0.007135 -0.602133 0.934963
v -0.010475 -0.763973 0.802188
v -0.014546 -0.896791 0.640399
v -0.019190 -0.995483 0.455817
v -0.024228 -1.056258 0.255533
v -0.064964 1.038676 0.252553
v -0.099096 0.977902 0.449971
v -0.130551 0.879209 0.631913
v -0.158122 0.746391 0.791387
v -0.180749 0.584552 0.922263
v -0.197563 0.399910 1.019513
v -0.207916 0.199563 1.079400
v -0.211412 -0.008791 1.099620
v -0.207916 -0.217145 1.079400
v -0.197563 -0.417492 1.019513
v -0.180749 -0.602133 0.922263
v -0.158122 -0.763973 0.791387
v -0.130551 -0.896791 0.631913
v -0.099096 -0.995483 0.449971
v -0.064964 -1.056258 0.252553
v -0.104336 1.038676 0.241683
v -0.176326 0.977902 0.428650
v -0.242672 0.879209 0.600959
v -0.300825 0.746391 0.751989
v -0.348550 0.584552 0.875937
v -0.384013 0.399910 0.968038
v -0.405851 0.199563 1.024754
v -0.413225 -0.008791 1.043904
v -0.405851 -0.217145 1.024754
v -0.384013 -0.417492 0.968038
v -0.348550 -0.602133 0.875937
v -0.300825 -0.763973 0.751989
v -0.242672 -0.896791 0.600959
v -0.176326 -0.995483 0.428650
v -0.104336 -1.056258 0.241683
v -0.140830 1.038676 0.223341
v -0.247912 0.977902 0.392671
v -0.346600 0.879209 0.548725
v -0.433100 0.746391 0.685509
v -0.504089 0.584552 0.797764
v -0.556838 0.399910 0.881177
v -0.589321 0.199563 0.932542
v -0.600290 -0.008791 0.949886
v -0.589321 -0.217145 0.932542
v -0.556838 -0.417492 0.881177
v -0.504089 -0.602133 0.797764
v -0.433100 -0.763973 0.685509
v -0.346600 -0.896791 0.548725
v -0.247912 -0.995483 0.392671
v -0.140830 -1.056258 0.223341
v -0.173045 1.038676 0.198232
v -0.311104 0.977902 0.343417
v -0.438340 0.879209 0.477220
v -0.549863 0.746391 0.594500
v -0.641388 0.584552 0.690749
v -0.709397 0.399910 0.762268
v -0.751277 0.199563 0.806310
v -0.765418 -0.008791 0.821180
v -0.751277 -0.217145 0.806310
v -0.709397 -0.417492 0.762268
v -0.641388 -0.602133 0.690749
v -0.549863 -0.763973 0.594500
v -0.438340 -0.896791 0.477220
v -0.311104 -0.995483 0.343417
v -0.173045 -1.056258 0.198232
v -0.199743 1.038676 0.167320
v -0.363473 0.977902 0.282782
v -0.514368 0.879209 0.389192
v -0.646628 0.746391 0.482461
v -0.755172 0.584552 0.559004
v -0.835827 0.399910 0.615882
v -0.885494 0.199563 0.650907
v -0.902264 -0.008791 0.662733
v -0.885494 -0.217145 0.650907
v -0.835827 -0.417492 0.615882
v -0.755172 -0.602133 0.559004
v -0.646628 -0.763973 0.482461
v -0.514368 -0.896791 0.389192
v -0.363473 -0.995483 0.282782
v -0.199743 -1.056258 0.167320
v -0.219897 1.038676 0.131794
v -0.403006 0.977902 0.213095
v -0.571761 0.879209 0.288022
v -0.719676 0.746391 0.353696
v -0.841067 0.584552 0.407594
v -0.931268 0.399910 0.447643
v -0.986814 0.199563 0.472305
v -1.005570 -0.008791 0.480632
v -0.986814 -0.217145 0.472305
v -0.931268 -0.417492 0.447643
v -0.841067 -0.602133 0.407594
v -0.719676 -0.763973 0.353696
v -0.571761 -0.896791 0.288022
v -0.403006 -0.995483 0.213095
v -0.219897 -1.056258 0.131794
v -0.232732 1.038676 0.093019
v -0.428185 0.977902 0.137035
v -0.608315 0.879209 0.177599
v -0.766200 0.746391 0.213155
v -0.895773 0.584552 0.242335
v -0.992054 0.399910 0.264017
v -1.051344 0.199563 0.277369
v -1.071364 -0.008791 0.281877
v -1.051344 -0.217145 0.277369
v -0.992054 -0.417492 0.264017
v -0.895773 -0.602133 0.242335
v -0.766200 -0.763973 0.213155
v -0.608315 -0.896791 0.177599
v -0.428185 -0.995483 0.137035
v -0.232732 -1.056258 0.093019
v -0.237757 1.038676 0.052485
v -0.438041 0.977902 0.057524
v -0.622623 0.879209 0.062168
v -0.784411 0.746391 0.066238
v -0.917187 0.584552 0.069578
v -1.015849 0.399910 0.072061
v -1.076604 0.199563 0.073589
v -1.097119 -0.008791 0.074105
v -1.076604 -0.217145 0.073589
v -1.015849 -0.417492 0.072061
v -0.917187 -0.602133 0.069578
v -0.784411 -0.763973 0.066238
v -0.622623 -0.896791 0.062168
v -0.438041 -0.995483 0.057524
v -0.237757 -1.056258 0.052485
v -0.234777 1.038676 0.011749
v -0.432196 0.977902 -0.022382
v -0.614137 0.879209 -0.053838
v -0.773611 0.746391 -0.081409
v -0.904487 0.584552 -0.104036
v -1.001737 0.399910 -0.120849
v -1.061623 0.199563 -0.131203
v -1.081844 -0.008791 -0.134699
v -1.061623 -0.217145 -0.131203
v -1.001737 -0.417492 -0.120849
v -0.904487 -0.602133 -0.104036
v -0.773611 -0.763973 -0.081409
v -0.614137 -0.896791 -0.053838
v -0.432196 -0.995483 -0.022382
v -0.234777 -1.056258 0.011749
v -0.223907 1.038676 -0.027622
v -0.410874 0.977902 -0.099612
v -0.583183 0.879209 -0.165959
v -0.734213 0.746391 -0.224112
v -0.858160 0.584552 -0.271837
v -0.950262 0.399910 -0.307300
v -1.006977 0.199563 -0.329138
v -1.026127 -0.008791 -0.336512
v -1.006977 -0.217145 -0.329138
v -0.950262 -0.417492 -0.307300
v -0.858160 -0.602133 -0.271837
v -0.734213 -0.763973 -0.224112
v -0.583183 -0.896791 -0.165959
v -0.410874 -0.995483 -0.099612
v -0.223907 -1.056258 -0.027622
v -0.205565 1.038676 -0.064117
v -0.374895 0.977902 -0.171199
v -0.530949 0.879209 -0.269886
v -0.667733 0.746391 -0.356387
v -0.779988 0.584552 -0.427376
v -0.863401 0.399910 -0.480125
v -0.914766 0.199563 -0.512608
v -0.932110 -0.008791 -0.523576
v -0.914766 -0.217145 -0.512608
v -0.863401 -0.417492 -0.480125
v -0.779988 -0.602133 -0.427376
v -0.667733 -0.763973 -0.356387
v -0.530949 -0.896791 -0.269886
v -0.374895 -0.995483 -0.171199
v -0.205565 -1.056258 -0.064117
v -0.180456 1.038676 -0.096332
v -0.325641 0.977902 -0.234391
v -0.459444 0.879209 -0.361627
v -0.576724 0.746391 -0.473150
v -0.672973 0.584552 -0.564675
v -0.744492 0.399910 -0.632684
v -0.788534 0.199563 -0.674564
v -0.803404 -0.008791 -0.688705
v -0.788534 -0.217145 -0.674564
v -0.744492 -0.417492 -0.632684
v -0.672973 -0.602133 -0.564675
v -0.576724 -0.763973 -0.473150
v -0.459444 -0.896791 -0.361627
v -0.325641 -0.995483 -0.234391
v -0.180456 -1.056258 -0.096332
v -0.149544 1.038676 -0.123029
v -0.265006 0.977902 -0.286760
v -0.371416 0.879209 -0.437655
v -0.464685 0.746391 -0.569915
v -0.541228 0.584552 -0.678458
v -0.598106 0.399910 -0.759113
v -0.633131 0.199563 -0.808781
v -0.644956 -0.008791 -0.825551
v -0.633131 -0.217145 -0.808781
v -0.598106 -0.417492 -0.759113
v -0.541228 -0.602133 -0.678458
v -0.464685 -0.763973 -0.569915
v -0.371416 -0.896791 -0.437655
v -0.265006 -0.995483 -0.286760
v -0.149544 -1.056258 -0.123029
v -0.029469 -1.076779 0.047245
v -0.114018 1.038676 -0.143183
v -0.195319 0.977902 -0.326293
v -0.270246 0.879209 -0.495048
v -0.335920 0.746391 -0.642963
v -0.389818 0.584552 -0.764354
v -0.429867 0.399910 -0.854555
v -0.454529 0.199563 -0.910101
v -0.462856 -0.008791 -0.928856
v -0.454529 -0.217145 -0.910101
v -0.429867 -0.417492 -0.854555
v -0.389818 -0.602133 -0.764354
v -0.335920 -0.763973 -0.642963
v -0.270246 -0.896791 -0.495048
v -0.195319 -0.995483 -0.326293
v -0.114018 -1.056258 -0.143183
v -0.075243 1.038676 -0.156019
v -0.119259 0.977902 -0.351471
v -0.159823 0.879209 -0.531601
v -0.195379 0.746391 -0.689487
v -0.224559 0.584552 -0.819059
v -0.246241 0.399910 -0.915341
v -0.259593 0.199563 -0.974631
v -0.264101 -0.008791 -0.994650
v -0.259593 -0.217145 -0.974631
v -0.246241 -0.417492 -0.915341
v -0.224559 -0.602133 -0.819059
v -0.195379 -0.763973 -0.689487
v -0.159823 -0.896791 -0.531601
v -0.119259 -0.995483 -0.351471
v -0.075243 -1.056258 -0.156019
v -0.034709 1.038676 -0.161043
v -0.039748 0.977902 -0.361327
v -0.044392 0.879209 -0.545910
v -0.048462 0.746391 -0.707698
v -0.051802 0.584552 -0.840474
v -0.054285 0.399910 -0.939135
v -0.055813 0.199563 -0.999891
v -0.056329 -0.008791 -1.020405
v -0.055813 -0.217145 -0.999891
v -0.054285 -0.417492 -0.939135
v -0.051802 -0.602133 -0.840474
v -0.048462 -0.763973 -0.707698
v -0.044392 -0.896791 -0.545910
v -0.039748 -0.995483 -0.361327
v -0.034709 -1.056258 -0.161043
v 0.006027 1.038676 -0.158064
v 0.040158 0.977902 -0.355482
v 0.071614 0.879209 -0.537424
v 0.099185 0.746391 -0.696898
v 0.121812 0.584552 -0.827774
v 0.138625 0.399910 -0.925024
v 0.148979 0.199563 -0.984910
v 0.152475 -0.008791 -1.005130
v 0.148979 -0.217145 -0.984910
v 0.138625 -0.417492 -0.925024
v 0.121812 -0.602133 -0.827774
v 0.099185 -0.763973 -0.696898
v 0.071614 -0.896791 -0.537424
v 0.040158 -0.995483 -0.355482
v 0.006027 -1.056258 -0.158064
v 0.045398 1.038676 -0.147194
v 0.117388 0.977902 -0.334160
v 0.183735 0.879209 -0.506469
v 0.241888 0.746391 -0.657500
v 0.289613 0.584552 -0.781447
v 0.325076 0.399910 -0.873548
v 0.346914 0.199563 -0.930264
v 0.354287 -0.008791 -0.949414
v 0.346914 -0.217145 -0.930264
v 0.325076 -0.417492 -0.873548
v 0.289613 -0.602133 -0.781447
v 0.241888 -0.763973 -0.657500
v 0.183735 -0.896791 -0.506469
v 0.117388 -0.995483 -0.334160
v 0.045398 -1.056258 -0.147194
v 0.081893 1.038676 -0.128852
v 0.188975 0.977902 -0.298181
v 0.287662 0.879209 -0.454236
v 0.374163 0.746391 -0.591019
v 0.445151 0.584552 -0.703274
v 0.497901 0.399910 -0.786687
v 0.530384 0.199563 -0.838053
v 0.541352 -0.008791 -0.855396
v 0.530384 -0.217145 -0.838053
v 0.497901 -0.417492 -0.786687
v 0.445151 -0.602133 -0.703274
v 0.374163 -0.763973 -0.591019
v 0.287662 -0.896791 -0.454236
v 0.188975 -0.995483 -0.298181
v 0.081893 -1.056258 -0.128852
v 0.114108 1.038676 -0.103743
v 0.252167 0.977902 -0.248928
v 0.379403 0.879209 -0.382731
v 0.490926 0.746391 -0.500011
v 0.582451 0.584552 -0.596259
v 0.650460 0.399910 -0.667779
v 0.692340 0.199563 -0.711820
v 0.706481 -0.008791 -0.726691
v 0.692340 -0.217145 -0.711820
v 0.650460 -0.417492 -0.667779
v 0.582451 -0.602133 -0.596259
v 0.490926 -0.763973 -0.500011
v 0.379403 -0.896791 -0.382731
v 0.252167 -0.995483 -0.248928
v 0.114108 -1.056258 -0.103743
v 0.140805 1.038676 -0.072831
v 0.304536 0.977902 -0.188293
v 0.455430 0.879209 -0.294702
v 0.587691 0.746391 -0.387971
v 0.696234 0.584552 -0.464515
v 0.776889 0.399910 -0.521393
v 0.826556 0.199563 -0.556417
v 0.843327 -0.008791 -0.568243
v 0.826556 -0.217145 -0.556417
v 0.776889 -0.417492 -0.521393
v 0.696234 -0.602133 -0.464515
v 0.587691 -0.763973 -0.387971
v 0.455430 -0.896791 -0.294702
v 0.304536 -0.995483 -0.188293
v 0.140805 -1.056258 -0.072831
v 0.160959 1.038676 -0.037305
v 0.344069 0.977902 -0.118606
v 0.512824 0.879209 -0.193533
v 0.660739 0.746391 -0.259207
v 0.782129 0.584552 -0.313104
v 0.872331 0.399910 -0.353154
v 0.927877 0.199563 -0.377816
v 0.946632 -0.008791 -0.386143
v 0.927877 -0.217145 -0.377816
v 0.872331 -0.417492 -0.353154
v 0.782129 -0.602133 -0.313104
v 0.660739 -0.763973 -0.259207
v 0.512824 -0.896791 -0.193533
v 0.344069 -0.995483 -0.118606
v 0.160959 -1.056258 -0.037305
v 0.173795 1.038676 0.001470
v 0.369247 0.977902 -0.042545
v 0.549377 0.879209 -0.083110
v 0.707263 0.746391 -0.118666
v 0.836835 0.584552 -0.147845
v 0.933117 0.399910 -0.169528
v 0.992407 0.199563 -0.182879
v 1.012426 -0.008791 -0.187387
v 0.992407 -0.217145 -0.182879
v 0.933117 -0.417492 -0.169528
v 0.836835 -0.602133 -0.147845
v 0.707263 -0.763973 -0.118666
v 0.549377 -0.896791 -0.083110
v 0.369247 -0.995483 -0.042545
v 0.173795 -1.056258 0.001470
v 0.178819 1.038676 0.042004
v 0.379103 0.977902 0.036966
v 0.563685 0.879209 0.032322
v 0.725474 0.746391 0.028251
v 0.858250 0.584552 0.024911
v 0.956911 0.399910 0.022429
v 1.017666 0.199563 0.020900
v 1.038180 -0.008791 0.020384
v 1.017666 -0.217145 0.020900
v 0.956911 -0.417492 0.022429
v 0.858250 -0.602133 0.024911
v 0.725474 -0.763973 0.028251
v 0.563685 -0.896791 0.032322
v 0.379103 -0.995483 0.036966
v 0.178819 -1.056258 0.042004
v 0.175839 1.038676 0.082740
v 0.373258 0.977902 0.116871
v 0.714673 0.746391 0.175898
v 0.942800 0.399910 0.215339
v 0.942800 -0.417492 0.215339
v 0.714673 -0.763973 0.175898
v 0.555199 -0.896791 0.148327
v 0.373258 -0.995483 0.116871
v 0.175839 -1.056258 0.082740
vn 0.5516 0.8286 0.0954
vn 0.8212 0.5528 0.1420
vn 0.9667 0.1939 0.1671
vn 0.9854 -0.0000 0.1704
vn 0.9667 -0.1939 0.1671
vn 0.8212 -0.5528 0.1420
vn 0.1875 0.9796 0.0722
vn 0.3620 0.9217 0.1394
vn 0.5224 0.8286 0.2011
vn 0.6627 0.7041 0.2552
vn 0.7777 0.5528 0.2994
vn 0.8630 0.3805 0.3323
vn 0.9155 0.1939 0.3525
vn 0.9332 -0.0000 0.3593
vn 0.9155 -0.1939 0.3525
vn 0.8630 -0.3805 0.3323
vn 0.7777 -0.5528 0.2994
vn 0.6627 -0.7041 0.2552
vn 0.5224 -0.8286 0.2011
vn 0.3620 -0.9217 0.1394
vn 0.1875 -0.9796 0.0722
vn 0.1699 0.9796 0.1074
vn 0.3278 0.9217 0.2073
vn 0.4731 0.8286 0.2992
vn 0.6002 0.7041 0.3796
vn 0.7043 0.5528 0.4454
vn 0.7816 0.3805 0.4943
vn 0.8291 0.1939 0.5243
vn 0.8452 -0.0000 0.5345
vn 0.8291 -0.1939 0.5243
vn 0.7816 -0.3805 0.4943
vn 0.7043 -0.5528 0.4454
vn 0.6002 -0.7041 0.3796
vn 0.4731 -0.8286 0.2992
vn 0.3278 -0.9217 0.2073
vn 0.1699 -0.9796 0.1074
vn 0.1456 0.9796 0.1385
vn 0.2811 0.9217 0.2673
vn 0.4056 0.8286 0.3857
vn 0.5146 0.7041 0.4894
vn 0.6039 0.5528 0.5743
vn 0.6701 0.3805 0.6373
vn 0.7109 0.1939 0.6760
vn 0.7247 -0.0000 0.6891
vn 0.7109 -0.1939 0.6760
vn 0.6701 -0.3805 0.6373
vn 0.6039 -0.5528 0.5743
vn 0.5146 -0.7041 0.4894
vn 0.4056 -0.8286 0.3857
vn 0.2811 -0.9217 0.2673
vn 0.1456 -0.9796 0.1385
vn 0.1158 0.9796 0.1642
vn 0.2235 0.9217 0.3170
vn 0.3226 0.8286 0.4575
vn 0.4093 0.7041 0.5804
vn 0.4803 0.5528 0.6810
vn 0.5330 0.3805 0.7557
vn 0.5654 0.1939 0.8017
vn 0.5763 -0.0000 0.8172
vn 0.5654 -0.1939 0.8017
vn 0.5330 -0.3805 0.7557
vn 0.4803 -0.5528 0.6810
vn 0.4093 -0.7041 0.5804
vn 0.3226 -0.8286 0.4575
vn 0.2235 -0.9217 0.3170
vn 0.1158 -0.9796 0.1642
vn 0.0816 0.9796 0.1837
vn 0.1574 0.9217 0.3545
vn 0.2272 0.8286 0.5116
vn 0.2882 0.7041 0.6490
vn 0.3382 0.5528 0.7616
vn 0.3753 0.3805 0.8452
vn 0.3981 0.1939 0.8966
vn 0.4058 -0.0000 0.9140
vn 0.3981 -0.1939 0.8966
vn 0.3753 -0.3805 0.8452
vn 0.3382 -0.5528 0.7616
vn 0.2882 -0.7041 0.6490
vn 0.2272 -0.8286 0.5116
vn 0.1574 -0.9217 0.3545
vn 0.0816 -0.9796 0.1837
vn -0.0000 1.0000 -0.0000
vn 0.0442 0.9796 0.1961
vn 0.0852 0.9217 0.3784
vn 0.1230 0.8286 0.5461
vn 0.1560 0.7041 0.6928
vn 0.1831 0.5528 0.8130
vn 0.2032 0.3805 0.9022
vn 0.2155 0.1939 0.9570
vn 0.2197 -0.0000 0.9756
vn 0.2155 -0.1939 0.9570
vn 0.2032 -0.3805 0.9022
vn 0.1831 -0.5528 0.8130
vn 0.1560 -0.7041 0.6928
vn 0.1230 -0.8286 0.5461
vn 0.0852 -0.9217 0.3784
vn 0.0442 -0.9796 0.1961
vn 0.0051 0.9796 0.2009
vn 0.0098 0.9217 0.3878
vn 0.0141 0.8286 0.5596
vn 0.0179 0.7041 0.7099
vn 0.0210 0.5528 0.8331
vn 0.0233 0.3805 0.9245
vn 0.0247 0.1939 0.9807
vn 0.0251 -0.0000 0.9997
vn 0.0247 -0.1939 0.9807
vn 0.0233 -0.3805 0.9245
vn 0.0210 -0.5528 0.8331
vn 0.0179 -0.7041 0.7099
vn 0.0141 -0.8286 0.5596
vn 0.0098 -0.9217 0.3878
vn 0.0051 -0.9796 0.2009
vn -0.0342 0.9796 0.1980
vn -0.0661 0.9217 0.3822
vn -0.0954 0.8286 0.5516
vn -0.1210 0.7041 0.6998
vn -0.1420 0.5528 0.8212
vn -0.1575 0.3805 0.9112
vn -0.1671 0.1939 0.9667
vn -0.1704 -0.0000 0.9854
vn -0.1671 -0.1939 0.9667
vn -0.1575 -0.3805 0.9112
vn -0.1420 -0.5528 0.8212
vn -0.1210 -0.7041 0.6998
vn -0.0954 -0.8286 0.5516
vn -0.0661 -0.9217 0.3822
vn -0.0342 -0.9796 0.1980
vn -0.0722 0.9796 0.1875
vn -0.1394 0.9217 0.3620
vn -0.2011 0.8286 0.5224
vn -0.2552 0.7041 0.6627
vn -0.2994 0.5528 0.7777
vn -0.3323 0.3805 0.8630
vn -0.3525 0.1939 0.9155
vn -0.3593 -0.0000 0.9332
vn -0.3525 -0.1939 0.9155
vn -0.3323 -0.3805 0.8630
vn -0.2994 -0.5528 0.7777
vn -0.2552 -0.7041 0.6627
vn -0.2011 -0.8286 0.5224
vn -0.1394 -0.9217 0.3620
vn -0.0722 -0.9796 0.1875
vn -0.1074 0.9796 0.1699
vn -0.2073 0.9217 0.3278
vn -0.2992 0.8286 0.4731
vn -0.3796 0.7041 0.6002
vn -0.4454 0.5528 0.7043
vn -0.4943 0.3805 0.7816
vn -0.5243 0.1939 0.8291
vn -0.5345 -0.0000 0.8452
vn -0.5243 -0.1939 0.8291
vn -0.4943 -0.3805 0.7816
vn -0.4454 -0.5528 0.7043
vn -0.3796 -0.7041 0.6002
vn -0.2992 -0.8286 0.4731
vn -0.2073 -0.9217 0.3278
vn -0.1074 -0.9796 0.1699
vn -0.1385 0.9796 0.1456
vn -0.2673 0.9217 0.2811
vn -0.3857 0.8286 0.4056
vn -0.4894 0.7041 0.5146
vn -0.5743 0.5528 0.6039
vn -0.6373 0.3805 0.6701
vn -0.6760 0.1939 0.7109
vn -0.6891 -0.0000 0.7247
vn -0.6760 -0.1939 0.7109
vn -0.6373 -0.3805 0.6701
vn -0.5743 -0.5528 0.6039
vn -0.4894 -0.7041 0.5146
vn -0.3857 -0.8286 0.4056
vn -0.2673 -0.9217 0.2811
vn -0.1385 -0.9796 0.1456
vn -0.1642 0.9796 0.1158
vn -0.3170 0.9217 0.2235
vn -0.4575 0.8286 0.3226
vn -0.5804 0.7041 0.4093
vn -0.6810 0.5528 0.4803
vn -0.7557 0.3805 0.5330
vn -0.8017 0.1939 0.5654
vn -0.8172 -0.0000 0.5763
vn -0.8017 -0.1939 0.5654
vn -0.7557 -0.3805 0.5330
vn -0.6810 -0.5528 0.4803
vn -0.5804 -0.7041 0.4093
vn -0.4575 -0.8286 0.3226
vn -0.3170 -0.9217 0.2235
vn -0.1642 -0.9796 0.1158
vn -0.1837 0.9796 0.0816
vn -0.3545 0.9217 0.1574
vn -0.5116 0.8286 0.2272
vn -0.6490 0.7041 0.2882
vn -0.7616 0.5528 0.3382
vn -0.8452 0.3805 0.3753
vn -0.8966 0.1939 0.3981
vn -0.9140 -0.0000 0.4058
vn -0.8966 -0.1939 0.3981
vn -0.8452 -0.3805 0.3753
vn -0.7616 -0.5528 0.3382
vn -0.6490 -0.7041 0.2882
vn -0.5116 -0.8286 0.2272
vn -0.3545 -0.9217 0.1574
vn -0.1837 -0.9796 0.0816
vn -0.1961 0.9796 0.0442
vn -0.3784 0.9217 0.0852
vn -0.5461 0.8286 0.1230
vn -0.6928 0.7041 0.1560
vn -0.8130 0.5528 0.1831
vn -0.9022 0.3805 0.2032
vn -0.9570 0.1939 0.2155
vn -0.9756 -0.0000 0.2197
vn -0.9570 -0.1939 0.2155
vn -0.9022 -0.3805 0.2032
vn -0.8130 -0.5528 0.1831
vn -0.6928 -0.7041 0.1560
vn -0.5461 -0.8286 0.1230
vn -0.3784 -0.9217 0.0852
vn -0.1961 -0.9796 0.0442
vn -0.2009 0.9796 0.0051
vn -0.3878 0.9217 0.0098
vn -0.5596 0.8286 0.0141
vn -0.7099 0.7041 0.0179
vn -0.8331 0.5528 0.0210
vn -0.9245 0.3805 0.0233
vn -0.9807 0.1939 0.0247
vn -0.9997 -0.0000 0.0251
vn -0.9807 -0.1939 0.0247
vn -0.9245 -0.3805 0.0233
vn -0.8331 -0.5528 0.0210
vn -0.7099 -0.7041 0.0179
vn -0.5596 -0.8286 0.0141
vn -0.3878 -0.9217 0.0098
vn -0.2009 -0.9796 0.0051
vn -0.1980 0.9796 -0.0342
vn -0.3822 0.9217 -0.0661
vn -0.5516 0.8286 -0.0954
vn -0.6998 0.7041 -0.1210
vn -0.8212 0.5528 -0.1420
vn -0.9112 0.3805 -0.1575
vn -0.9667 0.1939 -0.1671
vn -0.9854 -0.0000 -0.1704
vn -0.9667 -0.1939 -0.1671
vn -0.9112 -0.3805 -0.1575
vn -0.8212 -0.5528 -0.1420
vn -0.6998 -0.7041 -0.1210
vn -0.5516 -0.8286 -0.0954
vn -0.3822 -0.9217 -0.0661
vn -0.1980 -0.9796 -0.0342
vn -0.1875 0.9796 -0.0722
vn -0.3620 0.9217 -0.1394
vn -0.5224 0.8286 -0.2011
vn -0.6627 0.7041 -0.2552
vn -0.7777 0.5528 -0.2994
vn -0.8630 0.3805 -0.3323
vn -0.9155 0.1939 -0.3525
vn -0.9332 -0.0000 -0.3593
vn -0.9155 -0.1939 -0.3525
vn -0.8630 -0.3805 -0.3323
vn -0.7777 -0.5528 -0.2994
vn -0.6627 -0.7041 -0.2552
vn -0.5224 -0.8286 -0.2011
vn -0.3620 -0.9217 -0.1394
vn -0.1875 -0.9796 -0.0722
vn -0.1699 0.9796 -0.1074
vn -0.3278 0.9217 -0.2073
vn -0.4731 0.8286 -0.2992
vn -0.6002 0.7041 -0.3796
vn -0.7043 0.5528 -0.4454
vn -0.7816 0.3805 -0.4943
vn -0.8291 0.1939 -0.5243
vn -0.8452 -0.0000 -0.5345
vn -0.8291 -0.1939 -0.5243
vn -0.7816 -0.3805 -0.4943
vn -0.7043 -0.5528 -0.4454
vn -0.6002 -0.7041 -0.3796
vn -0.4731 -0.8286 -0.2992
vn -0.3278 -0.9217 -0.2073
vn -0.1699 -0.9796 -0.1074
vn -0.1456 0.9796 -0.1385
vn -0.2811 0.9217 -0.2673
vn -0.4057 0.8286 -0.3857
vn -0.5146 0.7041 -0.4894
vn -0.6039 0.5528 -0.5743
vn -0.6701 0.3805 -0.6373
vn -0.7109 0.1939 -0.6760
vn -0.7247 -0.0000 -0.6891
vn -0.7109 -0.1939 -0.6760
vn -0.6701 -0.3805 -0.6373
vn -0.6039 -0.5528 -0.5743
vn -0.5146 -0.7041 -0.4894
vn -0.4057 -0.8286 -0.3857
vn -0.2811 -0.9217 -0.2673
vn -0.1456 -0.9796 -0.1385
vn -0.1158 0.9796 -0.1642
vn -0.2235 0.9217 -0.3170
vn -0.3226 0.8286 -0.4575
vn -0.4093 0.7041 -0.5804
vn -0.4803 0.5528 -0.6810
vn -0.5330 0.3805 -0.7557
vn -0.5654 0.1939 -0.8017
vn -0.5763 -0.0000 -0.8172
vn -0.5654 -0.1939 -0.8017
vn -0.5330 -0.3805 -0.7557
vn -0.4803 -0.5528 -0.6810
vn -0.4093 -0.7041 -0.5804
vn -0.3226 -0.8286 -0.4575
vn -0.2235 -0.9217 -0.3170
vn -0.1158 -0.9796 -0.1642
vn -0.0000 -1.0000 -0.0000
vn -0.0816 0.9796 -0.1837
vn -0.1574 0.9217 -0.3545
vn -0.2272 0.8286 -0.5116
vn -0.2882 0.7041 -0.6490
vn -0.3382 0.5528 -0.7616
vn -0.3753 0.3805 -0.8452
vn -0.3981 0.1939 -0.8966
vn -0.4058 -0.0000 -0.9140
vn -0.3981 -0.1939 -0.8966
vn -0.3753 -0.3805 -0.8452
vn -0.3382 -0.5528 -0.7616
vn -0.2882 -0.7041 -0.6490
vn -0.2272 -0.8286 -0.5116
vn -0.1574 -0.9217 -0.3545
vn -0.0816 -0.9796 -0.1837
vn -0.0442 0.9796 -0.1961
vn -0.0852 0.9217 -0.3784
vn -0.1230 0.8286 -0.5461
vn -0.1560 0.7041 -0.6928
vn -0.1831 0.5528 -0.8130
vn -0.2032 0.3805 -0.9022
vn -0.2155 0.1939 -0.9570
vn -0.2197 -0.0000 -0.9756
vn -0.2155 -0.1939 -0.9570
vn -0.2032 -0.3805 -0.9022
vn -0.1831 -0.5528 -0.8130
vn -0.1560 -0.7041 -0.6928
vn -0.1230 -0.8286 -0.5461
vn -0.0852 -0.9217 -0.3784
vn -0.0442 -0.9796 -0.1961
vn -0.0051 0.9796 -0.2009
vn -0.0098 0.9217 -0.3878
vn -0.0141 0.8286 -0.5596
vn -0.0179 0.7041 -0.7099
vn -0.0210 0.5528 -0.8331
vn -0.0233 0.3805 -0.9245
vn -0.0247 0.1939 -0.9807
vn -0.0251 -0.0000 -0.9997
vn -0.0247 -0.1939 -0.9807
vn -0.0233 -0.3805 -0.9245
vn -0.0210 -0.5528 -0.8331
vn -0.0179 -0.7041 -0.7099
vn -0.0141 -0.8286 -0.5596
vn -0.0098 -0.9217 -0.3878
vn -0.0051 -0.9796 -0.2009
vn 0.0342 0.9796 -0.1980
vn 0.0661 0.9217 -0.3822
vn 0.0954 0.8286 -0.5516
vn 0.1210 0.7041 -0.6998
vn 0.1420 0.5528 -0.8212
vn 0.1575 0.3805 -0.9112
vn 0.1671 0.1939 -0.9667
vn 0.1704 -0.0000 -0.9854
vn 0.1671 -0.1939 -0.9667
vn 0.1575 -0.3805 -0.9112
vn 0.1420 -0.5528 -0.8212
vn 0.1210 -0.7041 -0.6998
vn 0.0954 -0.8286 -0.5516
vn 0.0661 -0.9217 -0.3822
vn 0.0342 -0.9796 -0.1980
vn 0.0722 0.9796 -0.1875
vn 0.1394 0.9217 -0.3620
vn 0.2011 0.8286 -0.5224
vn 0.2552 0.7041 -0.6627
vn 0.2994 0.5528 -0.7777
vn 0.3323 0.3805 -0.8630
vn 0.3525 0.1939 -0.9155
vn 0.3593 -0.0000 -0.9332
vn 0.3525 -0.1939 -0.9155
vn 0.3323 -0.3805 -0.8630
vn 0.2994 -0.5528 -0.7777
vn 0.2552 -0.7041 -0.6627
vn 0.2011 -0.8286 -0.5224
vn 0.1394 -0.9217 -0.3620
vn 0.0722 -0.9796 -0.1875
vn 0.1074 0.9796 -0.1699
vn 0.2073 0.9217 -0.3278
vn 0.2992 0.8286 -0.4731
vn 0.3796 0.7041 -0.6002
vn 0.4454 0.5528 -0.7043
vn 0.4943 0.3805 -0.7816
vn 0.5243 0.1939 -0.8291
vn 0.5345 -0.0000 -0.8452
vn 0.5243 -0.1939 -0.8291
vn 0.4943 -0.3805 -0.7816
vn 0.4454 -0.5528 -0.7043
vn 0.3796 -0.7041 -0.6002
vn 0.2992 -0.8286 -0.4731
vn 0.2073 -0.9217 -0.3278
vn 0.1074 -0.9796 -0.1699
vn 0.1385 0.9796 -0.1456
vn 0.2673 0.9217 -0.2811
vn 0.3857 0.8286 -0.4057
vn 0.4894 0.7041 -0.5146
vn 0.5743 0.5528 -0.6039
vn 0.6373 0.3805 -0.6701
vn 0.6760 0.1939 -0.7109
vn 0.6891 -0.0000 -0.7247
vn 0.6760 -0.1939 -0.7109
vn 0.6373 -0.3805 -0.6701
vn 0.5743 -0.5528 -0.6039
vn 0.4894 -0.7041 -0.5146
vn 0.3857 -0.8286 -0.4057
vn 0.2673 -0.9217 -0.2811
vn 0.1385 -0.9796 -0.1456
vn 0.1642 0.9796 -0.1158
vn 0.3170 0.9217 -0.2235
vn 0.4575 0.8286 -0.3226
vn 0.5804 0.7041 -0.4093
vn 0.6810 0.5528 -0.4803
vn 0.7557 0.3805 -0.5330
vn 0.8017 0.1939 -0.5654
vn 0.8172 -0.0000 -0.5763
vn 0.8017 -0.1939 -0.5654
vn 0.7557 -0.3805 -0.5330
vn 0.6810 -0.5528 -0.4803
vn 0.5804 -0.7041 -0.4093
vn 0.4575 -0.8286 -0.3226
vn 0.3170 -0.9217 -0.2235
vn 0.1642 -0.9796 -0.1158
vn 0.1837 0.9796 -0.0816
vn 0.3545 0.9217 -0.1574
vn 0.5116 0.8286 -0.2272
vn 0.6490 0.7041 -0.2882
vn 0.7616 0.5528 -0.3382
vn 0.8452 0.3805 -0.3753
vn 0.8966 0.1939 -0.3981
vn 0.9140 -0.0000 -0.4058
vn 0.8966 -0.1939 -0.3981
vn 0.8452 -0.3805 -0.3753
vn 0.7616 -0.5528 -0.3382
vn 0.6490 -0.7041 -0.2882
vn 0.5116 -0.8286 -0.2272
vn 0.3545 -0.9217 -0.1574
vn 0.1837 -0.9796 -0.0816
vn 0.1961 0.9796 -0.0442
vn 0.3784 0.9217 -0.0852
vn 0.5461 0.8286 -0.1230
vn 0.6928 0.7041 -0.1560
vn 0.8130 0.5528 -0.1831
vn 0.9022 0.3805 -0.2032
vn 0.9570 0.1939 -0.2155
vn 0.9756 -0.0000 -0.2197
vn 0.9570 -0.1939 -0.2155
vn 0.9022 -0.3805 -0.2032
vn 0.8130 -0.5528 -0.1831
vn 0.6928 -0.7041 -0.1560
vn 0.5461 -0.8286 -0.1230
vn 0.3784 -0.9217 -0.0852
vn 0.1961 -0.9796 -0.0442
vn 0.2009 0.9796 -0.0051
vn 0.3878 0.9217 -0.0098
vn 0.5596 0.8286 -0.0141
vn 0.7099 0.7041 -0.0179
vn 0.8331 0.5528 -0.0210
vn 0.9245 0.3805 -0.0233
vn 0.9807 0.1939 -0.0247
vn 0.9997 -0.0000 -0.0252
vn 0.9807 -0.1939 -0.0247
vn 0.9245 -0.3805 -0.0233
vn 0.8331 -0.5528 -0.0210
vn 0.7099 -0.7041 -0.0179
vn 0.5596 -0.8286 -0.0141
vn 0.3878 -0.9217 -0.0098
vn 0.2009 -0.9796 -0.0051
vn 0.1980 0.9796 0.0342
vn 0.3822 0.9217 0.0661
vn 0.6998 0.7041 0.1210
vn 0.9112 0.3805 0.1575
vn 0.9112 -0.3805 0.1575
vn 0.6998 -0.7041 0.1210
vn 0.5516 -0.8286 0.0954
vn 0.3822 -0.9217 0.0661
vn 0.1980 -0.9796 0.0342
vt 0.283580 0.653719
vt 0.307871 0.629861
vt 0.308600 0.653778
vt 0.083845 0.583018
vt 0.029788 0.550724
vt 0.089087 0.571908
vt 0.578572 0.536783
vt 0.527517 0.571774
vt 0.521695 0.561196
vt 0.331126 0.628535
vt 0.333472 0.652275
vt 0.132807 0.611160
vt 0.139777 0.595910
vt 0.354834 0.625611
vt 0.358823 0.648707
vt 0.170277 0.628566
vt 0.176911 0.610051
vt 0.379938 0.620915
vt 0.385174 0.642777
vt 0.202123 0.639845
vt 0.208009 0.619002
vt 0.413805 0.634116
vt 0.406810 0.613726
vt 0.235334 0.624777
vt 0.231274 0.647006
vt 0.437140 0.603258
vt 0.444616 0.621283
vt 0.258000 0.651509
vt 0.260725 0.628114
vt 0.473289 0.587419
vt 0.480885 0.602153
vt 0.284585 0.629716
vt 0.430831 0.585725
vt 0.466551 0.572729
vt 0.262640 0.606208
vt 0.285257 0.607309
vt 0.516737 0.550204
vt 0.307221 0.607396
vt 0.035769 0.539570
vt 0.094351 0.560940
vt 0.575290 0.530406
vt 0.329217 0.606267
vt 0.145795 0.580793
vt 0.351740 0.603907
vt 0.182385 0.592110
vt 0.375545 0.600010
vt 0.212463 0.599139
vt 0.401332 0.594213
vt 0.238611 0.603592
vt 0.349196 0.583178
vt 0.372083 0.580045
vt 0.216014 0.579969
vt 0.396818 0.575322
vt 0.241027 0.583427
vt 0.425721 0.568547
vt 0.264080 0.585364
vt 0.461054 0.558026
vt 0.285716 0.586143
vt 0.511656 0.539384
vt 0.306683 0.586001
vt 0.039659 0.532781
vt 0.098778 0.549785
vt 0.569394 0.518877
vt 0.327645 0.585086
vt 0.150654 0.565745
vt 0.186672 0.574615
vt 0.456569 0.543361
vt 0.507393 0.528439
vt 0.285967 0.565805
vt 0.306159 0.565558
vt 0.043054 0.525702
vt 0.102393 0.538508
vt 0.565359 0.512163
vt 0.326339 0.564776
vt 0.154502 0.550784
vt 0.347116 0.563232
vt 0.189889 0.557535
vt 0.369193 0.560713
vt 0.218499 0.561421
vt 0.393412 0.556975
vt 0.242924 0.563941
vt 0.421706 0.551712
vt 0.265125 0.565328
vt 0.220309 0.543327
vt 0.390715 0.539027
vt 0.244210 0.545039
vt 0.418436 0.535047
vt 0.265803 0.545919
vt 0.453418 0.528645
vt 0.286045 0.546127
vt 0.504909 0.517036
vt 0.305652 0.545803
vt 0.043645 0.523432
vt 0.104202 0.526814
vt 0.564317 0.510063
vt 0.325250 0.545128
vt 0.157023 0.535853
vt 0.345447 0.543889
vt 0.192377 0.540676
vt 0.366956 0.541920
vt 0.285964 0.526939
vt 0.305158 0.526544
vt 0.046174 0.509902
vt 0.106382 0.515226
vt 0.560879 0.497115
vt 0.502106 0.505790
vt 0.324349 0.525960
vt 0.159130 0.521058
vt 0.344144 0.524992
vt 0.193874 0.524100
vt 0.365263 0.523510
vt 0.221470 0.525576
vt 0.388689 0.521370
vt 0.244977 0.526560
vt 0.416176 0.518590
vt 0.266144 0.526978
vt 0.450747 0.514060
vt 0.387274 0.503911
vt 0.222032 0.508075
vt 0.245275 0.508368
vt 0.414488 0.502209
vt 0.266174 0.508353
vt 0.449327 0.499433
vt 0.285732 0.508080
vt 0.501085 0.494313
vt 0.304673 0.507613
vt 0.048255 0.501996
vt 0.107844 0.503688
vt 0.560146 0.494843
vt 0.323615 0.507110
vt 0.159916 0.506363
vt 0.343167 0.506387
vt 0.194799 0.507656
vt 0.364054 0.505349
vt 0.049584 0.494000
vt 0.108616 0.492192
vt 0.559952 0.486853
vt 0.500757 0.482741
vt 0.323032 0.488426
vt 0.160402 0.491764
vt 0.342492 0.487932
vt 0.194845 0.491356
vt 0.363293 0.487312
vt 0.222006 0.490709
vt 0.386448 0.486533
vt 0.245128 0.490337
vt 0.413681 0.485885
vt 0.265908 0.489903
vt 0.448216 0.484823
vt 0.285353 0.489398
vt 0.304189 0.488857
vt 0.221412 0.473397
vt 0.244543 0.472350
vt 0.386183 0.469159
vt 0.413385 0.469520
vt 0.265346 0.471493
vt 0.448395 0.470137
vt 0.284825 0.470750
vt 0.501119 0.471065
vt 0.303702 0.470128
vt 0.049457 0.491608
vt 0.107604 0.480695
vt 0.560502 0.478750
vt 0.322592 0.469764
vt 0.159681 0.477224
vt 0.342104 0.469493
vt 0.194373 0.475064
vt 0.362963 0.469281
vt 0.322291 0.450980
vt 0.158548 0.462684
vt 0.342004 0.450934
vt 0.193045 0.458749
vt 0.363066 0.451133
vt 0.220221 0.456022
vt 0.386497 0.451670
vt 0.243507 0.454284
vt 0.413924 0.453052
vt 0.264478 0.452986
vt 0.448842 0.455399
vt 0.284139 0.451992
vt 0.502158 0.459351
vt 0.303205 0.451279
vt 0.048451 0.477845
vt 0.107032 0.469155
vt 0.561397 0.470510
vt 0.387408 0.434003
vt 0.415161 0.436473
vt 0.263284 0.434248
vt 0.450172 0.440585
vt 0.283280 0.432976
vt 0.502760 0.447581
vt 0.302692 0.432160
vt 0.048294 0.469954
vt 0.105759 0.457766
vt 0.562503 0.456535
vt 0.322130 0.431925
vt 0.156585 0.448156
vt 0.342200 0.432117
vt 0.190997 0.442390
vt 0.363620 0.432755
vt 0.218407 0.438520
vt 0.241992 0.436026
vt 0.342716 0.412893
vt 0.188139 0.425936
vt 0.364660 0.414018
vt 0.215918 0.420788
vt 0.388961 0.416055
vt 0.239951 0.417448
vt 0.417182 0.419745
vt 0.261726 0.415130
vt 0.452309 0.425709
vt 0.282227 0.413542
vt 0.504109 0.435997
vt 0.302156 0.412604
vt 0.047597 0.462422
vt 0.103748 0.446562
vt 0.562533 0.448674
vt 0.322119 0.412438
vt 0.153760 0.433625
vt 0.455750 0.410844
vt 0.259754 0.395467
vt 0.280950 0.393511
vt 0.507253 0.424778
vt 0.301591 0.392430
vt 0.046865 0.460310
vt 0.099996 0.435779
vt 0.562914 0.446424
vt 0.322274 0.392339
vt 0.149613 0.419189
vt 0.343592 0.393094
vt 0.184537 0.409298
vt 0.366247 0.394772
vt 0.212679 0.402717
vt 0.391221 0.397714
vt 0.237314 0.398406
vt 0.419912 0.402777
vt 0.179760 0.392343
vt 0.344885 0.372526
vt 0.368466 0.374849
vt 0.208551 0.384155
vt 0.394320 0.378817
vt 0.233982 0.378736
vt 0.423777 0.385410
vt 0.257296 0.375070
vt 0.459800 0.395858
vt 0.279408 0.372677
vt 0.510223 0.413455
vt 0.300987 0.371422
vt 0.042543 0.448706
vt 0.096393 0.424870
vt 0.566500 0.434269
vt 0.322620 0.371420
vt 0.144808 0.404665
vt 0.254253 0.353724
vt 0.277544 0.350798
vt 0.464998 0.380830
vt 0.514065 0.402452
vt 0.300336 0.349329
vt 0.040294 0.442274
vt 0.091946 0.414309
vt 0.568274 0.427552
vt 0.323193 0.349434
vt 0.138839 0.390170
vt 0.346675 0.350968
vt 0.173858 0.375107
vt 0.371435 0.354070
vt 0.203398 0.365027
vt 0.398386 0.359280
vt 0.229826 0.358271
vt 0.428731 0.367684
vt 0.349076 0.328152
vt 0.375317 0.332221
vt 0.197020 0.345204
vt 0.403609 0.338958
vt 0.224666 0.336810
vt 0.434999 0.349543
vt 0.250493 0.331170
vt 0.471405 0.365773
vt 0.275282 0.327579
vt 0.519630 0.392190
vt 0.299625 0.325842
vt 0.039159 0.440561
vt 0.085844 0.404561
vt 0.569202 0.425711
vt 0.324049 0.326082
vt 0.131648 0.375731
vt 0.166609 0.357551
vt 0.526194 0.382284
vt 0.272517 0.302650
vt 0.298838 0.300571
vt 0.034652 0.435918
vt 0.078782 0.395218
vt 0.573444 0.420724
vt 0.325261 0.300986
vt 0.122552 0.361565
vt 0.352249 0.303743
vt 0.157920 0.339703
vt 0.380339 0.309042
vt 0.189154 0.324557
vt 0.410246 0.317701
vt 0.218256 0.314110
vt 0.442681 0.331000
vt 0.245829 0.307090
vt 0.479739 0.350870
vt 0.179386 0.302875
vt 0.418691 0.295272
vt 0.210255 0.289871
vt 0.452505 0.311793
vt 0.240003 0.281082
vt 0.489307 0.335954
vt 0.269103 0.275539
vt 0.533781 0.372901
vt 0.297957 0.273015
vt 0.030014 0.431813
vt 0.070749 0.386446
vt 0.577855 0.416296
vt 0.326940 0.273664
vt 0.112208 0.347487
vt 0.356420 0.277322
vt 0.147062 0.321356
vt 0.386819 0.284206
vt 0.264829 0.245630
vt 0.296953 0.242514
vt 0.022680 0.426009
vt 0.062152 0.377866
vt 0.582710 0.412813
vt 0.542462 0.364160
vt 0.329244 0.243484
vt 0.099834 0.333812
vt 0.361909 0.248355
vt 0.133859 0.302686
vt 0.395193 0.257349
vt 0.167264 0.280084
vt 0.429375 0.271580
vt 0.200201 0.263763
vt 0.464453 0.292234
vt 0.232653 0.252643
vt 0.501208 0.321487
vt 0.442999 0.246407
vt 0.152146 0.256119
vt 0.187428 0.235394
vt 0.479329 0.272262
vt 0.223253 0.221119
vt 0.515365 0.307577
vt 0.259395 0.212097
vt 0.551862 0.355812
vt 0.295791 0.208176
vt 0.018947 0.423414
vt 0.052487 0.370344
vt 0.589750 0.407941
vt 0.332407 0.209595
vt 0.085019 0.321071
vt 0.369191 0.216140
vt 0.118019 0.284044
vt 0.406098 0.227998
vt 0.591248 0.407384
vt 0.562625 0.349146
vt 0.336781 0.170826
vt 0.041593 0.364544
vt 0.067970 0.309505
vt 0.378970 0.179736
vt 0.098612 0.265581
vt 0.420451 0.195583
vt 0.133044 0.230875
vt 0.460483 0.219639
vt 0.170966 0.204257
vt 0.497777 0.252153
vt 0.211019 0.185628
vt 0.531857 0.294681
vt 0.252350 0.173802
vt 0.294419 0.168768
vt 0.017454 0.423017
vt 0.483143 0.191259
vt 0.520668 0.232405
vt 0.194762 0.144953
vt 0.551330 0.283319
vt 0.243028 0.129132
vt 0.574371 0.343482
vt 0.292765 0.122566
vt 0.011551 0.422356
vt 0.029796 0.359812
vt 0.597391 0.406235
vt 0.342897 0.125515
vt 0.048336 0.299634
vt 0.392332 0.137836
vt 0.074396 0.247584
vt 0.439618 0.159428
vt 0.108595 0.204389
vt 0.149394 0.169775
vt 0.025627 0.292439
vt 0.411060 0.088468
vt 0.045326 0.231566
vt 0.465662 0.118825
vt 0.077051 0.177143
vt 0.512903 0.161458
vt 0.120618 0.131455
vt 0.549003 0.213967
vt 0.172549 0.097290
vt 0.573878 0.274306
vt 0.230466 0.075725
vt 0.587115 0.339716
vt 0.290727 0.067216
vt 0.009199 0.422929
vt 0.017149 0.357014
vt 0.599958 0.406612
vt 0.351519 0.071220
vt 0.140676 0.039183
vt 0.599666 0.268729
vt 0.213473 0.009960
vt 0.600603 0.338261
vt 0.288186 0.000078
vt 0.008054 0.424162
vt 0.003939 0.356526
vt 0.601277 0.407797
vt 0.363531 0.004226
vt 0.000079 0.288874
vt 0.438571 0.027887
vt 0.010097 0.219191
vt 0.501566 0.073692
vt 0.035267 0.149774
vt 0.552872 0.130676
vt 0.081638 0.089460
vt 0.583732 0.198641
vt 0.402036 0.982821
vt 0.440883 0.890053
vt 0.473641 0.947073
vt 0.012714 0.781749
vt 0.026600 0.703489
vt 0.049943 0.765929
vt 0.536392 0.898163
vt 0.494390 0.853813
vt 0.087146 0.821114
vt 0.046705 0.851116
vt 0.538451 0.806448
vt 0.580437 0.833339
vt 0.095533 0.913211
vt 0.134669 0.865758
vt 0.609181 0.762627
vt 0.571490 0.749537
vt 0.190819 0.898468
vt 0.161951 0.957873
vt 0.590385 0.686662
vt 0.616672 0.689674
vt 0.236094 0.988603
vt 0.252252 0.918007
vt 0.598268 0.619837
vt 0.611855 0.620174
vt 0.319590 0.999921
vt 0.316958 0.923289
vt 0.000101 0.637104
vt 0.000392 0.565852
vt 0.013941 0.635805
vt 0.606777 0.550691
vt 0.381098 0.913642
vt 0.000079 0.708357
vt 0.566899 0.679566
vt 0.211148 0.847819
vt 0.262458 0.861066
vt 0.585190 0.617113
vt 0.314984 0.864180
vt 0.001667 0.566788
vt 0.027108 0.632108
vt 0.605625 0.551758
vt 0.367139 0.857624
vt 0.050017 0.694730
vt 0.417315 0.841082
vt 0.079788 0.747392
vt 0.464071 0.814422
vt 0.118183 0.790925
vt 0.505795 0.778648
vt 0.162488 0.824162
vt 0.540906 0.733209
vt 0.070134 0.683396
vt 0.103804 0.727546
vt 0.400120 0.798945
vt 0.441450 0.779006
vt 0.142024 0.761929
vt 0.480377 0.751487
vt 0.182909 0.787126
vt 0.516008 0.715159
vt 0.225639 0.804483
vt 0.546520 0.669683
vt 0.269365 0.813843
vt 0.573015 0.612786
vt 0.313416 0.815836
vt 0.006350 0.567454
vt 0.039266 0.626848
vt 0.601175 0.552839
vt 0.357207 0.811038
vt 0.236201 0.766835
vt 0.274227 0.773632
vt 0.561847 0.606435
vt 0.312130 0.774939
vt 0.010475 0.566770
vt 0.050383 0.620114
vt 0.599830 0.552640
vt 0.349841 0.771287
vt 0.087302 0.670349
vt 0.387265 0.762175
vt 0.123187 0.707248
vt 0.424215 0.746967
vt 0.160481 0.734513
vt 0.460423 0.725489
vt 0.198199 0.753875
vt 0.495661 0.696304
vt 0.528797 0.657865
vt 0.377440 0.729580
vt 0.410853 0.717772
vt 0.174885 0.708719
vt 0.444614 0.700803
vt 0.209829 0.723757
vt 0.479007 0.677244
vt 0.244048 0.733585
vt 0.513744 0.644843
vt 0.277731 0.738613
vt 0.551543 0.599349
vt 0.311047 0.739464
vt 0.015086 0.565070
vt 0.060399 0.612214
vt 0.592846 0.550326
vt 0.344216 0.736606
vt 0.101822 0.656230
vt 0.138879 0.687003
vt 0.542629 0.590680
vt 0.280291 0.707523
vt 0.310118 0.708054
vt 0.016463 0.564023
vt 0.068919 0.602766
vt 0.591307 0.549541
vt 0.339824 0.705771
vt 0.114160 0.641458
vt 0.369798 0.700256
vt 0.151647 0.667061
vt 0.400325 0.690932
vt 0.186189 0.684452
vt 0.431985 0.677398
vt 0.218799 0.696206
vt 0.465316 0.658279
vt 0.249957 0.703765
vt 0.500834 0.631009
vt 0.421854 0.655191
vt 0.195035 0.661602
vt 0.225837 0.670726
vt 0.454028 0.639606
vt 0.254419 0.676671
vt 0.490029 0.616728
vt 0.282169 0.679464
vt 0.534277 0.581819
vt 0.309309 0.679746
vt 0.023834 0.557297
vt 0.076890 0.593147
vt 0.583656 0.543644
vt 0.336332 0.677900
vt 0.124385 0.626371
vt 0.363795 0.673542
vt 0.162108 0.647574
vt 0.391870 0.666003
vt 0.028695 0.552598
vt 0.582141 0.542313
s 1
usemtl マテリアル.010
f 3/1/3 14/2/14 4/3/4
f 474/4/474 82/5/82 7/6/7
f 308/7/308 482/8/482 21/9/21
f 4/3/4 15/10/15 5/11/5
f 475/12/475 7/6/7 8/13/8
f 5/11/5 16/14/16 478/15/478
f 1/16/1 8/13/8 9/17/9
f 478/15/478 17/18/17 6/19/6
f 476/20/476 9/17/9 10/21/10
f 479/22/479 17/18/17 18/23/18
f 476/20/476 11/24/11 2/25/2
f 479/22/479 19/26/19 480/27/480
f 477/28/477 11/24/11 12/29/12
f 480/27/480 20/30/20 481/31/481
f 3/1/3 12/29/12 13/32/13
f 481/31/481 21/9/21 482/8/482
f 20/30/20 34/33/34 35/34/35
f 13/32/13 27/35/27 28/36/28
f 20/30/20 36/37/36 21/9/21
f 13/32/13 29/38/29 14/2/14
f 7/6/7 82/39/82 22/40/22
f 308/41/308 21/9/21 36/37/36
f 14/2/14 30/42/30 15/10/15
f 7/6/7 23/43/23 8/13/8
f 15/10/15 31/44/31 16/14/16
f 8/13/8 24/45/24 9/17/9
f 17/18/17 31/44/31 32/46/32
f 9/17/9 25/47/25 10/21/10
f 18/23/18 32/46/32 33/48/33
f 10/21/10 26/49/26 11/24/11
f 19/26/19 33/48/33 34/33/34
f 11/24/11 27/35/27 12/29/12
f 32/46/32 46/50/46 47/51/47
f 24/45/24 40/52/40 25/47/25
f 33/48/33 47/51/47 48/53/48
f 25/47/25 41/54/41 26/49/26
f 34/33/34 48/53/48 49/55/49
f 26/49/26 42/56/42 27/35/27
f 35/34/35 49/55/49 50/57/50
f 28/36/28 42/56/42 43/58/43
f 36/37/36 50/57/50 51/59/51
f 29/38/29 43/58/43 44/60/44
f 22/40/22 82/61/82 37/62/37
f 308/63/308 36/37/36 51/59/51
f 29/38/29 45/64/45 30/42/30
f 22/40/22 38/65/38 23/43/23
f 30/42/30 46/50/46 31/44/31
f 23/43/23 39/66/39 24/45/24
f 51/59/51 65/67/65 66/68/66
f 44/60/44 58/69/58 59/70/59
f 37/62/37 82/71/82 52/72/52
f 308/73/308 51/59/51 66/68/66
f 44/60/44 60/74/60 45/64/45
f 37/62/37 53/75/53 38/65/38
f 45/64/45 61/76/61 46/50/46
f 38/65/38 54/77/54 39/66/39
f 47/51/47 61/76/61 62/78/62
f 39/66/39 55/79/55 40/52/40
f 47/51/47 63/80/63 48/53/48
f 41/54/41 55/79/55 56/81/56
f 49/55/49 63/80/63 64/82/64
f 41/54/41 57/83/57 42/56/42
f 50/57/50 64/82/64 65/67/65
f 43/58/43 57/83/57 58/69/58
f 54/77/54 70/84/70 55/79/55
f 62/78/62 78/85/78 63/80/63
f 56/81/56 70/84/70 71/86/71
f 64/82/64 78/85/78 79/87/79
f 56/81/56 72/88/72 57/83/57
f 64/82/64 80/89/80 65/67/65
f 58/69/58 72/88/72 73/90/73
f 65/67/65 81/91/81 66/68/66
f 59/70/59 73/90/73 74/92/74
f 52/72/52 82/93/82 67/94/67
f 308/95/308 66/68/66 81/91/81
f 59/70/59 75/96/75 60/74/60
f 53/75/53 67/94/67 68/97/68
f 60/74/60 76/98/76 61/76/61
f 54/77/54 68/97/68 69/99/69
f 62/78/62 76/98/76 77/100/77
f 74/92/74 89/101/89 90/102/90
f 67/94/67 82/103/82 83/104/83
f 308/105/308 81/91/81 97/106/97
f 74/92/74 91/107/91 75/96/75
f 67/94/67 84/108/84 68/97/68
f 75/96/75 92/109/92 76/98/76
f 68/97/68 85/110/85 69/99/69
f 77/100/77 92/109/92 93/111/93
f 69/99/69 86/112/86 70/84/70
f 77/100/77 94/113/94 78/85/78
f 71/86/71 86/112/86 87/114/87
f 79/87/79 94/113/94 95/115/95
f 71/86/71 88/116/88 72/88/72
f 80/89/80 95/115/95 96/117/96
f 73/90/73 88/116/88 89/101/89
f 81/91/81 96/117/96 97/106/97
f 93/111/93 109/118/109 94/113/94
f 87/114/87 101/119/101 102/120/102
f 95/115/95 109/118/109 110/121/110
f 87/114/87 103/122/103 88/116/88
f 95/115/95 111/123/111 96/117/96
f 89/101/89 103/122/103 104/124/104
f 96/117/96 112/125/112 97/106/97
f 90/102/90 104/124/104 105/126/105
f 83/104/83 82/127/82 98/128/98
f 308/129/308 97/106/97 112/125/112
f 90/102/90 106/130/106 91/107/91
f 83/104/83 99/131/99 84/108/84
f 91/107/91 107/132/107 92/109/92
f 85/110/85 99/131/99 100/133/100
f 93/111/93 107/132/107 108/134/108
f 85/110/85 101/119/101 86/112/86
f 98/128/98 82/135/82 113/136/113
f 308/137/308 112/125/112 127/138/127
f 105/126/105 121/139/121 106/130/106
f 98/128/98 114/140/114 99/131/99
f 106/130/106 122/141/122 107/132/107
f 99/131/99 115/142/115 100/133/100
f 108/134/108 122/141/122 123/143/123
f 100/133/100 116/144/116 101/119/101
f 108/134/108 124/145/124 109/118/109
f 102/120/102 116/144/116 117/146/117
f 110/121/110 124/145/124 125/147/125
f 102/120/102 118/148/118 103/122/103
f 111/123/111 125/147/125 126/149/126
f 104/124/104 118/148/118 119/150/119
f 111/123/111 127/138/127 112/125/112
f 105/126/105 119/150/119 120/151/120
f 117/146/117 131/152/131 132/153/132
f 125/147/125 139/154/139 140/155/140
f 117/146/117 133/156/133 118/148/118
f 125/147/125 141/157/141 126/149/126
f 119/150/119 133/156/133 134/158/134
f 126/149/126 142/159/142 127/138/127
f 120/151/120 134/158/134 135/160/135
f 113/136/113 82/161/82 128/162/128
f 308/163/308 127/138/127 142/159/142
f 120/151/120 136/164/136 121/139/121
f 114/140/114 128/162/128 129/165/129
f 121/139/121 137/166/137 122/141/122
f 115/142/115 129/165/129 130/167/130
f 123/143/123 137/166/137 138/168/138
f 115/142/115 131/152/131 116/144/116
f 123/143/123 139/154/139 124/145/124
f 135/160/135 151/169/151 136/164/136
f 128/162/128 144/170/144 129/165/129
f 136/164/136 152/171/152 137/166/137
f 129/165/129 145/172/145 130/167/130
f 138/168/138 152/171/152 153/173/153
f 130/167/130 146/174/146 131/152/131
f 138/168/138 154/175/154 139/154/139
f 132/153/132 146/174/146 147/176/147
f 140/155/140 154/175/154 155/177/155
f 132/153/132 148/178/148 133/156/133
f 141/157/141 155/177/155 156/179/156
f 134/158/134 148/178/148 149/180/149
f 141/157/141 157/181/157 142/159/142
f 135/160/135 149/180/149 150/182/150
f 128/162/128 82/183/82 143/184/143
f 308/185/308 142/159/142 157/181/157
f 155/177/155 169/186/169 170/187/170
f 147/176/147 163/188/163 148/178/148
f 156/179/156 170/187/170 171/189/171
f 149/180/149 163/188/163 164/190/164
f 157/181/157 171/189/171 172/191/172
f 150/182/150 164/190/164 165/192/165
f 143/184/143 82/193/82 158/194/158
f 308/195/308 157/181/157 172/191/172
f 150/182/150 166/196/166 151/169/151
f 143/184/143 159/197/159 144/170/144
f 151/169/151 167/198/167 152/171/152
f 144/170/144 160/199/160 145/172/145
f 153/173/153 167/198/167 168/200/168
f 145/172/145 161/201/161 146/174/146
f 153/173/153 169/186/169 154/175/154
f 147/176/147 161/201/161 162/202/162
f 166/196/166 182/203/182 167/198/167
f 159/197/159 175/204/175 160/199/160
f 168/200/168 182/203/182 183/205/183
f 160/199/160 176/206/176 161/201/161
f 168/200/168 184/207/184 169/186/169
f 162/202/162 176/206/176 177/208/177
f 170/187/170 184/207/184 185/209/185
f 162/202/162 178/210/178 163/188/163
f 171/189/171 185/209/185 186/211/186
f 164/190/164 178/210/178 179/212/179
f 172/191/172 186/211/186 187/213/187
f 165/192/165 179/212/179 180/214/180
f 158/194/158 82/215/82 173/216/173
f 308/217/308 172/191/172 187/213/187
f 165/192/165 181/218/181 166/196/166
f 158/194/158 174/219/174 159/197/159
f 185/209/185 201/220/201 186/211/186
f 179/212/179 193/221/193 194/222/194
f 186/211/186 202/223/202 187/213/187
f 180/214/180 194/222/194 195/224/195
f 173/216/173 82/225/82 188/226/188
f 308/227/308 187/213/187 202/223/202
f 180/214/180 196/228/196 181/218/181
f 174/219/174 188/226/188 189/229/189
f 181/218/181 197/230/197 182/203/182
f 175/204/175 189/229/189 190/231/190
f 183/205/183 197/230/197 198/232/198
f 175/204/175 191/233/191 176/206/176
f 183/205/183 199/234/199 184/207/184
f 177/208/177 191/233/191 192/235/192
f 185/209/185 199/234/199 200/236/200
f 177/208/177 193/221/193 178/210/178
f 189/229/189 205/237/205 190/231/190
f 198/232/198 212/238/212 213/239/213
f 190/231/190 206/240/206 191/233/191
f 198/232/198 214/241/214 199/234/199
f 192/235/192 206/240/206 207/242/207
f 200/236/200 214/241/214 215/243/215
f 192/235/192 208/244/208 193/221/193
f 201/220/201 215/243/215 216/245/216
f 194/222/194 208/244/208 209/246/209
f 202/223/202 216/245/216 217/247/217
f 195/224/195 209/246/209 210/248/210
f 188/226/188 82/249/82 203/250/203
f 308/251/308 202/223/202 217/247/217
f 195/224/195 211/252/211 196/228/196
f 188/226/188 204/253/204 189/229/189
f 196/228/196 212/238/212 197/230/197
f 209/246/209 223/254/223 224/255/224
f 217/247/217 231/256/231 232/257/232
f 210/248/210 224/255/224 225/258/225
f 203/250/203 82/259/82 218/260/218
f 308/261/308 217/247/217 232/257/232
f 210/248/210 226/262/226 211/252/211
f 203/250/203 219/263/219 204/253/204
f 211/252/211 227/264/227 212/238/212
f 204/253/204 220/265/220 205/237/205
f 213/239/213 227/264/227 228/266/228
f 205/237/205 221/267/221 206/240/206
f 213/239/213 229/268/229 214/241/214
f 207/242/207 221/267/221 222/269/222
f 215/243/215 229/268/229 230/270/230
f 207/242/207 223/254/223 208/244/208
f 216/245/216 230/270/230 231/256/231
f 228/266/228 242/271/242 243/272/243
f 220/265/220 236/273/236 221/267/221
f 228/266/228 244/274/244 229/268/229
f 222/269/222 236/273/236 237/275/237
f 230/270/230 244/274/244 245/276/245
f 222/269/222 238/277/238 223/254/223
f 231/256/231 245/276/245 246/278/246
f 224/255/224 238/277/238 239/279/239
f 231/256/231 247/280/247 232/257/232
f 225/258/225 239/279/239 240/281/240
f 218/260/218 82/282/82 233/283/233
f 308/284/308 232/257/232 247/280/247
f 225/258/225 241/285/241 226/262/226
f 219/263/219 233/283/233 234/286/234
f 226/262/226 242/271/242 227/264/227
f 219/263/219 235/287/235 220/265/220
f 246/278/246 262/288/262 247/280/247
f 240/281/240 254/289/254 255/290/255
f 233/283/233 82/291/82 248/292/248
f 308/293/308 247/280/247 262/288/262
f 240/281/240 256/294/256 241/285/241
f 234/286/234 248/292/248 249/295/249
f 241/285/241 257/296/257 242/271/242
f 235/287/235 249/295/249 250/297/250
f 243/272/243 257/296/257 258/298/258
f 235/287/235 251/299/251 236/273/236
f 243/272/243 259/300/259 244/274/244
f 237/275/237 251/299/251 252/301/252
f 245/276/245 259/300/259 260/302/260
f 237/275/237 253/303/253 238/277/238
f 245/276/245 261/304/261 246/278/246
f 239/279/239 253/303/253 254/289/254
f 250/297/250 266/305/266 251/299/251
f 258/298/258 274/306/274 259/300/259
f 252/301/252 266/305/266 267/307/267
f 260/302/260 274/306/274 275/308/275
f 252/301/252 268/309/268 253/303/253
f 261/304/261 275/308/275 276/310/276
f 254/289/254 268/309/268 269/311/269
f 261/304/261 277/312/277 262/288/262
f 255/290/255 269/311/269 270/313/270
f 248/292/248 82/314/82 263/315/263
f 308/316/308 262/288/262 277/312/277
f 255/290/255 271/317/271 256/294/256
f 249/295/249 263/315/263 264/318/264
f 256/294/256 272/319/272 257/296/257
f 249/295/249 265/320/265 250/297/250
f 258/298/258 272/319/272 273/321/273
f 270/313/270 284/322/284 285/323/285
f 263/315/263 82/324/82 278/325/278
f 308/326/308 277/312/277 292/327/292
f 270/313/270 286/328/286 271/317/271
f 263/315/263 279/329/279 264/318/264
f 271/317/271 287/330/287 272/319/272
f 264/318/264 280/331/280 265/320/265
f 273/321/273 287/330/287 288/332/288
f 265/320/265 281/333/281 266/305/266
f 273/321/273 289/334/289 274/306/274
f 267/307/267 281/333/281 282/335/282
f 275/308/275 289/334/289 290/336/290
f 267/307/267 283/337/283 268/309/268
f 275/308/275 291/338/291 276/310/276
f 269/311/269 283/337/283 284/322/284
f 276/310/276 292/327/292 277/312/277
f 288/332/288 304/339/304 289/334/289
f 282/335/282 296/340/296 297/341/297
f 290/336/290 304/339/304 305/342/305
f 282/335/282 298/343/298 283/337/283
f 290/336/290 306/344/306 291/338/291
f 284/322/284 298/343/298 299/345/299
f 292/327/292 306/344/306 307/346/307
f 285/323/285 299/345/299 300/347/300
f 278/325/278 82/348/82 293/349/293
f 308/350/308 292/327/292 307/346/307
f 285/323/285 301/351/301 286/328/286
f 278/325/278 294/352/294 279/329/279
f 286/328/286 302/353/302 287/330/287
f 280/331/280 294/352/294 295/354/295
f 288/332/288 302/353/302 303/355/303
f 280/331/280 296/340/296 281/333/281
f 308/356/308 307/346/307 323/357/323
f 300/347/300 317/358/317 301/351/301
f 294/352/294 309/359/309 310/360/310
f 301/351/301 318/361/318 302/353/302
f 295/354/295 310/360/310 311/362/311
f 303/355/303 318/361/318 319/363/319
f 295/354/295 312/364/312 296/340/296
f 303/355/303 320/365/320 304/339/304
f 297/341/297 312/364/312 313/366/313
f 305/342/305 320/365/320 321/367/321
f 297/341/297 314/368/314 298/343/298
f 305/342/305 322/369/322 306/344/306
f 299/345/299 314/368/314 315/370/315
f 306/344/306 323/357/323 307/346/307
f 300/347/300 315/370/315 316/371/316
f 293/349/293 82/372/82 309/359/309
f 321/367/321 335/373/335 336/374/336
f 313/366/313 329/375/329 314/368/314
f 321/367/321 337/376/337 322/369/322
f 315/370/315 329/375/329 330/377/330
f 323/357/323 337/376/337 338/378/338
f 316/371/316 330/377/330 331/379/331
f 309/359/309 82/380/82 324/381/324
f 308/382/308 323/357/323 338/378/338
f 316/371/316 332/383/332 317/358/317
f 309/359/309 325/384/325 310/360/310
f 317/358/317 333/385/333 318/361/318
f 310/360/310 326/386/326 311/362/311
f 319/363/319 333/385/333 334/387/334
f 311/362/311 327/388/327 312/364/312
f 319/363/319 335/373/335 320/365/320
f 313/366/313 327/388/327 328/389/328
f 324/381/324 340/390/340 325/384/325
f 332/383/332 348/391/348 333/385/333
f 326/386/326 340/390/340 341/392/341
f 334/387/334 348/391/348 349/393/349
f 326/386/326 342/394/342 327/388/327
f 334/387/334 350/395/350 335/373/335
f 328/389/328 342/394/342 343/396/343
f 336/374/336 350/395/350 351/397/351
f 328/389/328 344/398/344 329/375/329
f 336/374/336 352/399/352 337/376/337
f 330/377/330 344/398/344 345/400/345
f 338/378/338 352/399/352 353/401/353
f 331/379/331 345/400/345 346/402/346
f 324/381/324 82/403/82 339/404/339
f 308/405/308 338/378/338 353/401/353
f 331/379/331 347/406/347 332/383/332
f 343/396/343 359/407/359 344/398/344
f 351/397/351 367/408/367 352/399/352
f 345/400/345 359/407/359 360/409/360
f 353/401/353 367/408/367 368/410/368
f 346/402/346 360/409/360 361/411/361
f 339/404/339 82/412/82 354/413/354
f 308/414/308 353/401/353 368/410/368
f 346/402/346 362/415/362 347/406/347
f 339/404/339 355/416/355 340/390/340
f 347/406/347 363/417/363 348/391/348
f 341/392/341 355/416/355 356/418/356
f 349/393/349 363/417/363 364/419/364
f 341/392/341 357/420/357 342/394/342
f 349/393/349 365/421/365 350/395/350
f 343/396/343 357/420/357 358/422/358
f 351/397/351 365/421/365 366/423/366
f 362/424/362 378/425/378 363/426/363
f 356/427/356 370/428/370 371/429/371
f 364/430/364 378/425/378 379/431/379
f 356/427/356 372/432/372 357/433/357
f 364/430/364 380/434/380 365/435/365
f 358/436/358 372/432/372 373/437/373
f 366/438/366 380/434/380 381/439/381
f 358/436/358 374/440/374 359/441/359
f 366/438/366 382/442/382 367/443/367
f 360/444/360 374/440/374 375/445/375
f 367/443/367 383/446/383 368/447/368
f 361/448/361 375/445/375 376/449/376
f 354/450/354 82/451/82 369/452/369
f 308/453/308 368/447/368 383/446/383
f 361/448/361 377/454/377 362/424/362
f 355/455/355 369/452/369 370/428/370
f 381/439/381 397/456/397 382/442/382
f 375/445/375 389/457/389 390/458/390
f 382/442/382 398/459/398 383/446/383
f 376/449/376 390/458/390 391/460/391
f 369/452/369 82/461/82 384/462/384
f 308/463/308 383/446/383 398/459/398
f 376/449/376 392/464/392 377/454/377
f 370/428/370 384/462/384 385/465/385
f 377/454/377 393/466/393 378/425/378
f 371/429/371 385/465/385 386/467/386
f 379/431/379 393/466/393 394/468/394
f 371/429/371 387/469/387 372/432/372
f 379/431/379 395/470/395 380/434/380
f 373/437/373 387/469/387 388/471/388
f 381/439/381 395/470/395 396/472/396
f 373/437/373 389/457/389 374/440/374
f 386/467/386 400/473/400 401/474/401
f 394/468/394 408/475/408 409/476/409
f 386/467/386 402/477/402 387/469/387
f 394/468/394 410/478/410 395/470/395
f 388/471/388 402/477/402 403/479/403
f 396/472/396 410/478/410 411/480/411
f 388/471/388 404/481/404 389/457/389
f 396/472/396 412/482/412 397/456/397
f 390/458/390 404/481/404 405/483/405
f 398/459/398 412/482/412 413/484/413
f 391/460/391 405/483/405 406/485/406
f 384/462/384 82/486/82 399/487/399
f 308/488/308 398/459/398 413/484/413
f 391/460/391 407/489/407 392/464/392
f 384/462/384 400/473/400 385/465/385
f 392/464/392 408/475/408 393/466/393
f 405/483/405 419/490/419 420/491/420
f 412/482/412 428/492/428 413/484/413
f 406/485/406 420/491/420 421/493/421
f 399/487/399 82/494/82 414/495/414
f 308/496/308 413/484/413 428/492/428
f 406/485/406 422/497/422 407/489/407
f 399/487/399 415/498/415 400/473/400
f 407/489/407 423/499/423 408/475/408
f 401/474/401 415/498/415 416/500/416
f 409/476/409 423/499/423 424/501/424
f 401/474/401 417/502/417 402/477/402
f 409/476/409 425/503/425 410/478/410
f 403/479/403 417/502/417 418/504/418
f 411/480/411 425/503/425 426/505/426
f 403/479/403 419/490/419 404/481/404
f 411/480/411 427/506/427 412/482/412
f 424/501/424 438/507/438 439/508/439
f 416/500/416 432/509/432 417/502/417
f 424/501/424 440/510/440 425/503/425
f 418/504/418 432/509/432 433/511/433
f 426/505/426 440/510/440 441/512/441
f 418/504/418 434/513/434 419/490/419
f 426/505/426 442/514/442 427/506/427
f 420/491/420 434/513/434 435/515/435
f 428/492/428 442/514/442 443/516/443
f 421/493/421 435/515/435 436/517/436
f 414/495/414 82/518/82 429/519/429
f 308/520/308 428/492/428 443/516/443
f 421/493/421 437/521/437 422/497/422
f 414/495/414 430/522/430 415/498/415
f 422/497/422 438/507/438 423/499/423
f 416/500/416 430/522/430 431/523/431
f 442/514/442 458/524/458 443/516/443
f 436/517/436 450/525/450 451/526/451
f 429/519/429 82/527/82 444/528/444
f 308/529/308 443/516/443 458/524/458
f 436/517/436 452/530/452 437/521/437
f 430/522/430 444/528/444 445/531/445
f 437/521/437 453/532/453 438/507/438
f 431/523/431 445/531/445 446/533/446
f 439/508/439 453/532/453 454/534/454
f 431/523/431 447/535/447 432/509/432
f 439/508/439 455/536/455 440/510/440
f 433/511/433 447/535/447 448/537/448
f 441/512/441 455/536/455 456/538/456
f 433/511/433 449/539/449 434/513/434
f 441/512/441 457/540/457 442/514/442
f 435/515/435 449/539/449 450/525/450
f 454/534/454 470/541/470 455/536/455
f 448/537/448 462/542/462 463/543/463
f 456/538/456 470/541/470 471/544/471
f 448/537/448 464/545/464 449/539/449
f 456/538/456 472/546/472 457/540/457
f 450/525/450 464/545/464 465/547/465
f 458/524/458 472/546/472 473/548/473
f 451/526/451 465/547/465 466/549/466
f 444/528/444 82/550/82 459/551/459
f 308/552/308 458/524/458 473/548/473
f 451/526/451 467/553/467 452/530/452
f 444/528/444 460/554/460 445/531/445
f 452/530/452 468/555/468 453/532/453
f 446/533/446 460/554/460 461/556/461
f 454/534/454 468/555/468 469/557/469
f 446/533/446 462/542/462 447/535/447
f 459/551/459 82/558/82 474/4/474
f 308/559/308 473/548/473 482/8/482
f 466/549/466 5/11/5 467/553/467
f 459/551/459 475/12/475 460/554/460
f 467/553/467 478/15/478 468/555/468
f 461/556/461 475/12/475 1/16/1
f 468/555/468 6/19/6 469/557/469
f 462/542/462 1/16/1 476/20/476
f 469/557/469 479/22/479 470/541/470
f 463/543/463 476/20/476 2/25/2
f 471/544/471 479/22/479 480/27/480
f 464/545/464 2/25/2 477/28/477
f 471/544/471 481/31/481 472/546/472
f 465/547/465 477/28/477 3/1/3
f 472/546/472 482/8/482 473/548/473
f 466/549/466 3/1/3 4/3/4
f 3/1/3 13/32/13 14/2/14
f 4/3/4 14/2/14 15/10/15
f 475/12/475 474/4/474 7/6/7
f 5/11/5 15/10/15 16/14/16
f 1/16/1 475/12/475 8/13/8
f 478/15/478 16/14/16 17/18/17
f 476/20/476 1/16/1 9/17/9
f 479/22/479 6/19/6 17/18/17
f 476/20/476 10/21/10 11/24/11
f 479/22/479 18/23/18 19/26/19
f 477/28/477 2/25/2 11/24/11
f 480/27/480 19/26/19 20/30/20
f 3/1/3 477/28/477 12/29/12
f 481/31/481 20/30/20 21/9/21
f 20/30/20 19/26/19 34/33/34
f 13/32/13 12/29/12 27/35/27
f 20/30/20 35/34/35 36/37/36
f 13/32/13 28/36/28 29/38/29
f 14/2/14 29/38/29 30/42/30
f 7/6/7 22/40/22 23/43/23
f 15/10/15 30/42/30 31/44/31
f 8/13/8 23/43/23 24/45/24
f 17/18/17 16/14/16 31/44/31
f 9/17/9 24/45/24 25/47/25
f 18/23/18 17/18/17 32/46/32
f 10/21/10 25/47/25 26/49/26
f 19/26/19 18/23/18 33/48/33
f 11/24/11 26/49/26 27/35/27
f 32/46/32 31/44/31 46/50/46
f 24/45/24 39/66/39 40/52/40
f 33/48/33 32/46/32 47/51/47
f 25/47/25 40/52/40 41/54/41
f 34/33/34 33/48/33 48/53/48
f 26/49/26 41/54/41 42/56/42
f 35/34/35 34/33/34 49/55/49
f 28/36/28 27/35/27 42/56/42
f 36/37/36 35/34/35 50/57/50
f 29/38/29 28/36/28 43/58/43
f 29/38/29 44/60/44 45/64/45
f 22/40/22 37/62/37 38/65/38
f 30/42/30 45/64/45 46/50/46
f 23/43/23 38/65/38 39/66/39
f 51/59/51 50/57/50 65/67/65
f 44/60/44 43/58/43 58/69/58
f 44/60/44 59/70/59 60/74/60
f 37/62/37 52/72/52 53/75/53
f 45/64/45 60/74/60 61/76/61
f 38/65/38 53/75/53 54/77/54
f 47/51/47 46/50/46 61/76/61
f 39/66/39 54/77/54 55/79/55
f 47/51/47 62/78/62 63/80/63
f 41/54/41 40/52/40 55/79/55
f 49/55/49 48/53/48 63/80/63
f 41/54/41 56/81/56 57/83/57
f 50/57/50 49/55/49 64/82/64
f 43/58/43 42/56/42 57/83/57
f 54/77/54 69/99/69 70/84/70
f 62/78/62 77/100/77 78/85/78
f 56/81/56 55/79/55 70/84/70
f 64/82/64 63/80/63 78/85/78
f 56/81/56 71/86/71 72/88/72
f 64/82/64 79/87/79 80/89/80
f 58/69/58 57/83/57 72/88/72
f 65/67/65 80/89/80 81/91/81
f 59/70/59 58/69/58 73/90/73
f 59/70/59 74/92/74 75/96/75
f 53/75/53 52/72/52 67/94/67
f 60/74/60 75/96/75 76/98/76
f 54/77/54 53/75/53 68/97/68
f 62/78/62 61/76/61 76/98/76
f 74/92/74 73/90/73 89/101/89
f 74/92/74 90/102/90 91/107/91
f 67/94/67 83/104/83 84/108/84
f 75/96/75 91/107/91 92/109/92
f 68/97/68 84/108/84 85/110/85
f 77/100/77 76/98/76 92/109/92
f 69/99/69 85/110/85 86/112/86
f 77/100/77 93/111/93 94/113/94
f 71/86/71 70/84/70 86/112/86
f 79/87/79 78/85/78 94/113/94
f 71/86/71 87/114/87 88/116/88
f 80/89/80 79/87/79 95/115/95
f 73/90/73 72/88/72 88/116/88
f 81/91/81 80/89/80 96/117/96
f 93/111/93 108/134/108 109/118/109
f 87/114/87 86/112/86 101/119/101
f 95/115/95 94/113/94 109/118/109
f 87/114/87 102/120/102 103/122/103
f 95/115/95 110/121/110 111/123/111
f 89/101/89 88/116/88 103/122/103
f 96/117/96 111/123/111 112/125/112
f 90/102/90 89/101/89 104/124/104
f 90/102/90 105/126/105 106/130/106
f 83/104/83 98/128/98 99/131/99
f 91/107/91 106/130/106 107/132/107
f 85/110/85 84/108/84 99/131/99
f 93/111/93 92/109/92 107/132/107
f 85/110/85 100/133/100 101/119/101
f 105/126/105 120/151/120 121/139/121
f 98/128/98 113/136/113 114/140/114
f 106/130/106 121/139/121 122/141/122
f 99/131/99 114/140/114 115/142/115
f 108/134/108 107/132/107 122/141/122
f 100/133/100 115/142/115 116/144/116
f 108/134/108 123/143/123 124/145/124
f 102/120/102 101/119/101 116/144/116
f 110/121/110 109/118/109 124/145/124
f 102/120/102 117/146/117 118/148/118
f 111/123/111 110/121/110 125/147/125
f 104/124/104 103/122/103 118/148/118
f 111/123/111 126/149/126 127/138/127
f 105/126/105 104/124/104 119/150/119
f 117/146/117 116/144/116 131/152/131
f 125/147/125 124/145/124 139/154/139
f 117/146/117 132/153/132 133/156/133
f 125/147/125 140/155/140 141/157/141
f 119/150/119 118/148/118 133/156/133
f 126/149/126 141/157/141 142/159/142
f 120/151/120 119/150/119 134/158/134
f 120/151/120 135/160/135 136/164/136
f 114/140/114 113/136/113 128/162/128
f 121/139/121 136/164/136 137/166/137
f 115/142/115 114/140/114 129/165/129
f 123/143/123 122/141/122 137/166/137
f 115/142/115 130/167/130 131/152/131
f 123/143/123 138/168/138 139/154/139
f 135/160/135 150/182/150 151/169/151
f 128/162/128 143/184/143 144/170/144
f 136/164/136 151/169/151 152/171/152
f 129/165/129 144/170/144 145/172/145
f 138/168/138 137/166/137 152/171/152
f 130/167/130 145/172/145 146/174/146
f 138/168/138 153/173/153 154/175/154
f 132/153/132 131/152/131 146/174/146
f 140/155/140 139/154/139 154/175/154
f 132/153/132 147/176/147 148/178/148
f 141/157/141 140/155/140 155/177/155
f 134/158/134 133/156/133 148/178/148
f 141/157/141 156/179/156 157/181/157
f 135/160/135 134/158/134 149/180/149
f 155/177/155 154/175/154 169/186/169
f 147/176/147 162/202/162 163/188/163
f 156/179/156 155/177/155 170/187/170
f 149/180/149 148/178/148 163/188/163
f 157/181/157 156/179/156 171/189/171
f 150/182/150 149/180/149 164/190/164
f 150/182/150 165/192/165 166/196/166
f 143/184/143 158/194/158 159/197/159
f 151/169/151 166/196/166 167/198/167
f 144/170/144 159/197/159 160/199/160
f 153/173/153 152/171/152 167/198/167
f 145/172/145 160/199/160 161/201/161
f 153/173/153 168/200/168 169/186/169
f 147/176/147 146/174/146 161/201/161
f 166/196/166 181/218/181 182/203/182
f 159/197/159 174/219/174 175/204/175
f 168/200/168 167/198/167 182/203/182
f 160/199/160 175/204/175 176/206/176
f 168/200/168 183/205/183 184/207/184
f 162/202/162 161/201/161 176/206/176
f 170/187/170 169/186/169 184/207/184
f 162/202/162 177/208/177 178/210/178
f 171/189/171 170/187/170 185/209/185
f 164/190/164 163/188/163 178/210/178
f 172/191/172 171/189/171 186/211/186
f 165/192/165 164/190/164 179/212/179
f 165/192/165 180/214/180 181/218/181
f 158/194/158 173/216/173 174/219/174
f 185/209/185 200/236/200 201/220/201
f 179/212/179 178/210/178 193/221/193
f 186/211/186 201/220/201 202/223/202
f 180/214/180 179/212/179 194/222/194
f 180/214/180 195/224/195 196/228/196
f 174/219/174 173/216/173 188/226/188
f 181/218/181 196/228/196 197/230/197
f 175/204/175 174/219/174 189/229/189
f 183/205/183 182/203/182 197/230/197
f 175/204/175 190/231/190 191/233/191
f 183/205/183 198/232/198 199/234/199
f 177/208/177 176/206/176 191/233/191
f 185/209/185 184/207/184 199/234/199
f 177/208/177 192/235/192 193/221/193
f 189/229/189 204/253/204 205/237/205
f 198/232/198 197/230/197 212/238/212
f 190/231/190 205/237/205 206/240/206
f 198/232/198 213/239/213 214/241/214
f 192/235/192 191/233/191 206/240/206
f 200/236/200 199/234/199 214/241/214
f 192/235/192 207/242/207 208/244/208
f 201/220/201 200/236/200 215/243/215
f 194/222/194 193/221/193 208/244/208
f 202/223/202 201/220/201 216/245/216
f 195/224/195 194/222/194 209/246/209
f 195/224/195 210/248/210 211/252/211
f 188/226/188 203/250/203 204/253/204
f 196/228/196 211/252/211 212/238/212
f 209/246/209 208/244/208 223/254/223
f 217/247/217 216/245/216 231/256/231
f 210/248/210 209/246/209 224/255/224
f 210/248/210 225/258/225 226/262/226
f 203/250/203 218/260/218 219/263/219
f 211/252/211 226/262/226 227/264/227
f 204/253/204 219/263/219 220/265/220
f 213/239/213 212/238/212 227/264/227
f 205/237/205 220/265/220 221/267/221
f 213/239/213 228/266/228 229/268/229
f 207/242/207 206/240/206 221/267/221
f 215/243/215 214/241/214 229/268/229
f 207/242/207 222/269/222 223/254/223
f 216/245/216 215/243/215 230/270/230
f 228/266/228 227/264/227 242/271/242
f 220/265/220 235/287/235 236/273/236
f 228/266/228 243/272/243 244/274/244
f 222/269/222 221/267/221 236/273/236
f 230/270/230 229/268/229 244/274/244
f 222/269/222 237/275/237 238/277/238
f 231/256/231 230/270/230 245/276/245
f 224/255/224 223/254/223 238/277/238
f 231/256/231 246/278/246 247/280/247
f 225/258/225 224/255/224 239/279/239
f 225/258/225 240/281/240 241/285/241
f 219/263/219 218/260/218 233/283/233
f 226/262/226 241/285/241 242/271/242
f 219/263/219 234/286/234 235/287/235
f 246/278/246 261/304/261 262/288/262
f 240/281/240 239/279/239 254/289/254
f 240/281/240 255/290/255 256/294/256
f 234/286/234 233/283/233 248/292/248
f 241/285/241 256/294/256 257/296/257
f 235/287/235 234/286/234 249/295/249
f 243/272/243 242/271/242 257/296/257
f 235/287/235 250/297/250 251/299/251
f 243/272/243 258/298/258 259/300/259
f 237/275/237 236/273/236 251/299/251
f 245/276/245 244/274/244 259/300/259
f 237/275/237 252/301/252 253/303/253
f 245/276/245 260/302/260 261/304/261
f 239/279/239 238/277/238 253/303/253
f 250/297/250 265/320/265 266/305/266
f 258/298/258 273/321/273 274/306/274
f 252/301/252 251/299/251 266/305/266
f 260/302/260 259/300/259 274/306/274
f 252/301/252 267/307/267 268/309/268
f 261/304/261 260/302/260 275/308/275
f 254/289/254 253/303/253 268/309/268
f 261/304/261 276/310/276 277/312/277
f 255/290/255 254/289/254 269/311/269
f 255/290/255 270/313/270 271/317/271
f 249/295/249 248/292/248 263/315/263
f 256/294/256 271/317/271 272/319/272
f 249/295/249 264/318/264 265/320/265
f 258/298/258 257/296/257 272/319/272
f 270/313/270 269/311/269 284/322/284
f 270/313/270 285/323/285 286/328/286
f 263/315/263 278/325/278 279/329/279
f 271/317/271 286/328/286 287/330/287
f 264/318/264 279/329/279 280/331/280
f 273/321/273 272/319/272 287/330/287
f 265/320/265 280/331/280 281/333/281
f 273/321/273 288/332/288 289/334/289
f 267/307/267 266/305/266 281/333/281
f 275/308/275 274/306/274 289/334/289
f 267/307/267 282/335/282 283/337/283
f 275/308/275 290/336/290 291/338/291
f 269/311/269 268/309/268 283/337/283
f 276/310/276 291/338/291 292/327/292
f 288/332/288 303/355/303 304/339/304
f 282/335/282 281/333/281 296/340/296
f 290/336/290 289/334/289 304/339/304
f 282/335/282 297/341/297 298/343/298
f 290/336/290 305/342/305 306/344/306
f 284/322/284 283/337/283 298/343/298
f 292/327/292 291/338/291 306/344/306
f 285/323/285 284/322/284 299/345/299
f 285/323/285 300/347/300 301/351/301
f 278/325/278 293/349/293 294/352/294
f 286/328/286 301/351/301 302/353/302
f 280/331/280 279/329/279 294/352/294
f 288/332/288 287/330/287 302/353/302
f 280/331/280 295/354/295 296/340/296
f 300/347/300 316/371/316 317/358/317
f 294/352/294 293/349/293 309/359/309
f 301/351/301 317/358/317 318/361/318
f 295/354/295 294/352/294 310/360/310
f 303/355/303 302/353/302 318/361/318
f 295/354/295 311/362/311 312/364/312
f 303/355/303 319/363/319 320/365/320
f 297/341/297 296/340/296 312/364/312
f 305/342/305 304/339/304 320/365/320
f 297/341/297 313/366/313 314/368/314
f 305/342/305 321/367/321 322/369/322
f 299/345/299 298/343/298 314/368/314
f 306/344/306 322/369/322 323/357/323
f 300/347/300 299/345/299 315/370/315
f 321/367/321 320/365/320 335/373/335
f 313/366/313 328/389/328 329/375/329
f 321/367/321 336/374/336 337/376/337
f 315/370/315 314/368/314 329/375/329
f 323/357/323 322/369/322 337/376/337
f 316/371/316 315/370/315 330/377/330
f 316/371/316 331/379/331 332/383/332
f 309/359/309 324/381/324 325/384/325
f 317/358/317 332/383/332 333/385/333
f 310/360/310 325/384/325 326/386/326
f 319/363/319 318/361/318 333/385/333
f 311/362/311 326/386/326 327/388/327
f 319/363/319 334/387/334 335/373/335
f 313/366/313 312/364/312 327/388/327
f 324/381/324 339/404/339 340/390/340
f 332/383/332 347/406/347 348/391/348
f 326/386/326 325/384/325 340/390/340
f 334/387/334 333/385/333 348/391/348
f 326/386/326 341/392/341 342/394/342
f 334/387/334 349/393/349 350/395/350
f 328/389/328 327/388/327 342/394/342
f 336/374/336 335/373/335 350/395/350
f 328/389/328 343/396/343 344/398/344
f 336/374/336 351/397/351 352/399/352
f 330/377/330 329/375/329 344/398/344
f 338/378/338 337/376/337 352/399/352
f 331/379/331 330/377/330 345/400/345
f 331/379/331 346/402/346 347/406/347
f 343/396/343 358/422/358 359/407/359
f 351/397/351 366/423/366 367/408/367
f 345/400/345 344/398/344 359/407/359
f 353/401/353 352/399/352 367/408/367
f 346/402/346 345/400/345 360/409/360
f 346/402/346 361/411/361 362/415/362
f 339/404/339 354/413/354 355/416/355
f 347/406/347 362/415/362 363/417/363
f 341/392/341 340/390/340 355/416/355
f 349/393/349 348/391/348 363/417/363
f 341/392/341 356/418/356 357/420/357
f 349/393/349 364/419/364 365/421/365
f 343/396/343 342/394/342 357/420/357
f 351/397/351 350/395/350 365/421/365
f 362/424/362 377/454/377 378/425/378
f 356/427/356 355/455/355 370/428/370
f 364/430/364 363/426/363 378/425/378
f 356/427/356 371/429/371 372/432/372
f 364/430/364 379/431/379 380/434/380
f 358/436/358 357/433/357 372/432/372
f 366/438/366 365/435/365 380/434/380
f 358/436/358 373/437/373 374/440/374
f 366/438/366 381/439/381 382/442/382
f 360/444/360 359/441/359 374/440/374
f 367/443/367 382/442/382 383/446/383
f 361/448/361 360/444/360 375/445/375
f 361/448/361 376/449/376 377/454/377
f 355/455/355 354/450/354 369/452/369
f 381/439/381 396/472/396 397/456/397
f 375/445/375 374/440/374 389/457/389
f 382/442/382 397/456/397 398/459/398
f 376/449/376 375/445/375 390/458/390
f 376/449/376 391/460/391 392/464/392
f 370/428/370 369/452/369 384/462/384
f 377/454/377 392/464/392 393/466/393
f 371/429/371 370/428/370 385/465/385
f 379/431/379 378/425/378 393/466/393
f 371/429/371 386/467/386 387/469/387
f 379/431/379 394/468/394 395/470/395
f 373/437/373 372/432/372 387/469/387
f 381/439/381 380/434/380 395/470/395
f 373/437/373 388/471/388 389/457/389
f 386/467/386 385/465/385 400/473/400
f 394/468/394 393/466/393 408/475/408
f 386/467/386 401/474/401 402/477/402
f 394/468/394 409/476/409 410/478/410
f 388/471/388 387/469/387 402/477/402
f 396/472/396 395/470/395 410/478/410
f 388/471/388 403/479/403 404/481/404
f 396/472/396 411/480/411 412/482/412
f 390/458/390 389/457/389 404/481/404
f 398/459/398 397/456/397 412/482/412
f 391/460/391 390/458/390 405/483/405
f 391/460/391 406/485/406 407/489/407
f 384/462/384 399/487/399 400/473/400
f 392/464/392 407/489/407 408/475/408
f 405/483/405 404/481/404 419/490/419
f 412/482/412 427/506/427 428/492/428
f 406/485/406 405/483/405 420/491/420
f 406/485/406 421/493/421 422/497/422
f 399/487/399 414/495/414 415/498/415
f 407/489/407 422/497/422 423/499/423
f 401/474/401 400/473/400 415/498/415
f 409/476/409 408/475/408 423/499/423
f 401/474/401 416/500/416 417/502/417
f 409/476/409 424/501/424 425/503/425
f 403/479/403 402/477/402 417/502/417
f 411/480/411 410/478/410 425/503/425
f 403/479/403 418/504/418 419/490/419
f 411/480/411 426/505/426 427/506/427
f 424/501/424 423/499/423 438/507/438
f 416/500/416 431/523/431 432/509/432
f 424/501/424 439/508/439 440/510/440
f 418/504/418 417/502/417 432/509/432
f 426/505/426 425/503/425 440/510/440
f 418/504/418 433/511/433 434/513/434
f 426/505/426 441/512/441 442/514/442
f 420/491/420 419/490/419 434/513/434
f 428/492/428 427/506/427 442/514/442
f 421/493/421 420/491/420 435/515/435
f 421/493/421 436/517/436 437/521/437
f 414/495/414 429/519/429 430/522/430
f 422/497/422 437/521/437 438/507/438
f 416/500/416 415/498/415 430/522/430
f 442/514/442 457/540/457 458/524/458
f 436/517/436 435/515/435 450/525/450
f 436/517/436 451/526/451 452/530/452
f 430/522/430 429/519/429 444/528/444
f 437/521/437 452/530/452 453/532/453
f 431/523/431 430/522/430 445/531/445
f 439/508/439 438/507/438 453/532/453
f 431/523/431 446/533/446 447/535/447
f 439/508/439 454/534/454 455/536/455
f 433/511/433 432/509/432 447/535/447
f 441/512/441 440/510/440 455/536/455
f 433/511/433 448/537/448 449/539/449
f 441/512/441 456/538/456 457/540/457
f 435/515/435 434/513/434 449/539/449
f 454/534/454 469/557/469 470/541/470
f 448/537/448 447/535/447 462/542/462
f 456/538/456 455/536/455 470/541/470
f 448/537/448 463/543/463 464/545/464
f 456/538/456 471/544/471 472/546/472
f 450/525/450 449/539/449 464/545/464
f 458/524/458 457/540/457 472/546/472
f 451/526/451 450/525/450 465/547/465
f 451/526/451 466/549/466 467/553/467
f 444/528/444 459/551/459 460/554/460
f 452/530/452 467/553/467 468/555/468
f 446/533/446 445/531/445 460/554/460
f 454/534/454 453/532/453 468/555/468
f 446/533/446 461/556/461 462/542/462
f 466/549/466 4/3/4 5/11/5
f 459/551/459 474/4/474 475/12/475
f 467/553/467 5/11/5 478/15/478
f 461/556/461 460/554/460 475/12/475
f 468/555/468 478/15/478 6/19/6
f 462/542/462 461/556/461 1/16/1
f 469/557/469 6/19/6 479/22/479
f 463/543/463 462/542/462 476/20/476
f 471/544/471 470/541/470 479/22/479
f 464/545/464 463/543/463 2/25/2
f 471/544/471 480/27/480 481/31/481
f 465/547/465 464/545/464 477/28/477
f 472/546/472 481/31/481 482/8/482
f 466/549/466 465/547/465 3/1/3
