# Blender 4.1.1
# www.blender.org
mtllib stage.mtl
o Cube
v 100.000008 1.000015 99.999992
v 100.000008 -0.999984 99.999992
v -99.999992 0.999984 100.000008
v -99.999992 -1.000015 100.000008
v 99.999992 1.000015 -100.000008
v 99.999992 -0.999984 -100.000008
v -100.000008 0.999984 -99.999992
v -100.000008 -1.000015 -99.999992
v 20.000000 1.000004 29.999998
v 20.000000 3.000002 29.999998
v 39.999996 1.000006 29.999996
v 39.999996 3.000006 29.999996
v 20.000000 1.000004 49.999996
v 20.000000 3.000002 49.999996
v 40.000000 1.000006 49.999996
v 40.000000 3.000006 49.999996
v 69.999992 2.000010 -50.000000
v 69.999992 4.000010 -50.000000
v 90.000000 2.000014 -50.000000
v 90.000000 4.000014 -50.000000
v 69.999992 2.000010 -30.000002
v 69.999992 4.000010 -30.000002
v 90.000000 2.000014 -30.000002
v 90.000000 4.000014 -30.000002
v 37.000000 2.568095 31.568085
v 37.000000 19.431915 31.568085
v 39.000000 2.568095 31.568085
v 39.000000 19.431919 31.568085
v 37.000004 2.568095 48.431908
v 37.000000 19.431915 48.431908
v 39.000004 2.568095 48.431908
v 39.000000 19.431919 48.431908
v 74.175552 8.155188 -49.997364
v 74.175545 28.155188 -49.997364
v 94.175545 8.155190 -49.997364
v 94.175537 28.155191 -49.997364
v 74.175552 8.155188 -29.997364
v 74.175552 28.155188 -29.997364
v 94.175545 8.155190 -29.997364
v 94.175545 28.155191 -29.997364
v -55.775383 0.999992 -27.996920
v -55.775387 17.806177 -27.996920
v -55.775387 0.999992 -56.750141
v -55.775387 17.806177 -56.750141
v -33.525665 0.999995 -27.996918
v -33.525669 17.806181 -27.996918
v -33.525669 0.999995 -56.750141
v -33.525669 17.806181 -56.750141
v -28.979860 0.586252 -27.920021
v -28.979860 12.502649 -27.920021
v -28.979858 0.586252 -56.211403
v -28.979860 12.502649 -56.211403
v -17.228054 0.586254 -27.920023
v -17.228054 12.502651 -27.920023
v -17.228052 0.586254 -56.211403
v -17.228054 12.502651 -56.211403
v -7.499155 0.999998 -28.280752
v -7.499156 8.510221 -28.280752
v -7.499155 0.999998 -56.344246
v -7.499156 8.510221 -56.344246
v 2.352118 1.000000 -28.280752
v 2.352116 8.510223 -28.280752
v 2.352117 1.000000 -56.344246
v 2.352116 8.510223 -56.344246
v 7.164767 1.000005 -28.826931
v 7.164765 4.892960 -28.826931
v 7.164767 1.000005 -55.591740
v 7.164765 4.892960 -55.591740
v 10.203819 1.000005 -28.826931
v 10.203818 4.892961 -28.826931
v 10.203819 1.000005 -55.591740
v 10.203819 4.892961 -55.591740
vn -0.0000 1.0000 -0.0000
vn -1.0000 -0.0000 -0.0000
vn -0.0000 -0.0000 -1.0000
vn -0.0000 -1.0000 -0.0000
vn -0.0000 -0.0000 1.0000
vn 1.0000 -0.0000 -0.0000
vt 0.625000 0.500000
vt 0.875000 0.500000
vt 0.875000 0.750000
vt 0.625000 0.750000
vt 0.375000 0.750000
vt 0.625000 1.000000
vt 0.375000 1.000000
vt 0.375000 0.000000
vt 0.625000 0.000000
vt 0.625000 0.250000
vt 0.375000 0.250000
vt 0.125000 0.500000
vt 0.375000 0.500000
vt 0.125000 0.750000
vt 0.000000 0.000000
s 0
usemtl Material.001
f 1/1/1 5/2/1 7/3/1 3/4/1
f 4/5/2 3/4/2 7/6/2 8/7/2
f 8/8/3 7/9/3 5/10/3 6/11/3
f 6/12/4 2/13/4 4/5/4 8/14/4
f 2/13/5 1/1/5 3/4/5 4/5/5
f 6/11/6 5/10/6 1/1/6 2/13/6
f 9/15/3 10/15/3 12/15/3 11/15/3
f 11/15/6 12/15/6 16/15/6 15/15/6
f 15/15/5 16/15/5 14/15/5 13/15/5
f 13/15/2 14/15/2 10/15/2 9/15/2
f 11/15/4 15/15/4 13/15/4 9/15/4
f 16/15/1 12/15/1 10/15/1 14/15/1
f 17/15/3 18/15/3 20/15/3 19/15/3
f 19/15/6 20/15/6 24/15/6 23/15/6
f 23/15/5 24/15/5 22/15/5 21/15/5
f 21/15/2 22/15/2 18/15/2 17/15/2
f 19/15/4 23/15/4 21/15/4 17/15/4
f 24/15/1 20/15/1 18/15/1 22/15/1
f 25/15/3 26/15/3 28/15/3 27/15/3
f 27/15/6 28/15/6 32/15/6 31/15/6
f 31/15/5 32/15/5 30/15/5 29/15/5
f 29/15/2 30/15/2 26/15/2 25/15/2
f 27/15/4 31/15/4 29/15/4 25/15/4
f 32/15/1 28/15/1 26/15/1 30/15/1
f 33/15/3 34/15/3 36/15/3 35/15/3
f 35/15/6 36/15/6 40/15/6 39/15/6
f 39/15/5 40/15/5 38/15/5 37/15/5
f 37/15/2 38/15/2 34/15/2 33/15/2
f 35/15/4 39/15/4 37/15/4 33/15/4
f 40/15/1 36/15/1 34/15/1 38/15/1
f 41/15/2 42/15/2 44/15/2 43/15/2
f 43/15/3 44/15/3 48/15/3 47/15/3
f 47/15/6 48/15/6 46/15/6 45/15/6
f 45/15/5 46/15/5 42/15/5 41/15/5
f 43/15/4 47/15/4 45/15/4 41/15/4
f 48/15/1 44/15/1 42/15/1 46/15/1
f 49/15/2 50/15/2 52/15/2 51/15/2
f 51/15/3 52/15/3 56/15/3 55/15/3
f 55/15/6 56/15/6 54/15/6 53/15/6
f 53/15/5 54/15/5 50/15/5 49/15/5
f 51/15/4 55/15/4 53/15/4 49/15/4
f 56/15/1 52/15/1 50/15/1 54/15/1
f 57/15/2 58/15/2 60/15/2 59/15/2
f 59/15/3 60/15/3 64/15/3 63/15/3
f 63/15/6 64/15/6 62/15/6 61/15/6
f 61/15/5 62/15/5 58/15/5 57/15/5
f 59/15/4 63/15/4 61/15/4 57/15/4
f 64/15/1 60/15/1 58/15/1 62/15/1
f 65/15/2 66/15/2 68/15/2 67/15/2
f 67/15/3 68/15/3 72/15/3 71/15/3
f 71/15/6 72/15/6 70/15/6 69/15/6
f 69/15/5 70/15/5 66/15/5 65/15/5
f 67/15/4 71/15/4 69/15/4 65/15/4
f 72/15/1 68/15/1 66/15/1 70/15/1
