# Blender 4.1.1
# www.blender.org
mtllib sky.mtl
o 球
v -0.000014 154.465286 103.210312
v -0.000014 103.210426 154.465164
v -0.000014 36.242722 182.204147
v -0.000014 0.000058 185.773758
v -0.000014 -36.242607 182.204147
v -0.000014 -103.210312 154.465286
v 7.070575 182.204147 35.546207
v 13.869452 171.632553 69.726471
v 20.135330 154.465286 101.227158
v 25.627415 131.361938 128.837738
v 30.134653 103.210419 151.497162
v 33.483833 71.092598 168.334686
v 35.546253 36.242722 178.703156
v 36.242649 0.000058 182.204147
v 35.546253 -36.242607 178.703156
v 33.483833 -71.092484 168.334686
v 30.134653 -103.210320 151.497269
v 25.627415 -131.361832 128.837860
v 20.135330 -154.465164 101.227257
v 13.869452 -171.632553 69.726578
v 7.070575 -182.204147 35.546326
v 13.869451 182.204147 33.483791
v 27.205919 171.632553 65.680893
v 39.496880 154.465271 95.353882
v 50.270004 131.361938 121.362503
v 59.111267 103.210419 142.707184
v 65.680923 71.092598 158.567825
v 69.726501 36.242714 168.334686
v 71.092529 0.000049 171.632553
v 69.726501 -36.242611 168.334686
v 65.680923 -71.092484 158.567825
v 59.111267 -103.210320 142.707291
v 50.270004 -131.361832 121.362602
v 39.496880 -154.465179 95.353989
v 27.205919 -171.632553 65.681000
v 13.869451 -182.204147 33.483910
v 20.135326 182.204147 30.134609
v 39.496880 171.632553 59.111233
v 57.340599 154.465225 85.816216
v 72.980736 131.361938 109.223373
v 85.816254 103.210411 128.433060
v 95.353912 71.092590 142.707260
v 101.227188 36.242710 151.497208
v 103.210350 0.000046 154.465210
v 101.227188 -36.242619 151.497208
v 95.353912 -71.092491 142.707260
v 85.816254 -103.210335 128.433182
v 72.980736 -131.361832 109.223434
v 57.340599 -154.465210 85.816330
v 39.496880 -171.632553 59.111340
v 20.135326 -182.204147 30.134724
v 25.627413 182.204147 25.627367
v 50.270004 171.632553 50.269962
v 72.980736 154.465225 72.980682
v 92.886864 131.361893 92.886841
v 109.223373 103.210411 109.223351
v 121.362511 71.092575 121.362549
v 128.837769 36.242706 128.837784
v 131.361847 0.000043 131.361847
v 128.837769 -36.242622 128.837784
v 121.362511 -71.092506 121.362564
v 109.223373 -103.210335 109.223427
v 92.886864 -131.361862 92.886909
v 72.980736 -154.465225 72.980789
v 50.270004 -171.632553 50.270069
v 25.627413 -182.204147 25.627485
v 30.134653 182.204147 20.135286
v 59.111275 171.632553 39.496841
v 85.816269 154.465225 57.340549
v 109.223381 131.361877 72.980713
v 128.433121 103.210411 85.816231
v 142.707214 71.092567 95.353928
v 151.497208 36.242695 101.227188
v 154.465195 0.000030 103.210320
v 151.497208 -36.242634 101.227188
v 142.707214 -71.092514 95.353981
v 128.433121 -103.210335 85.816284
v 109.223381 -131.361877 72.980782
v 85.816269 -154.465225 57.340637
v 59.111275 -171.632553 39.496944
v 30.134653 -182.204147 20.135397
v -0.000014 185.773758 -0.000058
v 33.483833 182.204147 13.869407
v 65.680923 171.632553 27.205887
v 95.353912 154.465225 39.496841
v 121.362518 131.361877 50.269974
v 142.707214 103.210396 59.111237
v 158.567764 71.092567 65.680916
v 168.334656 36.242683 69.726494
v 171.632507 0.000018 71.092499
v 168.334656 -36.242645 69.726494
v 158.567764 -71.092514 65.680977
v 142.707214 -103.210342 59.111290
v 121.362518 -131.361877 50.270061
v 95.353912 -154.465225 39.496933
v 65.680923 -171.632553 27.205984
v 33.483833 -182.204147 13.869519
v 35.546246 182.204147 7.070533
v 69.726494 171.632553 13.869411
v 101.227188 154.465225 20.135284
v 128.837769 131.361877 25.627394
v 151.497177 103.210381 30.134623
v 168.334656 71.092545 33.483833
v 178.703125 36.242680 35.546230
v 182.204102 0.000012 36.242622
v 178.703125 -36.242649 35.546253
v 168.334656 -71.092545 33.483879
v 151.497177 -103.210381 30.134686
v 128.837769 -131.361877 25.627476
v 101.227188 -154.465225 20.135380
v 69.726494 -171.632553 13.869516
v 35.546246 -182.204147 7.070646
v 36.242634 182.204147 -0.000061
v 71.092514 171.632553 -0.000052
v 103.210320 154.465225 -0.000057
v 131.361847 131.361877 -0.000038
v 154.465179 103.210381 -0.000045
v 171.632538 71.092545 -0.000010
v 182.204102 36.242661 -0.000028
v 185.773682 -0.000000 -0.000030
v 182.204102 -36.242661 -0.000002
v 171.632538 -71.092545 0.000026
v 154.465179 -103.210381 0.000016
v 131.361847 -131.361877 0.000046
v 103.210320 -154.465225 0.000035
v 71.092514 -171.632553 0.000044
v 36.242634 -182.204147 0.000053
v 35.546246 182.204147 -7.070651
v 69.726494 171.632553 -13.869529
v 101.227165 154.465225 -20.135393
v 128.837769 131.361877 -25.627466
v 151.497147 103.210381 -30.134712
v 168.334656 71.092545 -33.483868
v 178.703110 36.242649 -35.546295
v 182.204071 -0.000012 -36.242680
v 178.703110 -36.242680 -35.546268
v 168.334656 -71.092545 -33.483822
v 151.497147 -103.210381 -30.134651
v 128.837769 -131.361877 -25.627384
v 101.227165 -154.465225 -20.135300
v 69.726494 -171.632553 -13.869413
v 35.546246 -182.204147 -7.070536
v 33.483822 182.204147 -13.869519
v 65.680923 171.632553 -27.205988
v 95.353889 154.465225 -39.496944
v 121.362511 131.361877 -50.270050
v 142.707199 103.210342 -59.111317
v 158.567764 71.092514 -65.680954
v 168.334625 36.242645 -69.726524
v 171.632462 -0.000018 -71.092545
v 168.334625 -36.242683 -69.726524
v 158.567764 -71.092567 -65.680901
v 142.707199 -103.210396 -59.111259
v 121.362511 -131.361877 -50.269962
v 95.353889 -154.465225 -39.496857
v 65.680923 -171.632553 -27.205893
v 33.483822 -182.204147 -13.869407
v 30.134642 182.204147 -20.135395
v 59.111263 171.632553 -39.496944
v 85.816238 154.465225 -57.340645
v 109.223373 131.361877 -72.980774
v 128.433075 103.210335 -85.816299
v 142.707214 71.092514 -95.353951
v 151.497147 36.242634 -101.227196
v 154.465118 -0.000030 -103.210350
v 151.497147 -36.242695 -101.227196
v 142.707214 -71.092567 -95.353897
v 128.433075 -103.210411 -85.816238
v 109.223373 -131.361877 -72.980705
v 85.816238 -154.465225 -57.340557
v 59.111263 -171.632553 -39.496845
v 30.134642 -182.204147 -20.135281
v 25.627401 182.204147 -25.627476
v 50.269985 171.632553 -50.270069
v 72.980705 154.465225 -72.980789
v 92.886856 131.361862 -92.886902
v 109.223343 103.210335 -109.223427
v 121.362511 71.092506 -121.362526
v 128.837738 36.242622 -128.837784
v 131.361755 -0.000043 -131.361847
v 128.837738 -36.242706 -128.837784
v 121.362511 -71.092575 -121.362511
v 109.223343 -103.210411 -109.223351
v 92.886856 -131.361893 -92.886833
v 72.980705 -154.465225 -72.980682
v 50.269985 -171.632553 -50.269962
v 25.627401 -182.204147 -25.627361
v 20.135319 182.204147 -30.134708
v 39.496864 171.632553 -59.111336
v 57.340561 154.465210 -85.816315
v 72.980728 131.361832 -109.223427
v 85.816231 103.210335 -128.433182
v 95.353912 71.092491 -142.707230
v 101.227150 36.242619 -151.497208
v 103.210243 -0.000046 -154.465179
v 101.227150 -36.242710 -151.497208
v 95.353912 -71.092590 -142.707230
v 85.816231 -103.210411 -128.433060
v 72.980728 -131.361938 -109.223366
v 57.340561 -154.465225 -85.816208
v 39.496864 -171.632553 -59.111229
v 20.135319 -182.204147 -30.134596
v 13.869440 182.204147 -33.483891
v 27.205906 171.632553 -65.680984
v 39.496853 154.465179 -95.353973
v 50.269997 131.361832 -121.362587
v 59.111240 103.210320 -142.707275
v 65.680923 71.092484 -158.567764
v 69.726456 36.242611 -168.334656
v 71.092430 -0.000049 -171.632492
v 69.726456 -36.242714 -168.334656
v 65.680923 -71.092598 -158.567764
v 59.111240 -103.210419 -142.707153
v 50.269997 -131.361938 -121.362488
v 39.496853 -154.465271 -95.353859
v 27.205906 -171.632553 -65.680870
v 13.869440 -182.204147 -33.483776
v 7.070571 182.204147 -35.546303
v 13.869433 171.632553 -69.726555
v 20.135302 154.465164 -101.227226
v 25.627413 131.361832 -128.837830
v 30.134626 103.210320 -151.497223
v 33.483833 71.092484 -168.334656
v 35.546215 36.242607 -178.703110
v 36.242565 -0.000058 -182.204071
v 35.546215 -36.242722 -178.703110
v 33.483833 -71.092598 -168.334656
v 30.134626 -103.210419 -151.497116
v 25.627413 -131.361938 -128.837723
v 20.135302 -154.465286 -101.227112
v 13.869433 -171.632553 -69.726440
v 7.070571 -182.204147 -35.546188
v -0.000019 182.204147 -36.242699
v -0.000027 171.632553 -71.092575
v -0.000033 154.465164 -103.210365
v -0.000019 131.361832 -131.361908
v -0.000038 103.210312 -154.465225
v -0.000011 71.092484 -171.632507
v -0.000041 36.242607 -182.204102
v -0.000078 -0.000058 -185.773636
v -0.000041 -36.242722 -182.204102
v -0.000011 -71.092598 -171.632507
v -0.000038 -103.210426 -154.465103
v -0.000019 -131.361938 -131.361801
v -0.000033 -154.465286 -103.210266
v -0.000027 -171.632553 -71.092468
v -0.000019 -182.204147 -36.242580
v -7.070604 182.204147 -35.546299
v -13.869490 171.632553 -69.726555
v -20.135368 154.465164 -101.227211
v -25.627445 131.361832 -128.837814
v -30.134695 103.210320 -151.497223
v -33.483856 71.092484 -168.334656
v -35.546299 36.242607 -178.703094
v -36.242714 -0.000058 -182.204025
v -35.546299 -36.242722 -178.703094
v -33.483856 -71.092598 -168.334656
v -30.134695 -103.210419 -151.497101
v -25.627445 -131.361938 -128.837708
v -20.135368 -154.465286 -101.227097
v -13.869490 -171.632553 -69.726440
v -7.070604 -182.204147 -35.546185
v -13.869474 182.204147 -33.483891
v -27.205954 171.632553 -65.680984
v -39.496910 154.465179 -95.353935
v -50.270016 131.361832 -121.362572
v -59.111294 103.210320 -142.707260
v -65.680923 71.092484 -158.567764
v -69.726524 36.242611 -168.334610
v -71.092567 -0.000049 -171.632416
v -69.726524 -36.242714 -168.334610
v -65.680923 -71.092598 -158.567764
v -59.111294 -103.210419 -142.707153
v -50.270016 -131.361938 -121.362480
v -39.496910 -154.465271 -95.353821
v -27.205954 -171.632553 -65.680870
v -13.869474 -182.204147 -33.483776
v -20.135349 182.204147 -30.134705
v -39.496910 171.632553 -59.111317
v -57.340599 154.465210 -85.816269
v -72.980751 131.361832 -109.223427
v -85.816277 103.210335 -128.433136
v -95.353920 71.092491 -142.707214
v -101.227219 36.242619 -151.497147
v -103.210381 -0.000046 -154.465073
v -101.227219 -36.242710 -151.497147
v -95.353920 -71.092590 -142.707214
v -85.816277 -103.210411 -128.433014
v -72.980751 -131.361938 -109.223351
v -57.340599 -154.465225 -85.816162
v -39.496910 -171.632553 -59.111210
v -20.135349 -182.204147 -30.134592
v -25.627430 182.204147 -25.627470
v -50.270016 171.632553 -50.270042
v -72.980728 154.465225 -72.980743
v -92.886871 131.361862 -92.886887
v -109.223396 103.210335 -109.223381
v -121.362518 71.092506 -121.362518
v -128.837799 36.242622 -128.837723
v -131.361847 -0.000043 -131.361725
v -128.837799 -36.242706 -128.837723
v -121.362518 -71.092575 -121.362503
v -109.223396 -103.210411 -109.223312
v -92.886871 -131.361893 -92.886826
v -72.980728 -154.465225 -72.980629
v -50.270016 -171.632553 -50.269943
v -25.627430 -182.204147 -25.627354
v -0.000014 -185.773758 0.000058
v -30.134668 182.204147 -20.135382
v -59.111282 171.632553 -39.496933
v -85.816246 154.465225 -57.340591
v -109.223404 131.361877 -72.980766
v -128.433121 103.210335 -85.816254
v -142.707230 71.092514 -95.353943
v -151.497208 36.242634 -101.227135
v -154.465179 -0.000030 -103.210220
v -151.497208 -36.242695 -101.227135
v -142.707230 -71.092567 -95.353889
v -128.433121 -103.210411 -85.816193
v -109.223404 -131.361877 -72.980698
v -85.816246 -154.465225 -57.340504
v -59.111282 -171.632553 -39.496830
v -30.134668 -182.204147 -20.135269
v -33.483845 182.204147 -13.869509
v -65.680923 171.632553 -27.205969
v -95.353905 154.465225 -39.496887
v -121.362556 131.361877 -50.270050
v -142.707214 103.210342 -59.111252
v -158.567764 71.092514 -65.680946
v -168.334656 36.242645 -69.726448
v -171.632462 -0.000018 -71.092400
v -168.334656 -36.242683 -69.726448
v -158.567764 -71.092567 -65.680893
v -142.707214 -103.210396 -59.111195
v -121.362556 -131.361877 -50.269955
v -95.353905 -154.465225 -39.496799
v -65.680923 -171.632553 -27.205872
v -33.483845 -182.204147 -13.869396
v -35.546253 182.204147 -7.070641
v -69.726494 171.632553 -13.869509
v -101.227165 154.465225 -20.135353
v -128.837799 131.361877 -25.627460
v -151.497177 103.210381 -30.134659
v -168.334656 71.092545 -33.483868
v -178.703125 36.242649 -35.546219
v -182.204025 -0.000012 -36.242546
v -178.703125 -36.242680 -35.546192
v -168.334656 -71.092545 -33.483818
v -151.497177 -103.210381 -30.134598
v -128.837799 -131.361877 -25.627377
v -101.227165 -154.465225 -20.135260
v -69.726494 -171.632553 -13.869396
v -35.546253 -182.204147 -7.070525
v -36.242649 182.204147 -0.000053
v -71.092514 171.632553 -0.000036
v -103.210304 154.465225 -0.000019
v -131.361862 131.361877 -0.000038
v -154.465179 103.210381 0.000000
v -171.632507 71.092545 -0.000015
v -182.204102 36.242661 0.000035
v -185.773605 0.000000 0.000081
v -182.204102 -36.242661 0.000061
v -171.632507 -71.092545 0.000023
v -154.465179 -103.210381 0.000059
v -131.361862 -131.361877 0.000046
v -103.210304 -154.465225 0.000071
v -71.092514 -171.632553 0.000060
v -36.242649 -182.204147 0.000061
v -35.546253 182.204147 7.070533
v -69.726494 171.632553 13.869413
v -101.227150 154.465225 20.135309
v -128.837784 131.361877 25.627392
v -151.497147 103.210381 30.134657
v -168.334656 71.092545 33.483822
v -178.703079 36.242680 35.546288
v -182.203995 0.000012 36.242710
v -178.703079 -36.242649 35.546318
v -168.334656 -71.092545 33.483868
v -151.497147 -103.210381 30.134718
v -128.837784 -131.361877 25.627470
v -101.227150 -154.465225 20.135403
v -69.726494 -171.632553 13.869529
v -35.546253 -182.204147 7.070646
v -33.483837 182.204147 13.869400
v -65.680923 171.632553 27.205887
v -95.353874 154.465225 39.496845
v -121.362541 131.361877 50.269962
v -142.707184 103.210396 59.111256
v -158.567764 71.092567 65.680885
v -168.334610 36.242683 69.726524
v -171.632385 0.000018 71.092545
v -168.334610 -36.242645 69.726524
v -158.567764 -71.092514 65.680939
v -142.707184 -103.210342 59.111305
v -121.362541 -131.361877 50.270050
v -95.353874 -154.465225 39.496933
v -65.680923 -171.632553 27.205984
v -33.483837 -182.204147 13.869514
v -30.134653 182.204147 20.135275
v -59.111256 171.632553 39.496834
v -85.816193 154.465225 57.340538
v -109.223396 131.361877 72.980705
v -128.433060 103.210411 85.816231
v -142.707214 71.092567 95.353874
v -151.497147 36.242695 101.227196
v -154.465042 0.000030 103.210342
v -151.497147 -36.242634 101.227196
v -142.707214 -71.092514 95.353928
v -128.433060 -103.210335 85.816284
v -109.223396 -131.361877 72.980774
v -85.816193 -154.465225 57.340633
v -59.111256 -171.632553 39.496937
v -30.134653 -182.204147 20.135387
v -25.627419 182.204147 25.627354
v -50.269997 171.632553 50.269943
v -72.980659 154.465225 72.980652
v -92.886856 131.361893 92.886826
v -109.223335 103.210411 109.223328
v -121.362511 71.092575 121.362488
v -128.837708 36.242706 128.837769
v -131.361694 0.000043 131.361801
v -128.837708 -36.242622 128.837769
v -121.362511 -71.092506 121.362503
v -109.223335 -103.210335 109.223404
v -92.886856 -131.361862 92.886887
v -72.980659 -154.465225 72.980759
v -50.269997 -171.632553 50.270042
v -25.627419 -182.204147 25.627470
v -20.135336 182.204147 30.134586
v -39.496887 171.632553 59.111210
v -57.340530 154.465225 85.816170
v -72.980728 131.361938 109.223351
v -85.816200 103.210411 128.433014
v -95.353912 71.092590 142.707199
v -101.227135 36.242710 151.497147
v -103.210197 0.000046 154.465118
v -101.227135 -36.242619 151.497147
v -95.353912 -71.092491 142.707199
v -85.816200 -103.210335 128.433136
v -72.980728 -131.361832 109.223427
v -57.340530 -154.465210 85.816277
v -39.496887 -171.632553 59.111309
v -20.135336 -182.204147 30.134697
v -13.869464 182.204147 33.483761
v -27.205933 171.632553 65.680855
v -39.496838 154.465271 95.353806
v -50.270004 131.361938 121.362480
v -59.111214 103.210419 142.707123
v -65.680916 71.092598 158.567749
v -69.726433 36.242714 168.334610
v -71.092384 0.000049 171.632401
v -69.726433 -36.242611 168.334610
v -65.680916 -71.092484 158.567749
v -59.111214 -103.210320 142.707230
v -50.270004 -131.361832 121.362572
v -39.496838 -154.465179 95.353912
v -27.205933 -171.632553 65.680969
v -13.869464 -182.204147 33.483879
v -7.070597 182.204147 35.546169
v -13.869464 171.632553 69.726425
v -20.135296 154.465286 101.227051
v -25.627424 131.361938 128.837708
v -30.134623 103.210419 151.497055
v -33.483845 71.092598 168.334610
v -35.546215 36.242722 178.703064
v -36.242550 0.000058 182.203949
v -35.546215 -36.242607 178.703064
v -33.483845 -71.092484 168.334610
v -30.134623 -103.210320 151.497162
v -25.627424 -131.361832 128.837814
v -20.135296 -154.465164 101.227150
v -13.869464 -171.632553 69.726532
v -7.070597 -182.204147 35.546288
v -0.000014 182.204147 36.242565
v -0.000003 171.632553 71.092445
v 0.000000 131.361938 131.361801
v -0.000003 71.092598 171.632477
v -0.000003 -71.092484 171.632477
v 0.000000 -131.361832 131.361908
v 0.000022 -154.465164 103.210297
v -0.000003 -171.632553 71.092560
v -0.000014 -182.204147 36.242680
vn -0.0000 -0.8286 -0.5598
vn -0.0000 -0.9217 -0.3879
vn -0.0757 -0.9217 -0.3804
vn -0.1092 -0.8286 -0.5490
vn -0.0000 0.5528 -0.8333
vn -0.0000 0.3805 -0.9248
vn -0.1804 0.3805 -0.9070
vn -0.1626 0.5528 -0.8173
vn -0.0000 -0.7041 -0.7101
vn -0.1385 -0.7041 -0.6965
vn -0.0000 0.7041 -0.7101
vn -0.1385 0.7041 -0.6965
vn -0.0000 -0.5528 -0.8333
vn -0.1626 -0.5528 -0.8173
vn -0.0000 0.8286 -0.5598
vn -0.1092 0.8286 -0.5490
vn -0.0000 -0.3805 -0.9248
vn -0.1804 -0.3805 -0.9070
vn -0.0000 0.9217 -0.3879
vn -0.0757 0.9217 -0.3804
vn -0.0000 -0.1939 -0.9810
vn -0.1914 -0.1939 -0.9622
vn -0.0000 0.9796 -0.2010
vn -0.0392 0.9796 -0.1971
vn -0.0000 -0.0000 -1.0000
vn -0.1951 -0.0000 -0.9808
vn -0.0000 -0.9796 -0.2010
vn -0.0000 -1.0000 -0.0000
vn -0.0392 -0.9796 -0.1971
vn -0.0000 1.0000 -0.0000
vn -0.0000 0.1939 -0.9810
vn -0.1914 0.1939 -0.9622
vn -0.3827 -0.0000 -0.9239
vn -0.3754 0.1939 -0.9063
vn -0.0769 -0.9796 -0.1857
vn -0.1484 -0.9217 -0.3584
vn -0.3539 0.3805 -0.8544
vn -0.2142 -0.8286 -0.5172
vn -0.3189 0.5528 -0.7699
vn -0.2718 -0.7041 -0.6561
vn -0.2718 0.7041 -0.6561
vn -0.3189 -0.5528 -0.7699
vn -0.2142 0.8286 -0.5172
vn -0.3539 -0.3805 -0.8544
vn -0.1484 0.9217 -0.3584
vn -0.3754 -0.1939 -0.9063
vn -0.0769 0.9796 -0.1857
vn -0.3945 0.7041 -0.5905
vn -0.3110 0.8286 -0.4654
vn -0.4630 -0.5528 -0.6929
vn -0.5138 -0.3805 -0.7689
vn -0.2155 0.9217 -0.3225
vn -0.5450 -0.1939 -0.8157
vn -0.1117 0.9796 -0.1671
vn -0.5556 -0.0000 -0.8315
vn -0.1117 -0.9796 -0.1671
vn -0.5450 0.1939 -0.8157
vn -0.2155 -0.9217 -0.3225
vn -0.5138 0.3805 -0.7689
vn -0.3110 -0.8286 -0.4654
vn -0.4630 0.5528 -0.6929
vn -0.3945 -0.7041 -0.5905
vn -0.6937 0.1939 -0.6937
vn -0.6539 0.3805 -0.6539
vn -0.2743 -0.9217 -0.2743
vn -0.3958 -0.8286 -0.3958
vn -0.5893 0.5528 -0.5893
vn -0.5021 -0.7041 -0.5021
vn -0.5021 0.7041 -0.5021
vn -0.5893 -0.5528 -0.5893
vn -0.3958 0.8286 -0.3958
vn -0.6539 -0.3805 -0.6539
vn -0.2743 0.9217 -0.2743
vn -0.6937 -0.1939 -0.6937
vn -0.1421 0.9796 -0.1421
vn -0.7071 -0.0000 -0.7071
vn -0.1421 -0.9796 -0.1421
vn -0.4654 0.8286 -0.3110
vn -0.3225 0.9217 -0.2155
vn -0.7689 -0.3805 -0.5138
vn -0.8157 -0.1939 -0.5450
vn -0.1671 0.9796 -0.1117
vn -0.8315 -0.0000 -0.5556
vn -0.1671 -0.9796 -0.1116
vn -0.8157 0.1939 -0.5450
vn -0.3225 -0.9217 -0.2155
vn -0.7689 0.3805 -0.5138
vn -0.4654 -0.8286 -0.3110
vn -0.6929 0.5528 -0.4630
vn -0.5905 -0.7041 -0.3945
vn -0.5905 0.7041 -0.3945
vn -0.6929 -0.5528 -0.4630
vn -0.3584 -0.9217 -0.1484
vn -0.5172 -0.8286 -0.2142
vn -0.8544 0.3805 -0.3539
vn -0.7699 0.5528 -0.3189
vn -0.6561 -0.7041 -0.2718
vn -0.6561 0.7041 -0.2718
vn -0.7699 -0.5528 -0.3189
vn -0.5172 0.8286 -0.2142
vn -0.8544 -0.3805 -0.3539
vn -0.3584 0.9217 -0.1484
vn -0.9063 -0.1939 -0.3754
vn -0.1857 0.9796 -0.0769
vn -0.9239 -0.0000 -0.3827
vn -0.1857 -0.9796 -0.0769
vn -0.9063 0.1939 -0.3754
vn -0.9070 -0.3805 -0.1804
vn -0.9622 -0.1939 -0.1914
vn -0.3804 0.9217 -0.0757
vn -0.1971 0.9796 -0.0392
vn -0.9808 -0.0000 -0.1951
vn -0.1971 -0.9796 -0.0392
vn -0.9622 0.1939 -0.1914
vn -0.3804 -0.9217 -0.0757
vn -0.9070 0.3805 -0.1804
vn -0.5490 -0.8286 -0.1092
vn -0.8173 0.5528 -0.1626
vn -0.6965 -0.7041 -0.1385
vn -0.6965 0.7041 -0.1385
vn -0.8173 -0.5528 -0.1626
vn -0.5490 0.8286 -0.1092
vn -0.9248 0.3805 -0.0000
vn -0.8333 0.5528 -0.0000
vn -0.5598 -0.8286 -0.0000
vn -0.7101 -0.7041 -0.0000
vn -0.7101 0.7041 -0.0000
vn -0.8333 -0.5528 -0.0000
vn -0.5598 0.8286 -0.0000
vn -0.9248 -0.3805 -0.0000
vn -0.3879 0.9217 -0.0000
vn -0.9810 -0.1939 -0.0000
vn -0.2010 0.9796 -0.0000
vn -1.0000 -0.0000 -0.0000
vn -0.2010 -0.9796 -0.0000
vn -0.9810 0.1939 -0.0000
vn -0.3879 -0.9217 -0.0000
vn -0.3804 0.9217 0.0757
vn -0.1971 0.9796 0.0392
vn -0.9622 -0.1939 0.1914
vn -0.9808 -0.0000 0.1951
vn -0.1971 -0.9796 0.0392
vn -0.9622 0.1939 0.1914
vn -0.3804 -0.9217 0.0757
vn -0.9070 0.3805 0.1804
vn -0.5490 -0.8286 0.1092
vn -0.8173 0.5528 0.1626
vn -0.6965 -0.7041 0.1385
vn -0.6965 0.7041 0.1385
vn -0.8173 -0.5528 0.1626
vn -0.5490 0.8286 0.1092
vn -0.9070 -0.3805 0.1804
vn -0.5172 -0.8286 0.2142
vn -0.6561 -0.7041 0.2718
vn -0.7699 0.5528 0.3189
vn -0.6561 0.7041 0.2718
vn -0.7699 -0.5528 0.3189
vn -0.5172 0.8286 0.2142
vn -0.8544 -0.3805 0.3539
vn -0.3584 0.9217 0.1484
vn -0.9063 -0.1939 0.3754
vn -0.1857 0.9796 0.0769
vn -0.9239 -0.0000 0.3827
vn -0.1857 -0.9796 0.0769
vn -0.9063 0.1939 0.3754
vn -0.3584 -0.9217 0.1484
vn -0.8544 0.3805 0.3539
vn -0.8157 -0.1939 0.5450
vn -0.8315 -0.0000 0.5556
vn -0.1671 -0.9796 0.1117
vn -0.1671 0.9796 0.1117
vn -0.8157 0.1939 0.5450
vn -0.3225 -0.9217 0.2155
vn -0.7689 0.3805 0.5138
vn -0.4654 -0.8286 0.3110
vn -0.6929 0.5528 0.4630
vn -0.5905 -0.7041 0.3945
vn -0.5905 0.7041 0.3945
vn -0.6929 -0.5528 0.4630
vn -0.4654 0.8286 0.3110
vn -0.7689 -0.3805 0.5138
vn -0.3225 0.9217 0.2155
vn -0.5893 0.5528 0.5893
vn -0.5021 0.7041 0.5021
vn -0.5021 -0.7041 0.5021
vn -0.5893 -0.5528 0.5893
vn -0.3958 0.8286 0.3958
vn -0.6539 -0.3805 0.6539
vn -0.2743 0.9217 0.2743
vn -0.6937 -0.1939 0.6937
vn -0.1421 0.9796 0.1421
vn -0.7071 -0.0000 0.7071
vn -0.1421 -0.9796 0.1421
vn -0.6937 0.1939 0.6937
vn -0.2743 -0.9217 0.2743
vn -0.6539 0.3805 0.6539
vn -0.3958 -0.8286 0.3958
vn -0.1117 0.9796 0.1671
vn -0.5556 -0.0000 0.8315
vn -0.5450 0.1939 0.8157
vn -0.1117 -0.9796 0.1671
vn -0.2155 -0.9217 0.3225
vn -0.5138 0.3805 0.7689
vn -0.3110 -0.8286 0.4654
vn -0.4630 0.5528 0.6929
vn -0.3945 -0.7041 0.5905
vn -0.3945 0.7041 0.5905
vn -0.4630 -0.5528 0.6929
vn -0.3110 0.8286 0.4654
vn -0.5138 -0.3805 0.7689
vn -0.2155 0.9217 0.3225
vn -0.5450 -0.1939 0.8157
vn -0.2718 0.7041 0.6561
vn -0.2142 0.8286 0.5172
vn -0.3189 -0.5528 0.7699
vn -0.3539 -0.3805 0.8544
vn -0.1484 0.9217 0.3584
vn -0.3754 -0.1939 0.9063
vn -0.0769 0.9796 0.1857
vn -0.3827 -0.0000 0.9239
vn -0.0769 -0.9796 0.1857
vn -0.3754 0.1939 0.9063
vn -0.1484 -0.9217 0.3584
vn -0.3539 0.3805 0.8544
vn -0.2142 -0.8286 0.5172
vn -0.3189 0.5528 0.7699
vn -0.2718 -0.7041 0.6561
vn -0.0392 -0.9796 0.1971
vn -0.0757 -0.9217 0.3804
vn -0.1914 0.1939 0.9622
vn -0.1804 0.3805 0.9070
vn -0.1092 -0.8286 0.5490
vn -0.1626 0.5528 0.8173
vn -0.1385 -0.7041 0.6965
vn -0.1385 0.7041 0.6965
vn -0.1626 -0.5528 0.8173
vn -0.1092 0.8286 0.5490
vn -0.1804 -0.3805 0.9070
vn -0.0757 0.9217 0.3804
vn -0.1914 -0.1939 0.9622
vn -0.0392 0.9796 0.1971
vn -0.1951 -0.0000 0.9808
vn -0.0000 -0.5528 0.8333
vn -0.0000 -0.3805 0.9248
vn -0.0000 0.8286 0.5598
vn -0.0000 0.9217 0.3879
vn -0.0000 -0.1939 0.9810
vn -0.0000 0.9796 0.2010
vn -0.0000 -0.0000 1.0000
vn -0.0000 -0.9796 0.2010
vn -0.0000 0.1939 0.9810
vn -0.0000 -0.9217 0.3879
vn -0.0000 0.3805 0.9248
vn -0.0000 -0.8286 0.5598
vn -0.0000 0.5528 0.8333
vn -0.0000 -0.7041 0.7101
vn -0.0000 0.7041 0.7101
vn 0.1914 0.1939 0.9622
vn 0.1804 0.3805 0.9070
vn 0.0757 -0.9217 0.3804
vn 0.1092 -0.8286 0.5490
vn 0.1626 0.5528 0.8173
vn 0.1385 -0.7041 0.6965
vn 0.1385 0.7041 0.6965
vn 0.1626 -0.5528 0.8173
vn 0.1092 0.8286 0.5490
vn 0.1804 -0.3805 0.9070
vn 0.0757 0.9217 0.3804
vn 0.1914 -0.1939 0.9622
vn 0.0392 0.9796 0.1971
vn 0.1951 -0.0000 0.9808
vn 0.0392 -0.9796 0.1971
vn 0.2142 0.8286 0.5172
vn 0.1484 0.9217 0.3584
vn 0.3539 -0.3805 0.8544
vn 0.3754 -0.1939 0.9063
vn 0.0769 0.9796 0.1857
vn 0.3827 -0.0000 0.9239
vn 0.0769 -0.9796 0.1857
vn 0.3754 0.1939 0.9063
vn 0.1484 -0.9217 0.3584
vn 0.3539 0.3805 0.8544
vn 0.2142 -0.8286 0.5172
vn 0.3189 0.5528 0.7699
vn 0.2718 -0.7041 0.6561
vn 0.2718 0.7041 0.6561
vn 0.3189 -0.5528 0.7699
vn 0.2155 -0.9217 0.3225
vn 0.3110 -0.8286 0.4654
vn 0.5138 0.3805 0.7689
vn 0.4630 0.5528 0.6929
vn 0.3945 -0.7041 0.5905
vn 0.3945 0.7041 0.5905
vn 0.4630 -0.5528 0.6929
vn 0.3110 0.8286 0.4654
vn 0.5138 -0.3805 0.7689
vn 0.2155 0.9217 0.3225
vn 0.5450 -0.1939 0.8157
vn 0.1117 0.9796 0.1671
vn 0.5556 -0.0000 0.8315
vn 0.1117 -0.9796 0.1671
vn 0.5450 0.1939 0.8157
vn 0.6539 -0.3805 0.6539
vn 0.6937 -0.1939 0.6937
vn 0.2743 0.9217 0.2743
vn 0.1421 0.9796 0.1421
vn 0.7071 -0.0000 0.7071
vn 0.1421 -0.9796 0.1421
vn 0.6937 0.1939 0.6937
vn 0.2743 -0.9217 0.2743
vn 0.6539 0.3805 0.6539
vn 0.3958 -0.8286 0.3958
vn 0.5893 0.5528 0.5893
vn 0.5021 -0.7041 0.5021
vn 0.5021 0.7041 0.5021
vn 0.5893 -0.5528 0.5893
vn 0.3958 0.8286 0.3958
vn 0.7689 0.3805 0.5138
vn 0.6929 0.5528 0.4630
vn 0.4654 -0.8286 0.3110
vn 0.5905 -0.7041 0.3945
vn 0.5905 0.7041 0.3945
vn 0.6929 -0.5528 0.4630
vn 0.4654 0.8286 0.3110
vn 0.7689 -0.3805 0.5138
vn 0.3225 0.9217 0.2155
vn 0.8157 -0.1939 0.5450
vn 0.1671 0.9796 0.1117
vn 0.8315 -0.0000 0.5556
vn 0.1671 -0.9796 0.1117
vn 0.8157 0.1939 0.5450
vn 0.3225 -0.9217 0.2155
vn 0.3584 0.9217 0.1484
vn 0.1857 0.9796 0.0769
vn 0.9063 -0.1939 0.3754
vn 0.9239 -0.0000 0.3827
vn 0.1857 -0.9796 0.0769
vn 0.9063 0.1939 0.3754
vn 0.3584 -0.9217 0.1484
vn 0.8544 0.3805 0.3539
vn 0.5172 -0.8286 0.2142
vn 0.7699 0.5528 0.3189
vn 0.6561 -0.7041 0.2718
vn 0.6561 0.7041 0.2718
vn 0.7699 -0.5528 0.3189
vn 0.5172 0.8286 0.2142
vn 0.8544 -0.3805 0.3539
vn 0.8173 0.5528 0.1626
vn 0.6965 0.7041 0.1385
vn 0.6965 -0.7041 0.1385
vn 0.8173 -0.5528 0.1626
vn 0.5490 0.8286 0.1092
vn 0.9070 -0.3805 0.1804
vn 0.3804 0.9217 0.0757
vn 0.9622 -0.1939 0.1914
vn 0.1971 0.9796 0.0392
vn 0.9808 -0.0000 0.1951
vn 0.1971 -0.9796 0.0392
vn 0.9622 0.1939 0.1914
vn 0.3804 -0.9217 0.0757
vn 0.9070 0.3805 0.1804
vn 0.5490 -0.8286 0.1092
vn 0.2010 -0.9796 -0.0000
vn 0.2010 0.9796 -0.0000
vn 1.0000 -0.0000 -0.0000
vn 0.9810 0.1939 -0.0000
vn 0.3879 -0.9217 -0.0000
vn 0.9248 0.3805 -0.0000
vn 0.5598 -0.8286 -0.0000
vn 0.8333 0.5528 -0.0000
vn 0.7101 -0.7041 -0.0000
vn 0.7101 0.7041 -0.0000
vn 0.8333 -0.5528 -0.0000
vn 0.5598 0.8286 -0.0000
vn 0.9248 -0.3805 -0.0000
vn 0.3879 0.9217 -0.0000
vn 0.9810 -0.1939 -0.0000
vn 0.6965 -0.7041 -0.1385
vn 0.8173 -0.5528 -0.1626
vn 0.6965 0.7041 -0.1385
vn 0.5490 0.8286 -0.1092
vn 0.9070 -0.3805 -0.1804
vn 0.3804 0.9217 -0.0757
vn 0.9622 -0.1939 -0.1914
vn 0.1971 0.9796 -0.0392
vn 0.9808 -0.0000 -0.1951
vn 0.1971 -0.9796 -0.0392
vn 0.9622 0.1939 -0.1914
vn 0.3804 -0.9217 -0.0757
vn 0.9070 0.3805 -0.1804
vn 0.5490 -0.8286 -0.1092
vn 0.8173 0.5528 -0.1626
vn 0.9239 -0.0000 -0.3827
vn 0.9063 0.1939 -0.3754
vn 0.1857 -0.9796 -0.0769
vn 0.3584 -0.9217 -0.1484
vn 0.8544 0.3805 -0.3539
vn 0.5172 -0.8286 -0.2142
vn 0.7699 0.5528 -0.3189
vn 0.6561 -0.7041 -0.2718
vn 0.6561 0.7041 -0.2718
vn 0.7699 -0.5528 -0.3189
vn 0.5172 0.8286 -0.2142
vn 0.8544 -0.3805 -0.3539
vn 0.3584 0.9217 -0.1484
vn 0.9063 -0.1939 -0.3754
vn 0.1857 0.9796 -0.0769
vn 0.5905 0.7041 -0.3945
vn 0.4654 0.8286 -0.3110
vn 0.6929 -0.5528 -0.4630
vn 0.7689 -0.3805 -0.5138
vn 0.3225 0.9217 -0.2155
vn 0.8157 -0.1939 -0.5450
vn 0.1671 0.9796 -0.1117
vn 0.8315 -0.0000 -0.5556
vn 0.1671 -0.9796 -0.1117
vn 0.8157 0.1939 -0.5450
vn 0.3225 -0.9217 -0.2155
vn 0.7689 0.3805 -0.5138
vn 0.4654 -0.8286 -0.3110
vn 0.6929 0.5528 -0.4630
vn 0.5905 -0.7041 -0.3945
vn 0.1421 -0.9796 -0.1421
vn 0.2743 -0.9217 -0.2743
vn 0.6937 0.1939 -0.6937
vn 0.6539 0.3805 -0.6539
vn 0.3958 -0.8286 -0.3958
vn 0.5893 0.5528 -0.5893
vn 0.5021 -0.7041 -0.5021
vn 0.5021 0.7041 -0.5021
vn 0.5893 -0.5528 -0.5893
vn 0.3958 0.8286 -0.3958
vn 0.6539 -0.3805 -0.6539
vn 0.2743 0.9217 -0.2743
vn 0.6937 -0.1939 -0.6937
vn 0.1421 0.9796 -0.1421
vn 0.7071 -0.0000 -0.7071
vn 0.4630 -0.5528 -0.6929
vn 0.5138 -0.3805 -0.7689
vn 0.3110 0.8286 -0.4654
vn 0.2155 0.9217 -0.3225
vn 0.5450 -0.1939 -0.8157
vn 0.1117 0.9796 -0.1671
vn 0.5556 -0.0000 -0.8315
vn 0.1117 -0.9796 -0.1671
vn 0.5450 0.1939 -0.8157
vn 0.2155 -0.9217 -0.3225
vn 0.5138 0.3805 -0.7689
vn 0.3110 -0.8286 -0.4654
vn 0.4630 0.5528 -0.6929
vn 0.3945 -0.7041 -0.5905
vn 0.3945 0.7041 -0.5905
vn 0.3754 0.1939 -0.9063
vn 0.3539 0.3805 -0.8544
vn 0.1484 -0.9217 -0.3584
vn 0.2142 -0.8286 -0.5172
vn 0.3189 0.5528 -0.7699
vn 0.2718 -0.7041 -0.6561
vn 0.2718 0.7041 -0.6561
vn 0.3189 -0.5528 -0.7699
vn 0.2142 0.8286 -0.5172
vn 0.3539 -0.3805 -0.8544
vn 0.1484 0.9217 -0.3584
vn 0.3754 -0.1939 -0.9063
vn 0.0769 0.9796 -0.1857
vn 0.3827 -0.0000 -0.9239
vn 0.0769 -0.9796 -0.1857
vn 0.1092 0.8286 -0.5490
vn 0.0757 0.9217 -0.3804
vn 0.1804 -0.3805 -0.9070
vn 0.1914 -0.1939 -0.9622
vn 0.0392 0.9796 -0.1971
vn 0.1951 -0.0000 -0.9808
vn 0.0392 -0.9796 -0.1971
vn 0.1914 0.1939 -0.9622
vn 0.0757 -0.9217 -0.3804
vn 0.1804 0.3805 -0.9070
vn 0.1092 -0.8286 -0.5490
vn 0.1626 0.5528 -0.8173
vn 0.1385 -0.7041 -0.6965
vn 0.1385 0.7041 -0.6965
vn 0.1626 -0.5528 -0.8173
vt 0.750000 0.812500
vt 0.750000 0.875000
vt 0.718750 0.875000
vt 0.718750 0.812500
vt 0.750000 0.312500
vt 0.750000 0.375000
vt 0.718750 0.375000
vt 0.718750 0.312500
vt 0.750000 0.750000
vt 0.718750 0.750000
vt 0.750000 0.250000
vt 0.718750 0.250000
vt 0.750000 0.687500
vt 0.718750 0.687500
vt 0.750000 0.187500
vt 0.718750 0.187500
vt 0.750000 0.625000
vt 0.718750 0.625000
vt 0.750000 0.125000
vt 0.718750 0.125000
vt 0.750000 0.562500
vt 0.718750 0.562500
vt 0.750000 0.062500
vt 0.718750 0.062500
vt 0.750000 0.500000
vt 0.718750 0.500000
vt 0.750000 0.937500
vt 0.734375 1.000000
vt 0.718750 0.937500
vt 0.734375 0.000000
vt 0.750000 0.437500
vt 0.718750 0.437500
vt 0.687500 0.500000
vt 0.687500 0.437500
vt 0.687500 0.937500
vt 0.687500 0.875000
vt 0.687500 0.375000
vt 0.687500 0.812500
vt 0.687500 0.312500
vt 0.687500 0.750000
vt 0.687500 0.250000
vt 0.687500 0.687500
vt 0.687500 0.187500
vt 0.687500 0.625000
vt 0.687500 0.125000
vt 0.687500 0.562500
vt 0.687500 0.062500
vt 0.703125 1.000000
vt 0.703125 0.000000
vt 0.656250 0.250000
vt 0.656250 0.187500
vt 0.656250 0.687500
vt 0.656250 0.625000
vt 0.656250 0.125000
vt 0.656250 0.562500
vt 0.656250 0.062500
vt 0.656250 0.500000
vt 0.671875 1.000000
vt 0.656250 0.937500
vt 0.671875 0.000000
vt 0.656250 0.437500
vt 0.656250 0.875000
vt 0.656250 0.375000
vt 0.656250 0.812500
vt 0.656250 0.312500
vt 0.656250 0.750000
vt 0.625000 0.437500
vt 0.625000 0.375000
vt 0.625000 0.875000
vt 0.625000 0.812500
vt 0.625000 0.312500
vt 0.625000 0.750000
vt 0.625000 0.250000
vt 0.625000 0.687500
vt 0.625000 0.187500
vt 0.625000 0.625000
vt 0.625000 0.125000
vt 0.625000 0.562500
vt 0.625000 0.062500
vt 0.625000 0.500000
vt 0.640625 1.000000
vt 0.625000 0.937500
vt 0.640625 0.000000
vt 0.593750 0.187500
vt 0.593750 0.125000
vt 0.593750 0.625000
vt 0.593750 0.562500
vt 0.593750 0.062500
vt 0.593750 0.500000
vt 0.609375 1.000000
vt 0.593750 0.937500
vt 0.609375 0.000000
vt 0.593750 0.437500
vt 0.593750 0.875000
vt 0.593750 0.375000
vt 0.593750 0.812500
vt 0.593750 0.312500
vt 0.593750 0.750000
vt 0.593750 0.250000
vt 0.593750 0.687500
vt 0.562500 0.875000
vt 0.562500 0.812500
vt 0.562500 0.375000
vt 0.562500 0.312500
vt 0.562500 0.750000
vt 0.562500 0.250000
vt 0.562500 0.687500
vt 0.562500 0.187500
vt 0.562500 0.625000
vt 0.562500 0.125000
vt 0.562500 0.562500
vt 0.562500 0.062500
vt 0.562500 0.500000
vt 0.578125 1.000000
vt 0.562500 0.937500
vt 0.578125 0.000000
vt 0.562500 0.437500
vt 0.531250 0.625000
vt 0.531250 0.562500
vt 0.531250 0.125000
vt 0.531250 0.062500
vt 0.531250 0.500000
vt 0.546875 1.000000
vt 0.531250 0.937500
vt 0.546875 0.000000
vt 0.531250 0.437500
vt 0.531250 0.875000
vt 0.531250 0.375000
vt 0.531250 0.812500
vt 0.531250 0.312500
vt 0.531250 0.750000
vt 0.531250 0.250000
vt 0.531250 0.687500
vt 0.531250 0.187500
vt 0.500000 0.375000
vt 0.500000 0.312500
vt 0.500000 0.812500
vt 0.500000 0.750000
vt 0.500000 0.250000
vt 0.500000 0.687500
vt 0.500000 0.187500
vt 0.500000 0.625000
vt 0.500000 0.125000
vt 0.500000 0.562500
vt 0.500000 0.062500
vt 0.500000 0.500000
vt 0.515625 1.000000
vt 0.500000 0.937500
vt 0.515625 0.000000
vt 0.500000 0.437500
vt 0.500000 0.875000
vt 0.468750 0.125000
vt 0.468750 0.062500
vt 0.468750 0.562500
vt 0.468750 0.500000
vt 0.484375 1.000000
vt 0.468750 0.937500
vt 0.484375 0.000000
vt 0.468750 0.437500
vt 0.468750 0.875000
vt 0.468750 0.375000
vt 0.468750 0.812500
vt 0.468750 0.312500
vt 0.468750 0.750000
vt 0.468750 0.250000
vt 0.468750 0.687500
vt 0.468750 0.187500
vt 0.468750 0.625000
vt 0.437500 0.812500
vt 0.437500 0.750000
vt 0.437500 0.312500
vt 0.437500 0.250000
vt 0.437500 0.687500
vt 0.437500 0.187500
vt 0.437500 0.625000
vt 0.437500 0.125000
vt 0.437500 0.562500
vt 0.437500 0.062500
vt 0.437500 0.500000
vt 0.453125 1.000000
vt 0.437500 0.937500
vt 0.453125 0.000000
vt 0.437500 0.437500
vt 0.437500 0.875000
vt 0.437500 0.375000
vt 0.406250 0.562500
vt 0.406250 0.500000
vt 0.421875 1.000000
vt 0.406250 0.937500
vt 0.421875 0.000000
vt 0.406250 0.062500
vt 0.406250 0.437500
vt 0.406250 0.875000
vt 0.406250 0.375000
vt 0.406250 0.812500
vt 0.406250 0.312500
vt 0.406250 0.750000
vt 0.406250 0.250000
vt 0.406250 0.687500
vt 0.406250 0.187500
vt 0.406250 0.625000
vt 0.406250 0.125000
vt 0.375000 0.312500
vt 0.375000 0.250000
vt 0.375000 0.750000
vt 0.375000 0.687500
vt 0.375000 0.187500
vt 0.375000 0.625000
vt 0.375000 0.125000
vt 0.375000 0.562500
vt 0.375000 0.062500
vt 0.375000 0.500000
vt 0.390625 1.000000
vt 0.375000 0.937500
vt 0.390625 0.000000
vt 0.375000 0.437500
vt 0.375000 0.875000
vt 0.375000 0.375000
vt 0.375000 0.812500
vt 0.359375 0.000000
vt 0.343750 0.062500
vt 0.343750 0.500000
vt 0.343750 0.437500
vt 0.343750 0.937500
vt 0.343750 0.875000
vt 0.343750 0.375000
vt 0.343750 0.812500
vt 0.343750 0.312500
vt 0.343750 0.750000
vt 0.343750 0.250000
vt 0.343750 0.687500
vt 0.343750 0.187500
vt 0.343750 0.625000
vt 0.343750 0.125000
vt 0.343750 0.562500
vt 0.359375 1.000000
vt 0.312500 0.250000
vt 0.312500 0.187500
vt 0.312500 0.687500
vt 0.312500 0.625000
vt 0.312500 0.125000
vt 0.312500 0.562500
vt 0.312500 0.062500
vt 0.312500 0.500000
vt 0.328125 1.000000
vt 0.312500 0.937500
vt 0.328125 0.000000
vt 0.312500 0.437500
vt 0.312500 0.875000
vt 0.312500 0.375000
vt 0.312500 0.812500
vt 0.312500 0.312500
vt 0.312500 0.750000
vt 0.281250 0.937500
vt 0.281250 0.875000
vt 0.281250 0.437500
vt 0.281250 0.375000
vt 0.281250 0.812500
vt 0.281250 0.312500
vt 0.281250 0.750000
vt 0.281250 0.250000
vt 0.281250 0.687500
vt 0.281250 0.187500
vt 0.281250 0.625000
vt 0.281250 0.125000
vt 0.281250 0.562500
vt 0.281250 0.062500
vt 0.281250 0.500000
vt 0.296875 1.000000
vt 0.296875 0.000000
vt 0.250000 0.687500
vt 0.250000 0.625000
vt 0.250000 0.187500
vt 0.250000 0.125000
vt 0.250000 0.562500
vt 0.250000 0.062500
vt 0.250000 0.500000
vt 0.265625 1.000000
vt 0.250000 0.937500
vt 0.265625 0.000000
vt 0.250000 0.437500
vt 0.250000 0.875000
vt 0.250000 0.375000
vt 0.250000 0.812500
vt 0.250000 0.312500
vt 0.250000 0.750000
vt 0.250000 0.250000
vt 0.218750 0.437500
vt 0.218750 0.375000
vt 0.218750 0.875000
vt 0.218750 0.812500
vt 0.218750 0.312500
vt 0.218750 0.750000
vt 0.218750 0.250000
vt 0.218750 0.687500
vt 0.218750 0.187500
vt 0.218750 0.625000
vt 0.218750 0.125000
vt 0.218750 0.562500
vt 0.218750 0.062500
vt 0.218750 0.500000
vt 0.234375 1.000000
vt 0.218750 0.937500
vt 0.234375 0.000000
vt 0.187500 0.187500
vt 0.187500 0.125000
vt 0.187500 0.625000
vt 0.187500 0.562500
vt 0.187500 0.062500
vt 0.187500 0.500000
vt 0.203125 1.000000
vt 0.187500 0.937500
vt 0.203125 0.000000
vt 0.187500 0.437500
vt 0.187500 0.875000
vt 0.187500 0.375000
vt 0.187500 0.812500
vt 0.187500 0.312500
vt 0.187500 0.750000
vt 0.187500 0.250000
vt 0.187500 0.687500
vt 0.156250 0.875000
vt 0.156250 0.812500
vt 0.156250 0.375000
vt 0.156250 0.312500
vt 0.156250 0.750000
vt 0.156250 0.250000
vt 0.156250 0.687500
vt 0.156250 0.187500
vt 0.156250 0.625000
vt 0.156250 0.125000
vt 0.156250 0.562500
vt 0.156250 0.062500
vt 0.156250 0.500000
vt 0.171875 1.000000
vt 0.156250 0.937500
vt 0.171875 0.000000
vt 0.156250 0.437500
vt 0.125000 0.625000
vt 0.125000 0.562500
vt 0.125000 0.125000
vt 0.125000 0.062500
vt 0.125000 0.500000
vt 0.140625 1.000000
vt 0.125000 0.937500
vt 0.140625 0.000000
vt 0.125000 0.437500
vt 0.125000 0.875000
vt 0.125000 0.375000
vt 0.125000 0.812500
vt 0.125000 0.312500
vt 0.125000 0.750000
vt 0.125000 0.250000
vt 0.125000 0.687500
vt 0.125000 0.187500
vt 0.093750 0.375000
vt 0.093750 0.312500
vt 0.093750 0.812500
vt 0.093750 0.750000
vt 0.093750 0.250000
vt 0.093750 0.687500
vt 0.093750 0.187500
vt 0.093750 0.625000
vt 0.093750 0.125000
vt 0.093750 0.562500
vt 0.093750 0.062500
vt 0.093750 0.500000
vt 0.109375 1.000000
vt 0.093750 0.937500
vt 0.109375 0.000000
vt 0.093750 0.437500
vt 0.093750 0.875000
vt 0.062500 0.125000
vt 0.062500 0.062500
vt 0.062500 0.562500
vt 0.062500 0.500000
vt 0.078125 1.000000
vt 0.062500 0.937500
vt 0.078125 0.000000
vt 0.062500 0.437500
vt 0.062500 0.875000
vt 0.062500 0.375000
vt 0.062500 0.812500
vt 0.062500 0.312500
vt 0.062500 0.750000
vt 0.062500 0.250000
vt 0.062500 0.687500
vt 0.062500 0.187500
vt 0.062500 0.625000
vt 0.031250 0.312500
vt 0.031250 0.250000
vt 0.031250 0.750000
vt 0.031250 0.687500
vt 0.031250 0.187500
vt 0.031250 0.625000
vt 0.031250 0.125000
vt 0.031250 0.562500
vt 0.031250 0.062500
vt 0.031250 0.500000
vt 0.046875 1.000000
vt 0.031250 0.937500
vt 0.046875 0.000000
vt 0.031250 0.437500
vt 0.031250 0.875000
vt 0.031250 0.375000
vt 0.031250 0.812500
vt 0.015625 1.000000
vt 0.000000 0.937500
vt 0.015625 0.000000
vt 0.000000 0.062500
vt 0.000000 0.500000
vt 0.000000 0.437500
vt 0.000000 0.875000
vt 0.000000 0.375000
vt 0.000000 0.812500
vt 0.000000 0.312500
vt 0.000000 0.750000
vt 0.000000 0.250000
vt 0.000000 0.687500
vt 0.000000 0.187500
vt 0.000000 0.625000
vt 0.000000 0.125000
vt 0.000000 0.562500
vt 1.000000 0.687500
vt 1.000000 0.750000
vt 0.968750 0.750000
vt 0.968750 0.687500
vt 1.000000 0.187500
vt 1.000000 0.250000
vt 0.968750 0.250000
vt 0.968750 0.187500
vt 1.000000 0.625000
vt 0.968750 0.625000
vt 1.000000 0.125000
vt 0.968750 0.125000
vt 1.000000 0.562500
vt 0.968750 0.562500
vt 1.000000 0.062500
vt 0.968750 0.062500
vt 1.000000 0.500000
vt 0.968750 0.500000
vt 1.000000 0.937500
vt 0.984375 1.000000
vt 0.968750 0.937500
vt 0.984375 0.000000
vt 1.000000 0.437500
vt 0.968750 0.437500
vt 1.000000 0.875000
vt 0.968750 0.875000
vt 1.000000 0.375000
vt 0.968750 0.375000
vt 1.000000 0.812500
vt 0.968750 0.812500
vt 1.000000 0.312500
vt 0.968750 0.312500
vt 0.937500 0.500000
vt 0.937500 0.437500
vt 0.937500 0.937500
vt 0.937500 0.875000
vt 0.937500 0.375000
vt 0.937500 0.812500
vt 0.937500 0.312500
vt 0.937500 0.750000
vt 0.937500 0.250000
vt 0.937500 0.687500
vt 0.937500 0.187500
vt 0.937500 0.625000
vt 0.937500 0.125000
vt 0.937500 0.562500
vt 0.937500 0.062500
vt 0.953125 1.000000
vt 0.953125 0.000000
vt 0.906250 0.250000
vt 0.906250 0.187500
vt 0.906250 0.687500
vt 0.906250 0.625000
vt 0.906250 0.125000
vt 0.906250 0.562500
vt 0.906250 0.062500
vt 0.906250 0.500000
vt 0.921875 1.000000
vt 0.906250 0.937500
vt 0.921875 0.000000
vt 0.906250 0.437500
vt 0.906250 0.875000
vt 0.906250 0.375000
vt 0.906250 0.812500
vt 0.906250 0.312500
vt 0.906250 0.750000
vt 0.875000 0.937500
vt 0.875000 0.875000
vt 0.875000 0.437500
vt 0.875000 0.375000
vt 0.875000 0.812500
vt 0.875000 0.312500
vt 0.875000 0.750000
vt 0.875000 0.250000
vt 0.875000 0.687500
vt 0.875000 0.187500
vt 0.875000 0.625000
vt 0.875000 0.125000
vt 0.875000 0.562500
vt 0.875000 0.062500
vt 0.875000 0.500000
vt 0.890625 1.000000
vt 0.890625 0.000000
vt 0.843750 0.687500
vt 0.843750 0.625000
vt 0.843750 0.187500
vt 0.843750 0.125000
vt 0.843750 0.562500
vt 0.843750 0.062500
vt 0.843750 0.500000
vt 0.859375 1.000000
vt 0.843750 0.937500
vt 0.859375 0.000000
vt 0.843750 0.437500
vt 0.843750 0.875000
vt 0.843750 0.375000
vt 0.843750 0.812500
vt 0.843750 0.312500
vt 0.843750 0.750000
vt 0.843750 0.250000
vt 0.812500 0.437500
vt 0.812500 0.375000
vt 0.812500 0.875000
vt 0.812500 0.812500
vt 0.812500 0.312500
vt 0.812500 0.750000
vt 0.812500 0.250000
vt 0.812500 0.687500
vt 0.812500 0.187500
vt 0.812500 0.625000
vt 0.812500 0.125000
vt 0.812500 0.562500
vt 0.812500 0.062500
vt 0.812500 0.500000
vt 0.828125 1.000000
vt 0.812500 0.937500
vt 0.828125 0.000000
vt 0.781250 0.187500
vt 0.781250 0.125000
vt 0.781250 0.625000
vt 0.781250 0.562500
vt 0.781250 0.062500
vt 0.781250 0.500000
vt 0.796875 1.000000
vt 0.781250 0.937500
vt 0.796875 0.000000
vt 0.781250 0.437500
vt 0.781250 0.875000
vt 0.781250 0.375000
vt 0.781250 0.812500
vt 0.781250 0.312500
vt 0.781250 0.750000
vt 0.781250 0.250000
vt 0.781250 0.687500
vt 0.765625 1.000000
vt 0.765625 0.000000
s 1
usemtl マテリアル.011
f 1/1/1 475/2/2 8/3/3 9/4/4
f 6/5/5 478/6/6 16/7/7 17/8/8
f 476/9/9 1/1/1 9/4/4 10/10/10
f 479/11/11 6/5/5 17/8/8 18/12/12
f 2/13/13 476/9/9 10/10/10 11/14/14
f 480/15/15 479/11/11 18/12/12 19/16/16
f 477/17/17 2/13/13 11/14/14 12/18/18
f 481/19/19 480/15/15 19/16/16 20/20/20
f 3/21/21 477/17/17 12/18/18 13/22/22
f 482/23/23 481/19/19 20/20/20 21/24/24
f 4/25/25 3/21/21 13/22/22 14/26/26
f 474/27/27 82/28/28 7/29/29
f 308/30/30 482/23/23 21/24/24
f 5/31/31 4/25/25 14/26/26 15/32/32
f 475/2/2 474/27/27 7/29/29 8/3/3
f 478/6/6 5/31/31 15/32/32 16/7/7
f 15/32/32 14/26/26 29/33/33 30/34/34
f 8/3/3 7/29/29 22/35/35 23/36/36
f 16/7/7 15/32/32 30/34/34 31/37/37
f 9/4/4 8/3/3 23/36/36 24/38/38
f 17/8/8 16/7/7 31/37/37 32/39/39
f 10/10/10 9/4/4 24/38/38 25/40/40
f 18/12/12 17/8/8 32/39/39 33/41/41
f 11/14/14 10/10/10 25/40/40 26/42/42
f 19/16/16 18/12/12 33/41/41 34/43/43
f 12/18/18 11/14/14 26/42/42 27/44/44
f 20/20/20 19/16/16 34/43/43 35/45/45
f 13/22/22 12/18/18 27/44/44 28/46/46
f 21/24/24 20/20/20 35/45/45 36/47/47
f 14/26/26 13/22/22 28/46/46 29/33/33
f 7/29/29 82/48/28 22/35/35
f 308/49/30 21/24/24 36/47/47
f 34/43/43 33/41/41 48/50/48 49/51/49
f 27/44/44 26/42/42 41/52/50 42/53/51
f 35/45/45 34/43/43 49/51/49 50/54/52
f 28/46/46 27/44/44 42/53/51 43/55/53
f 36/47/47 35/45/45 50/54/52 51/56/54
f 29/33/33 28/46/46 43/55/53 44/57/55
f 22/35/35 82/58/28 37/59/56
f 308/60/30 36/47/47 51/56/54
f 30/34/34 29/33/33 44/57/55 45/61/57
f 23/36/36 22/35/35 37/59/56 38/62/58
f 31/37/37 30/34/34 45/61/57 46/63/59
f 24/38/38 23/36/36 38/62/58 39/64/60
f 32/39/39 31/37/37 46/63/59 47/65/61
f 25/40/40 24/38/38 39/64/60 40/66/62
f 33/41/41 32/39/39 47/65/61 48/50/48
f 26/42/42 25/40/40 40/66/62 41/52/50
f 46/63/59 45/61/57 60/67/63 61/68/64
f 39/64/60 38/62/58 53/69/65 54/70/66
f 47/65/61 46/63/59 61/68/64 62/71/67
f 40/66/62 39/64/60 54/70/66 55/72/68
f 48/50/48 47/65/61 62/71/67 63/73/69
f 41/52/50 40/66/62 55/72/68 56/74/70
f 49/51/49 48/50/48 63/73/69 64/75/71
f 42/53/51 41/52/50 56/74/70 57/76/72
f 50/54/52 49/51/49 64/75/71 65/77/73
f 43/55/53 42/53/51 57/76/72 58/78/74
f 51/56/54 50/54/52 65/77/73 66/79/75
f 44/57/55 43/55/53 58/78/74 59/80/76
f 37/59/56 82/81/28 52/82/77
f 308/83/30 51/56/54 66/79/75
f 45/61/57 44/57/55 59/80/76 60/67/63
f 38/62/58 37/59/56 52/82/77 53/69/65
f 65/77/73 64/75/71 79/84/78 80/85/79
f 58/78/74 57/76/72 72/86/80 73/87/81
f 66/79/75 65/77/73 80/85/79 81/88/82
f 59/80/76 58/78/74 73/87/81 74/89/83
f 52/82/77 82/90/28 67/91/84
f 308/92/30 66/79/75 81/88/82
f 60/67/63 59/80/76 74/89/83 75/93/85
f 53/69/65 52/82/77 67/91/84 68/94/86
f 61/68/64 60/67/63 75/93/85 76/95/87
f 54/70/66 53/69/65 68/94/86 69/96/88
f 62/71/67 61/68/64 76/95/87 77/97/89
f 55/72/68 54/70/66 69/96/88 70/98/90
f 63/73/69 62/71/67 77/97/89 78/99/91
f 56/74/70 55/72/68 70/98/90 71/100/92
f 64/75/71 63/73/69 78/99/91 79/84/78
f 57/76/72 56/74/70 71/100/92 72/86/80
f 69/96/88 68/94/86 84/101/93 85/102/94
f 77/97/89 76/95/87 92/103/95 93/104/96
f 70/98/90 69/96/88 85/102/94 86/105/97
f 78/99/91 77/97/89 93/104/96 94/106/98
f 71/100/92 70/98/90 86/105/97 87/107/99
f 79/84/78 78/99/91 94/106/98 95/108/100
f 72/86/80 71/100/92 87/107/99 88/109/101
f 80/85/79 79/84/78 95/108/100 96/110/102
f 73/87/81 72/86/80 88/109/101 89/111/103
f 81/88/82 80/85/79 96/110/102 97/112/104
f 74/89/83 73/87/81 89/111/103 90/113/105
f 67/91/84 82/114/28 83/115/106
f 308/116/30 81/88/82 97/112/104
f 75/93/85 74/89/83 90/113/105 91/117/107
f 68/94/86 67/91/84 83/115/106 84/101/93
f 76/95/87 75/93/85 91/117/107 92/103/95
f 89/111/103 88/109/101 103/118/108 104/119/109
f 97/112/104 96/110/102 111/120/110 112/121/111
f 90/113/105 89/111/103 104/119/109 105/122/112
f 83/115/106 82/123/28 98/124/113
f 308/125/30 97/112/104 112/121/111
f 91/117/107 90/113/105 105/122/112 106/126/114
f 84/101/93 83/115/106 98/124/113 99/127/115
f 92/103/95 91/117/107 106/126/114 107/128/116
f 85/102/94 84/101/93 99/127/115 100/129/117
f 93/104/96 92/103/95 107/128/116 108/130/118
f 86/105/97 85/102/94 100/129/117 101/131/119
f 94/106/98 93/104/96 108/130/118 109/132/120
f 87/107/99 86/105/97 101/131/119 102/133/121
f 95/108/100 94/106/98 109/132/120 110/134/122
f 88/109/101 87/107/99 102/133/121 103/118/108
f 96/110/102 95/108/100 110/134/122 111/120/110
f 108/130/118 107/128/116 122/135/123 123/136/124
f 101/131/119 100/129/117 115/137/125 116/138/126
f 109/132/120 108/130/118 123/136/124 124/139/127
f 102/133/121 101/131/119 116/138/126 117/140/128
f 110/134/122 109/132/120 124/139/127 125/141/129
f 103/118/108 102/133/121 117/140/128 118/142/130
f 111/120/110 110/134/122 125/141/129 126/143/131
f 104/119/109 103/118/108 118/142/130 119/144/132
f 112/121/111 111/120/110 126/143/131 127/145/133
f 105/122/112 104/119/109 119/144/132 120/146/134
f 98/124/113 82/147/28 113/148/135
f 308/149/30 112/121/111 127/145/133
f 106/126/114 105/122/112 120/146/134 121/150/136
f 99/127/115 98/124/113 113/148/135 114/151/137
f 107/128/116 106/126/114 121/150/136 122/135/123
f 100/129/117 99/127/115 114/151/137 115/137/125
f 127/145/133 126/143/131 141/152/138 142/153/139
f 120/146/134 119/144/132 134/154/140 135/155/141
f 113/148/135 82/156/28 128/157/142
f 308/158/30 127/145/133 142/153/139
f 121/150/136 120/146/134 135/155/141 136/159/143
f 114/151/137 113/148/135 128/157/142 129/160/144
f 122/135/123 121/150/136 136/159/143 137/161/145
f 115/137/125 114/151/137 129/160/144 130/162/146
f 123/136/124 122/135/123 137/161/145 138/163/147
f 116/138/126 115/137/125 130/162/146 131/164/148
f 124/139/127 123/136/124 138/163/147 139/165/149
f 117/140/128 116/138/126 131/164/148 132/166/150
f 125/141/129 124/139/127 139/165/149 140/167/151
f 118/142/130 117/140/128 132/166/150 133/168/152
f 126/143/131 125/141/129 140/167/151 141/152/138
f 119/144/132 118/142/130 133/168/152 134/154/140
f 131/164/148 130/162/146 145/169/153 146/170/154
f 139/165/149 138/163/147 153/171/155 154/172/156
f 132/166/150 131/164/148 146/170/154 147/173/157
f 140/167/151 139/165/149 154/172/156 155/174/158
f 133/168/152 132/166/150 147/173/157 148/175/159
f 141/152/138 140/167/151 155/174/158 156/176/160
f 134/154/140 133/168/152 148/175/159 149/177/161
f 142/153/139 141/152/138 156/176/160 157/178/162
f 135/155/141 134/154/140 149/177/161 150/179/163
f 128/157/142 82/180/28 143/181/164
f 308/182/30 142/153/139 157/178/162
f 136/159/143 135/155/141 150/179/163 151/183/165
f 129/160/144 128/157/142 143/181/164 144/184/166
f 137/161/145 136/159/143 151/183/165 152/185/167
f 130/162/146 129/160/144 144/184/166 145/169/153
f 138/163/147 137/161/145 152/185/167 153/171/155
f 150/179/163 149/177/161 164/186/168 165/187/169
f 143/181/164 82/188/28 158/189/170
f 308/190/30 157/178/162 172/191/171
f 151/183/165 150/179/163 165/187/169 166/192/172
f 144/184/166 143/181/164 158/189/170 159/193/173
f 152/185/167 151/183/165 166/192/172 167/194/174
f 145/169/153 144/184/166 159/193/173 160/195/175
f 153/171/155 152/185/167 167/194/174 168/196/176
f 146/170/154 145/169/153 160/195/175 161/197/177
f 154/172/156 153/171/155 168/196/176 169/198/178
f 147/173/157 146/170/154 161/197/177 162/199/179
f 155/174/158 154/172/156 169/198/178 170/200/180
f 148/175/159 147/173/157 162/199/179 163/201/181
f 156/176/160 155/174/158 170/200/180 171/202/182
f 149/177/161 148/175/159 163/201/181 164/186/168
f 157/178/162 156/176/160 171/202/182 172/191/171
f 169/198/178 168/196/176 183/203/183 184/204/184
f 162/199/179 161/197/177 176/205/185 177/206/186
f 170/200/180 169/198/178 184/204/184 185/207/187
f 163/201/181 162/199/179 177/206/186 178/208/188
f 171/202/182 170/200/180 185/207/187 186/209/189
f 164/186/168 163/201/181 178/208/188 179/210/190
f 172/191/171 171/202/182 186/209/189 187/211/191
f 165/187/169 164/186/168 179/210/190 180/212/192
f 158/189/170 82/213/28 173/214/193
f 308/215/30 172/191/171 187/211/191
f 166/192/172 165/187/169 180/212/192 181/216/194
f 159/193/173 158/189/170 173/214/193 174/217/195
f 167/194/174 166/192/172 181/216/194 182/218/196
f 160/195/175 159/193/173 174/217/195 175/219/197
f 168/196/176 167/194/174 182/218/196 183/203/183
f 161/197/177 160/195/175 175/219/197 176/205/185
f 308/220/30 187/211/191 202/221/198
f 181/216/194 180/212/192 195/222/199 196/223/200
f 174/217/195 173/214/193 188/224/201 189/225/202
f 182/218/196 181/216/194 196/223/200 197/226/203
f 175/219/197 174/217/195 189/225/202 190/227/204
f 183/203/183 182/218/196 197/226/203 198/228/205
f 176/205/185 175/219/197 190/227/204 191/229/206
f 184/204/184 183/203/183 198/228/205 199/230/207
f 177/206/186 176/205/185 191/229/206 192/231/208
f 185/207/187 184/204/184 199/230/207 200/232/209
f 178/208/188 177/206/186 192/231/208 193/233/210
f 186/209/189 185/207/187 200/232/209 201/234/211
f 179/210/190 178/208/188 193/233/210 194/235/212
f 187/211/191 186/209/189 201/234/211 202/221/198
f 180/212/192 179/210/190 194/235/212 195/222/199
f 173/214/193 82/236/28 188/224/201
f 200/232/209 199/230/207 214/237/213 215/238/214
f 193/233/210 192/231/208 207/239/215 208/240/216
f 201/234/211 200/232/209 215/238/214 216/241/217
f 194/235/212 193/233/210 208/240/216 209/242/218
f 202/221/198 201/234/211 216/241/217 217/243/219
f 195/222/199 194/235/212 209/242/218 210/244/220
f 188/224/201 82/245/28 203/246/221
f 308/247/30 202/221/198 217/243/219
f 196/223/200 195/222/199 210/244/220 211/248/222
f 189/225/202 188/224/201 203/246/221 204/249/223
f 197/226/203 196/223/200 211/248/222 212/250/224
f 190/227/204 189/225/202 204/249/223 205/251/225
f 198/228/205 197/226/203 212/250/224 213/252/226
f 191/229/206 190/227/204 205/251/225 206/253/227
f 199/230/207 198/228/205 213/252/226 214/237/213
f 192/231/208 191/229/206 206/253/227 207/239/215
f 204/249/223 203/246/221 218/254/228 219/255/229
f 212/250/224 211/248/222 226/256/230 227/257/231
f 205/251/225 204/249/223 219/255/229 220/258/232
f 213/252/226 212/250/224 227/257/231 228/259/233
f 206/253/227 205/251/225 220/258/232 221/260/234
f 214/237/213 213/252/226 228/259/233 229/261/235
f 207/239/215 206/253/227 221/260/234 222/262/236
f 215/238/214 214/237/213 229/261/235 230/263/237
f 208/240/216 207/239/215 222/262/236 223/264/238
f 216/241/217 215/238/214 230/263/237 231/265/239
f 209/242/218 208/240/216 223/264/238 224/266/240
f 217/243/219 216/241/217 231/265/239 232/267/241
f 210/244/220 209/242/218 224/266/240 225/268/242
f 203/246/221 82/269/28 218/254/228
f 308/270/30 217/243/219 232/267/241
f 211/248/222 210/244/220 225/268/242 226/256/230
f 223/264/238 222/262/236 237/271/243 238/272/244
f 231/265/239 230/263/237 245/273/245 246/274/246
f 224/266/240 223/264/238 238/272/244 239/275/247
f 232/267/241 231/265/239 246/274/246 247/276/248
f 225/268/242 224/266/240 239/275/247 240/277/249
f 218/254/228 82/278/28 233/279/250
f 308/280/30 232/267/241 247/276/248
f 226/256/230 225/268/242 240/277/249 241/281/251
f 219/255/229 218/254/228 233/279/250 234/282/252
f 227/257/231 226/256/230 241/281/251 242/283/253
f 220/258/232 219/255/229 234/282/252 235/284/254
f 228/259/233 227/257/231 242/283/253 243/285/255
f 221/260/234 220/258/232 235/284/254 236/286/256
f 229/261/235 228/259/233 243/285/255 244/287/257
f 222/262/236 221/260/234 236/286/256 237/271/243
f 230/263/237 229/261/235 244/287/257 245/273/245
f 242/283/253 241/281/251 256/288/258 257/289/259
f 235/284/254 234/282/252 249/290/260 250/291/261
f 243/285/255 242/283/253 257/289/259 258/292/262
f 236/286/256 235/284/254 250/291/261 251/293/263
f 244/287/257 243/285/255 258/292/262 259/294/264
f 237/271/243 236/286/256 251/293/263 252/295/265
f 245/273/245 244/287/257 259/294/264 260/296/266
f 238/272/244 237/271/243 252/295/265 253/297/267
f 246/274/246 245/273/245 260/296/266 261/298/268
f 239/275/247 238/272/244 253/297/267 254/299/269
f 247/276/248 246/274/246 261/298/268 262/300/270
f 240/277/249 239/275/247 254/299/269 255/301/271
f 233/279/250 82/302/28 248/303/272
f 308/304/30 247/276/248 262/300/270
f 241/281/251 240/277/249 255/301/271 256/288/258
f 234/282/252 233/279/250 248/303/272 249/290/260
f 261/298/268 260/296/266 275/305/273 276/306/274
f 254/299/269 253/297/267 268/307/275 269/308/276
f 262/300/270 261/298/268 276/306/274 277/309/277
f 255/301/271 254/299/269 269/308/276 270/310/278
f 248/303/272 82/311/28 263/312/279
f 308/313/30 262/300/270 277/309/277
f 256/288/258 255/301/271 270/310/278 271/314/280
f 249/290/260 248/303/272 263/312/279 264/315/281
f 257/289/259 256/288/258 271/314/280 272/316/282
f 250/291/261 249/290/260 264/315/281 265/317/283
f 258/292/262 257/289/259 272/316/282 273/318/284
f 251/293/263 250/291/261 265/317/283 266/319/285
f 259/294/264 258/292/262 273/318/284 274/320/286
f 252/295/265 251/293/263 266/319/285 267/321/287
f 260/296/266 259/294/264 274/320/286 275/305/273
f 253/297/267 252/295/265 267/321/287 268/307/275
f 265/317/283 264/315/281 279/322/288 280/323/289
f 273/318/284 272/316/282 287/324/290 288/325/291
f 266/319/285 265/317/283 280/323/289 281/326/292
f 274/320/286 273/318/284 288/325/291 289/327/293
f 267/321/287 266/319/285 281/326/292 282/328/294
f 275/305/273 274/320/286 289/327/293 290/329/295
f 268/307/275 267/321/287 282/328/294 283/330/296
f 276/306/274 275/305/273 290/329/295 291/331/297
f 269/308/276 268/307/275 283/330/296 284/332/298
f 277/309/277 276/306/274 291/331/297 292/333/299
f 270/310/278 269/308/276 284/332/298 285/334/300
f 263/312/279 82/335/28 278/336/301
f 308/337/30 277/309/277 292/333/299
f 271/314/280 270/310/278 285/334/300 286/338/302
f 264/315/281 263/312/279 278/336/301 279/322/288
f 272/316/282 271/314/280 286/338/302 287/324/290
f 284/332/298 283/330/296 298/339/303 299/340/304
f 292/333/299 291/331/297 306/341/305 307/342/306
f 285/334/300 284/332/298 299/340/304 300/343/307
f 278/336/301 82/344/28 293/345/308
f 308/346/30 292/333/299 307/342/306
f 286/338/302 285/334/300 300/343/307 301/347/309
f 279/322/288 278/336/301 293/345/308 294/348/310
f 287/324/290 286/338/302 301/347/309 302/349/311
f 280/323/289 279/322/288 294/348/310 295/350/312
f 288/325/291 287/324/290 302/349/311 303/351/313
f 281/326/292 280/323/289 295/350/312 296/352/314
f 289/327/293 288/325/291 303/351/313 304/353/315
f 282/328/294 281/326/292 296/352/314 297/354/316
f 290/329/295 289/327/293 304/353/315 305/355/317
f 283/330/296 282/328/294 297/354/316 298/339/303
f 291/331/297 290/329/295 305/355/317 306/341/305
f 303/351/313 302/349/311 318/356/318 319/357/319
f 296/352/314 295/350/312 311/358/320 312/359/321
f 304/353/315 303/351/313 319/357/319 320/360/322
f 297/354/316 296/352/314 312/359/321 313/361/323
f 305/355/317 304/353/315 320/360/322 321/362/324
f 298/339/303 297/354/316 313/361/323 314/363/325
f 306/341/305 305/355/317 321/362/324 322/364/326
f 299/340/304 298/339/303 314/363/325 315/365/327
f 307/342/306 306/341/305 322/364/326 323/366/328
f 300/343/307 299/340/304 315/365/327 316/367/329
f 293/345/308 82/368/28 309/369/330
f 308/370/30 307/342/306 323/366/328
f 301/347/309 300/343/307 316/367/329 317/371/331
f 294/348/310 293/345/308 309/369/330 310/372/332
f 302/349/311 301/347/309 317/371/331 318/356/318
f 295/350/312 294/348/310 310/372/332 311/358/320
f 323/366/328 322/364/326 337/373/333 338/374/334
f 316/367/329 315/365/327 330/375/335 331/376/336
f 309/369/330 82/377/28 324/378/337
f 308/379/30 323/366/328 338/374/334
f 317/371/331 316/367/329 331/376/336 332/380/338
f 310/372/332 309/369/330 324/378/337 325/381/339
f 318/356/318 317/371/331 332/380/338 333/382/340
f 311/358/320 310/372/332 325/381/339 326/383/341
f 319/357/319 318/356/318 333/382/340 334/384/342
f 312/359/321 311/358/320 326/383/341 327/385/343
f 320/360/322 319/357/319 334/384/342 335/386/344
f 313/361/323 312/359/321 327/385/343 328/387/345
f 321/362/324 320/360/322 335/386/344 336/388/346
f 314/363/325 313/361/323 328/387/345 329/389/347
f 322/364/326 321/362/324 336/388/346 337/373/333
f 315/365/327 314/363/325 329/389/347 330/375/335
f 335/386/344 334/384/342 349/390/348 350/391/349
f 328/387/345 327/385/343 342/392/350 343/393/351
f 336/388/346 335/386/344 350/391/349 351/394/352
f 329/389/347 328/387/345 343/393/351 344/395/353
f 337/373/333 336/388/346 351/394/352 352/396/354
f 330/375/335 329/389/347 344/395/353 345/397/355
f 338/374/334 337/373/333 352/396/354 353/398/356
f 331/376/336 330/375/335 345/397/355 346/399/357
f 324/378/337 82/400/28 339/401/358
f 308/402/30 338/374/334 353/398/356
f 332/380/338 331/376/336 346/399/357 347/403/359
f 325/381/339 324/378/337 339/401/358 340/404/360
f 333/382/340 332/380/338 347/403/359 348/405/361
f 326/383/341 325/381/339 340/404/360 341/406/362
f 334/384/342 333/382/340 348/405/361 349/390/348
f 327/385/343 326/383/341 341/406/362 342/392/350
f 339/401/358 82/407/28 354/408/363
f 308/409/30 353/398/356 368/410/364
f 347/403/359 346/399/357 361/411/365 362/412/366
f 340/404/360 339/401/358 354/408/363 355/413/367
f 348/405/361 347/403/359 362/412/366 363/414/368
f 341/406/362 340/404/360 355/413/367 356/415/369
f 349/390/348 348/405/361 363/414/368 364/416/370
f 342/392/350 341/406/362 356/415/369 357/417/371
f 350/391/349 349/390/348 364/416/370 365/418/372
f 343/393/351 342/392/350 357/417/371 358/419/373
f 351/394/352 350/391/349 365/418/372 366/420/374
f 344/395/353 343/393/351 358/419/373 359/421/375
f 352/396/354 351/394/352 366/420/374 367/422/376
f 345/397/355 344/395/353 359/421/375 360/423/377
f 353/398/356 352/396/354 367/422/376 368/410/364
f 346/399/357 345/397/355 360/423/377 361/411/365
f 358/424/373 357/425/371 372/426/378 373/427/379
f 366/428/374 365/429/372 380/430/380 381/431/381
f 359/432/375 358/424/373 373/427/379 374/433/382
f 367/434/376 366/428/374 381/431/381 382/435/383
f 360/436/377 359/432/375 374/433/382 375/437/384
f 368/438/364 367/434/376 382/435/383 383/439/385
f 361/440/365 360/436/377 375/437/384 376/441/386
f 354/442/363 82/443/28 369/444/387
f 308/445/30 368/438/364 383/439/385
f 362/446/366 361/440/365 376/441/386 377/447/388
f 355/448/367 354/442/363 369/444/387 370/449/389
f 363/450/368 362/446/366 377/447/388 378/451/390
f 356/452/369 355/448/367 370/449/389 371/453/391
f 364/454/370 363/450/368 378/451/390 379/455/392
f 357/425/371 356/452/369 371/453/391 372/426/378
f 365/429/372 364/454/370 379/455/392 380/430/380
f 377/447/388 376/441/386 391/456/393 392/457/394
f 370/449/389 369/444/387 384/458/395 385/459/396
f 378/451/390 377/447/388 392/457/394 393/460/397
f 371/453/391 370/449/389 385/459/396 386/461/398
f 379/455/392 378/451/390 393/460/397 394/462/399
f 372/426/378 371/453/391 386/461/398 387/463/400
f 380/430/380 379/455/392 394/462/399 395/464/401
f 373/427/379 372/426/378 387/463/400 388/465/402
f 381/431/381 380/430/380 395/464/401 396/466/403
f 374/433/382 373/427/379 388/465/402 389/467/404
f 382/435/383 381/431/381 396/466/403 397/468/405
f 375/437/384 374/433/382 389/467/404 390/469/406
f 383/439/385 382/435/383 397/468/405 398/470/407
f 376/441/386 375/437/384 390/469/406 391/456/393
f 369/444/387 82/471/28 384/458/395
f 308/472/30 383/439/385 398/470/407
f 396/466/403 395/464/401 410/473/408 411/474/409
f 389/467/404 388/465/402 403/475/410 404/476/411
f 397/468/405 396/466/403 411/474/409 412/477/412
f 390/469/406 389/467/404 404/476/411 405/478/413
f 398/470/407 397/468/405 412/477/412 413/479/414
f 391/456/393 390/469/406 405/478/413 406/480/415
f 384/458/395 82/481/28 399/482/416
f 308/483/30 398/470/407 413/479/414
f 392/457/394 391/456/393 406/480/415 407/484/417
f 385/459/396 384/458/395 399/482/416 400/485/418
f 393/460/397 392/457/394 407/484/417 408/486/419
f 386/461/398 385/459/396 400/485/418 401/487/420
f 394/462/399 393/460/397 408/486/419 409/488/421
f 387/463/400 386/461/398 401/487/420 402/489/422
f 395/464/401 394/462/399 409/488/421 410/473/408
f 388/465/402 387/463/400 402/489/422 403/475/410
f 400/485/418 399/482/416 414/490/423 415/491/424
f 408/486/419 407/484/417 422/492/425 423/493/426
f 401/487/420 400/485/418 415/491/424 416/494/427
f 409/488/421 408/486/419 423/493/426 424/495/428
f 402/489/422 401/487/420 416/494/427 417/496/429
f 410/473/408 409/488/421 424/495/428 425/497/430
f 403/475/410 402/489/422 417/496/429 418/498/431
f 411/474/409 410/473/408 425/497/430 426/499/432
f 404/476/411 403/475/410 418/498/431 419/500/433
f 412/477/412 411/474/409 426/499/432 427/501/434
f 405/478/413 404/476/411 419/500/433 420/502/435
f 413/479/414 412/477/412 427/501/434 428/503/436
f 406/480/415 405/478/413 420/502/435 421/504/437
f 399/482/416 82/505/28 414/490/423
f 308/506/30 413/479/414 428/503/436
f 407/484/417 406/480/415 421/504/437 422/492/425
f 419/500/433 418/498/431 433/507/438 434/508/439
f 427/501/434 426/499/432 441/509/440 442/510/441
f 420/502/435 419/500/433 434/508/439 435/511/442
f 428/503/436 427/501/434 442/510/441 443/512/443
f 421/504/437 420/502/435 435/511/442 436/513/444
f 414/490/423 82/514/28 429/515/445
f 308/516/30 428/503/436 443/512/443
f 422/492/425 421/504/437 436/513/444 437/517/446
f 415/491/424 414/490/423 429/515/445 430/518/447
f 423/493/426 422/492/425 437/517/446 438/519/448
f 416/494/427 415/491/424 430/518/447 431/520/449
f 424/495/428 423/493/426 438/519/448 439/521/450
f 417/496/429 416/494/427 431/520/449 432/522/451
f 425/497/430 424/495/428 439/521/450 440/523/452
f 418/498/431 417/496/429 432/522/451 433/507/438
f 426/499/432 425/497/430 440/523/452 441/509/440
f 438/519/448 437/517/446 452/524/453 453/525/454
f 431/520/449 430/518/447 445/526/455 446/527/456
f 439/521/450 438/519/448 453/525/454 454/528/457
f 432/522/451 431/520/449 446/527/456 447/529/458
f 440/523/452 439/521/450 454/528/457 455/530/459
f 433/507/438 432/522/451 447/529/458 448/531/460
f 441/509/440 440/523/452 455/530/459 456/532/461
f 434/508/439 433/507/438 448/531/460 449/533/462
f 442/510/441 441/509/440 456/532/461 457/534/463
f 435/511/442 434/508/439 449/533/462 450/535/464
f 443/512/443 442/510/441 457/534/463 458/536/465
f 436/513/444 435/511/442 450/535/464 451/537/466
f 429/515/445 82/538/28 444/539/467
f 308/540/30 443/512/443 458/536/465
f 437/517/446 436/513/444 451/537/466 452/524/453
f 430/518/447 429/515/445 444/539/467 445/526/455
f 457/534/463 456/532/461 471/541/468 472/542/469
f 450/535/464 449/533/462 464/543/470 465/544/471
f 458/536/465 457/534/463 472/542/469 473/545/472
f 451/537/466 450/535/464 465/544/471 466/546/473
f 444/539/467 82/547/28 459/548/474
f 308/549/30 458/536/465 473/545/472
f 452/524/453 451/537/466 466/546/473 467/550/475
f 445/526/455 444/539/467 459/548/474 460/551/476
f 453/525/454 452/524/453 467/550/475 468/552/477
f 446/527/456 445/526/455 460/551/476 461/553/478
f 454/528/457 453/525/454 468/552/477 469/554/479
f 447/529/458 446/527/456 461/553/478 462/555/480
f 455/530/459 454/528/457 469/554/479 470/556/481
f 448/531/460 447/529/458 462/555/480 463/557/482
f 456/532/461 455/530/459 470/556/481 471/541/468
f 449/533/462 448/531/460 463/557/482 464/543/470
f 469/554/479 468/552/477 478/6/6 6/5/5
f 462/555/480 461/553/478 1/1/1 476/9/9
f 470/556/481 469/554/479 6/5/5 479/11/11
f 463/557/482 462/555/480 476/9/9 2/13/13
f 471/541/468 470/556/481 479/11/11 480/15/15
f 464/543/470 463/557/482 2/13/13 477/17/17
f 472/542/469 471/541/468 480/15/15 481/19/19
f 465/544/471 464/543/470 477/17/17 3/21/21
f 473/545/472 472/542/469 481/19/19 482/23/23
f 466/546/473 465/544/471 3/21/21 4/25/25
f 459/548/474 82/558/28 474/27/27
f 308/559/30 473/545/472 482/23/23
f 467/550/475 466/546/473 4/25/25 5/31/31
f 460/551/476 459/548/474 474/27/27 475/2/2
f 468/552/477 467/550/475 5/31/31 478/6/6
f 461/553/478 460/551/476 475/2/2 1/1/1
