# Blender 4.3.2
# www.blender.org
mtllib stage2.mtl
o 立方体.002
v 100.478210 1.000039 100.000000
v -99.521767 1.000005 100.000000
v 100.478210 0.999995 -100.000000
v 100.478210 -0.999963 100.000000
v 100.478210 -1.000008 -100.000000
v -99.521767 -0.999990 100.000000
v -99.521774 -1.000041 -99.999992
v -99.521774 0.999961 -99.999992
v -56.548325 22.943180 -54.815815
v -56.548325 22.943176 -64.815811
v -56.548325 24.159515 -54.815815
v -46.548325 22.943180 -54.815815
v -46.548325 22.943176 -64.815811
v -46.548325 24.159515 -54.815815
v -46.548325 24.159512 -64.815811
v -56.548325 24.159512 -64.815811
v -22.224369 1.000000 5.123997
v -22.224369 0.999998 -6.875999
v -10.224373 1.000000 5.123997
v -22.224369 7.000000 5.123997
v -22.224369 7.000000 -6.875999
v -10.224373 7.000000 5.123997
v -10.224373 7.000000 -6.875999
v -10.224373 0.999998 -6.875999
v -38.769409 1.000000 5.123997
v -38.769409 0.999998 -6.875999
v -26.769409 1.000000 5.123997
v -38.769409 11.000001 5.123995
v -38.769409 10.999999 -6.876001
v -26.769409 11.000001 5.123995
v -26.769409 10.999999 -6.876001
v -26.769409 0.999998 -6.875999
v -38.769409 1.000000 5.123997
v -38.769409 0.999998 -6.875999
v -26.769409 1.000000 5.123997
v -38.769409 11.000001 5.123995
v -38.769409 10.999999 -6.876001
v -26.769409 11.000001 5.123995
v -26.769409 10.999999 -6.876001
v -26.769409 0.999998 -6.875999
v -75.826889 1.000000 5.123997
v -75.826889 0.999998 -6.875999
v -45.826897 1.000000 5.123997
v -75.826889 11.000001 5.123995
v -75.826889 10.999999 -6.876001
v -45.826897 11.000001 5.123995
v -45.826897 10.999999 -6.876001
v -45.826897 0.999998 -6.875999
v -75.826889 1.000004 22.794575
v -75.826889 1.000002 10.794567
v -45.826897 1.000004 22.794575
v -75.826889 11.000005 22.794575
v -75.826889 11.000003 10.794565
v -45.826897 11.000005 22.794575
v -45.826897 11.000003 10.794565
v -45.826897 1.000002 10.794567
v -75.826889 1.000006 42.745815
v -75.826889 1.000004 30.745800
v -45.826897 1.000006 42.745815
v -75.826889 11.000007 42.745815
v -75.826889 11.000005 30.745800
v -45.826897 11.000007 42.745815
v -45.826897 11.000005 30.745800
v -45.826897 1.000004 30.745800
v -41.890274 -10.538403 42.372368
v -41.890274 -10.538404 30.372362
v -25.890274 -10.538403 42.372368
v -41.890274 39.069958 42.372360
v -41.890274 39.069958 30.372355
v -25.890274 39.069958 42.372360
v -25.890274 39.069958 30.372355
v -25.890274 -10.538404 30.372362
v -3.026955 4.373349 42.372372
v -3.026955 4.373347 30.372364
v 55.864731 4.373349 42.372372
v -3.026955 14.373346 42.372372
v -3.026955 14.373345 30.372360
v 55.864731 14.373346 42.372372
v 55.864731 14.373345 30.372360
v 55.864731 4.373347 30.372364
v 3.375862 4.373347 18.481236
v 3.375862 4.373345 6.481226
v 51.525578 4.373347 18.481236
v 3.375862 14.373344 18.481232
v 3.375862 14.373344 6.481226
v 51.525578 14.373344 18.481232
v 51.525578 14.373344 6.481226
v 51.525578 4.373345 6.481226
v -56.548321 22.943184 -36.864170
v -56.548321 22.943180 -46.864170
v -46.548321 22.943184 -36.864170
v -56.548321 24.159519 -36.864170
v -56.548321 24.159515 -46.864170
v -46.548321 24.159519 -36.864170
v -46.548321 24.159515 -46.864170
v -46.548321 22.943180 -46.864170
v -56.548321 22.943184 -20.355564
v -56.548321 22.943184 -30.355562
v -46.548321 22.943184 -20.355564
v -56.548321 24.159519 -20.355564
v -56.548321 24.159519 -30.355562
v -46.548321 24.159519 -20.355564
v -46.548321 24.159519 -30.355562
v -46.548321 22.943184 -30.355562
v -56.548321 22.943188 -3.397774
v -56.548321 22.943184 -13.397774
v -46.548321 22.943188 -3.397774
v -56.548321 24.159523 -3.397774
v -56.548321 24.159519 -13.397774
v -46.548321 24.159523 -3.397774
v -46.548321 24.159519 -13.397774
v -46.548321 22.943184 -13.397774
v -38.036705 22.943188 -3.397774
v -38.036705 22.943184 -13.397774
v -28.036703 22.943188 -3.397774
v -38.036705 24.159523 -3.397774
v -38.036705 24.159519 -13.397774
v -28.036703 24.159523 -3.397774
v -28.036703 24.159519 -13.397774
v -28.036703 22.943184 -13.397774
v -19.639223 22.943188 -3.397774
v -19.639223 22.943184 -13.397774
v -9.639225 22.943188 -3.397774
v -19.639223 24.159523 -3.397774
v -19.639223 24.159519 -13.397774
v -9.639225 24.159523 -3.397774
v -9.639225 24.159519 -13.397774
v -9.639225 22.943184 -13.397774
v -0.321835 22.943188 -3.397774
v -0.321835 22.943184 -13.397774
v 9.678165 22.943188 -3.397774
v -0.321835 24.159523 -3.397774
v -0.321835 24.159519 -13.397774
v 9.678165 24.159523 -3.397774
v 9.678165 24.159519 -13.397774
v 9.678165 22.943184 -13.397774
v 17.321789 22.943188 -3.397774
v 17.321789 22.943184 -13.397774
v 27.321789 22.943188 -3.397774
v 17.321789 24.159523 -3.397774
v 17.321789 24.159519 -13.397774
v 27.321789 24.159523 -3.397774
v 27.321789 24.159519 -13.397774
v 27.321789 22.943184 -13.397774
v 34.995144 22.943188 -3.397774
v 34.995144 22.943184 -13.397774
v 44.995144 22.943188 -3.397774
v 34.995144 24.159523 -3.397774
v 34.995144 24.159519 -13.397774
v 44.995144 24.159523 -3.397774
v 44.995144 24.159519 -13.397774
v 44.995144 22.943184 -13.397774
v 52.350674 22.943188 -3.397774
v 52.350674 22.943184 -13.397774
v 62.350674 22.943188 -3.397774
v 52.350674 24.159523 -3.397774
v 52.350674 24.159519 -13.397774
v 62.350674 24.159523 -3.397774
v 62.350674 24.159519 -13.397774
v 62.350674 22.943184 -13.397774
v 52.350674 22.943184 -18.408157
v 52.350674 22.943184 -28.408157
v 62.350674 22.943184 -18.408157
v 52.350674 24.159519 -18.408157
v 52.350674 24.159519 -28.408157
v 62.350674 24.159519 -18.408157
v 62.350674 24.159519 -28.408157
v 62.350674 22.943184 -28.408157
v 52.350674 22.943184 -33.752388
v 52.350674 22.943180 -43.752388
v 62.350674 22.943184 -33.752388
v 52.350674 24.159519 -33.752388
v 52.350674 24.159515 -43.752388
v 62.350674 24.159519 -33.752388
v 62.350674 24.159515 -43.752388
v 62.350674 22.943180 -43.752388
v 52.350674 22.943180 -50.120167
v 52.350674 22.943180 -60.120167
v 62.350674 22.943180 -50.120167
v 52.350674 24.159515 -50.120167
v 52.350674 24.159515 -60.120167
v 62.350674 24.159515 -50.120167
v 62.350674 24.159515 -60.120167
v 62.350674 22.943180 -60.120167
v 42.963619 22.943176 -64.140236
v 42.963619 22.943176 -74.140236
v 52.963619 22.943176 -64.140236
v 42.963619 24.159512 -64.140236
v 42.963619 24.159512 -74.140236
v 52.963619 24.159512 -64.140236
v 52.963619 24.159512 -74.140236
v 52.963619 22.943176 -74.140236
v -0.999989 -1.000002 1.000000
v -0.999989 -1.000002 -0.999996
v -0.999989 1.000000 1.000000
v 1.000008 -1.000002 1.000000
v 1.000008 -1.000002 -0.999996
v 1.000008 1.000000 1.000000
v 1.000008 1.000000 -0.999996
v -0.999989 1.000000 -0.999996
v 67.059967 1.000002 14.359409
v 67.059967 1.000000 4.359409
v 67.059967 29.000004 14.359406
v 77.059967 1.000002 14.359409
v 77.059967 1.000000 4.359409
v 77.059967 29.000004 14.359406
v 77.059967 29.000000 4.359404
v 67.059967 29.000000 4.359404
v 67.059967 1.000006 34.676266
v 67.059967 1.000004 24.676266
v 67.059967 29.000004 34.676258
v 77.059967 1.000006 34.676266
v 77.059967 1.000004 24.676266
v 77.059967 29.000004 34.676258
v 77.059967 29.000004 24.676262
v 67.059967 29.000004 24.676262
v 67.083511 29.000004 34.452305
v 67.083511 29.000004 32.452305
v 67.083511 31.000006 34.452305
v 69.083527 29.000004 34.452305
v 69.083527 29.000004 32.452305
v 69.083527 31.000006 34.452305
v 69.083527 31.000006 32.452305
v 67.083511 31.000006 32.452305
v 67.083511 29.000008 38.875622
v 67.083511 29.000004 36.875614
v 67.083511 31.000010 38.875622
v 69.083527 29.000008 38.875622
v 69.083527 29.000004 36.875614
v 69.083527 31.000010 38.875622
v 69.083527 31.000006 36.875614
v 67.083511 31.000006 36.875614
v 67.083511 29.000008 43.088963
v 67.083511 29.000008 41.088955
v 67.083511 31.000010 43.088963
v 69.083527 29.000008 43.088963
v 69.083527 29.000008 41.088955
v 69.083527 31.000010 43.088963
v 69.083527 31.000010 41.088955
v 67.083511 31.000010 41.088955
v 67.083511 29.000008 47.603191
v 67.083511 29.000008 45.603184
v 67.083511 31.000010 47.603191
v 69.083527 29.000008 47.603191
v 69.083527 29.000008 45.603184
v 69.083527 31.000010 47.603191
v 69.083527 31.000010 45.603184
v 67.083511 31.000010 45.603184
v 67.083511 29.000008 51.564091
v 67.083511 29.000008 49.564075
v 67.083511 31.000010 51.564091
v 69.083527 29.000008 51.564091
v 69.083527 29.000008 49.564075
v 69.083527 31.000010 51.564091
v 69.083527 31.000010 49.564075
v 67.083511 31.000010 49.564075
v 62.895435 29.000008 51.564091
v 62.895435 29.000008 49.564075
v 62.895435 31.000010 51.564091
v 64.895447 29.000008 51.564091
v 64.895447 29.000008 49.564075
v 64.895447 31.000010 51.564091
v 64.895447 31.000010 49.564075
v 62.895435 31.000010 49.564075
v 58.630795 29.000008 51.564091
v 58.630795 29.000008 49.564075
v 58.630795 31.000010 51.564091
v 60.630802 29.000008 51.564091
v 60.630802 29.000008 49.564075
v 60.630802 31.000010 51.564091
v 60.630802 31.000010 49.564075
v 58.630795 31.000010 49.564075
v 54.727520 29.000008 51.564091
v 54.727520 29.000008 49.564075
v 54.727520 31.000010 51.564091
v 56.727528 29.000008 51.564091
v 56.727528 29.000008 49.564075
v 56.727528 31.000010 51.564091
v 56.727528 31.000010 49.564075
v 54.727520 31.000010 49.564075
v 50.830578 29.000008 51.564091
v 50.830578 29.000008 49.564075
v 50.830578 31.000010 51.564091
v 52.830585 29.000008 51.564091
v 52.830585 29.000008 49.564075
v 52.830585 31.000010 51.564091
v 52.830585 31.000010 49.564075
v 50.830578 31.000010 49.564075
v 47.101696 29.000008 51.564091
v 47.101696 29.000008 49.564075
v 47.101696 31.000010 51.564091
v 49.101696 29.000008 51.564091
v 49.101696 29.000008 49.564075
v 49.101696 31.000010 51.564091
v 49.101696 31.000010 49.564075
v 47.101696 31.000010 49.564075
v 39.410534 28.269527 53.564083
v 39.410534 28.269527 47.564083
v 39.410534 30.269527 53.564083
v 45.410542 28.269527 53.564083
v 45.410542 28.269527 47.564083
v 45.410542 30.269527 53.564083
v 45.410542 30.269527 47.564083
v 39.410534 30.269527 47.564083
v -16.384357 0.040816 55.445004
v -16.384357 0.040816 49.445004
v 40.700253 18.516420 55.445004
v -16.692287 0.992224 55.445004
v -16.692287 0.992224 49.445004
v 40.392315 19.467831 55.445004
v 40.392315 19.467831 49.445004
v 40.700253 18.516420 49.445004
vn -0.0000 1.0000 -0.0000
vn -0.0000 -0.0000 1.0000
vn 1.0000 -0.0000 -0.0000
vn -0.0000 -1.0000 -0.0000
vn -1.0000 -0.0000 -0.0000
vn -0.0000 -0.0000 -1.0000
vn -0.9514 -0.3079 -0.0000
vn 0.3079 -0.9514 -0.0000
vn -0.3079 0.9514 -0.0000
vn 0.9514 0.3079 -0.0000
vt 0.000000 0.000000
vt 0.125000 0.500000
vt 0.375000 0.500000
vt 0.375000 0.750000
vt 0.125000 0.750000
vt 0.375000 0.000000
vt 0.625000 0.000000
vt 0.625000 0.250000
vt 0.375000 0.250000
vt 0.625000 0.750000
vt 0.625000 1.000000
vt 0.375000 1.000000
vt 0.625000 0.500000
vt 0.875000 0.500000
vt 0.875000 0.750000
s 1
usemtl Material.001
f 1/1/1 3/1/1 8/1/1 2/1/1
f 4/1/2 1/1/2 2/1/2 6/1/2
f 5/1/3 3/1/3 1/1/3 4/1/3
f 5/1/4 4/1/4 6/1/4 7/1/4
f 6/1/5 2/1/5 8/1/5 7/1/5
f 7/1/6 8/1/6 3/1/6 5/1/6
f 10/2/4 13/3/4 12/4/4 9/5/4
f 9/6/5 11/7/5 16/8/5 10/9/5
f 12/4/2 14/10/2 11/11/2 9/12/2
f 13/3/3 15/13/3 14/10/3 12/4/3
f 15/13/1 16/14/1 11/15/1 14/10/1
f 10/9/6 16/8/6 15/13/6 13/3/6
f 17/6/5 20/7/5 21/8/5 18/9/5
f 18/2/4 24/3/4 19/4/4 17/5/4
f 19/4/2 22/10/2 20/11/2 17/12/2
f 23/13/1 21/14/1 20/15/1 22/10/1
f 24/3/3 23/13/3 22/10/3 19/4/3
f 18/9/6 21/8/6 23/13/6 24/3/6
f 25/6/5 28/7/5 29/8/5 26/9/5
f 26/2/4 32/3/4 27/4/4 25/5/4
f 27/4/2 30/10/2 28/11/2 25/12/2
f 31/13/1 29/14/1 28/15/1 30/10/1
f 32/3/3 31/13/3 30/10/3 27/4/3
f 26/9/6 29/8/6 31/13/6 32/3/6
f 33/6/5 36/7/5 37/8/5 34/9/5
f 34/2/4 40/3/4 35/4/4 33/5/4
f 35/4/2 38/10/2 36/11/2 33/12/2
f 39/13/1 37/14/1 36/15/1 38/10/1
f 40/3/3 39/13/3 38/10/3 35/4/3
f 34/9/6 37/8/6 39/13/6 40/3/6
f 41/6/5 44/7/5 45/8/5 42/9/5
f 42/2/4 48/3/4 43/4/4 41/5/4
f 43/4/2 46/10/2 44/11/2 41/12/2
f 47/13/1 45/14/1 44/15/1 46/10/1
f 48/3/3 47/13/3 46/10/3 43/4/3
f 42/9/6 45/8/6 47/13/6 48/3/6
f 49/6/5 52/7/5 53/8/5 50/9/5
f 50/2/4 56/3/4 51/4/4 49/5/4
f 51/4/2 54/10/2 52/11/2 49/12/2
f 55/13/1 53/14/1 52/15/1 54/10/1
f 56/3/3 55/13/3 54/10/3 51/4/3
f 50/9/6 53/8/6 55/13/6 56/3/6
f 57/6/5 60/7/5 61/8/5 58/9/5
f 58/2/4 64/3/4 59/4/4 57/5/4
f 59/4/2 62/10/2 60/11/2 57/12/2
f 63/13/1 61/14/1 60/15/1 62/10/1
f 64/3/3 63/13/3 62/10/3 59/4/3
f 58/9/6 61/8/6 63/13/6 64/3/6
f 65/6/5 68/7/5 69/8/5 66/9/5
f 66/2/4 72/3/4 67/4/4 65/5/4
f 67/4/2 70/10/2 68/11/2 65/12/2
f 71/13/1 69/14/1 68/15/1 70/10/1
f 72/3/3 71/13/3 70/10/3 67/4/3
f 66/9/6 69/8/6 71/13/6 72/3/6
f 73/6/5 76/7/5 77/8/5 74/9/5
f 74/2/4 80/3/4 75/4/4 73/5/4
f 75/4/2 78/10/2 76/11/2 73/12/2
f 79/13/1 77/14/1 76/15/1 78/10/1
f 80/3/3 79/13/3 78/10/3 75/4/3
f 74/9/6 77/8/6 79/13/6 80/3/6
f 81/6/5 84/7/5 85/8/5 82/9/5
f 82/2/4 88/3/4 83/4/4 81/5/4
f 83/4/2 86/10/2 84/11/2 81/12/2
f 87/13/1 85/14/1 84/15/1 86/10/1
f 88/3/3 87/13/3 86/10/3 83/4/3
f 82/9/6 85/8/6 87/13/6 88/3/6
f 89/6/5 92/7/5 93/8/5 90/9/5
f 90/2/4 96/3/4 91/4/4 89/5/4
f 91/4/2 94/10/2 92/11/2 89/12/2
f 95/13/1 93/14/1 92/15/1 94/10/1
f 96/3/3 95/13/3 94/10/3 91/4/3
f 90/9/6 93/8/6 95/13/6 96/3/6
f 97/6/5 100/7/5 101/8/5 98/9/5
f 98/2/4 104/3/4 99/4/4 97/5/4
f 99/4/2 102/10/2 100/11/2 97/12/2
f 103/13/1 101/14/1 100/15/1 102/10/1
f 104/3/3 103/13/3 102/10/3 99/4/3
f 98/9/6 101/8/6 103/13/6 104/3/6
f 105/6/5 108/7/5 109/8/5 106/9/5
f 106/2/4 112/3/4 107/4/4 105/5/4
f 107/4/2 110/10/2 108/11/2 105/12/2
f 111/13/1 109/14/1 108/15/1 110/10/1
f 112/3/3 111/13/3 110/10/3 107/4/3
f 106/9/6 109/8/6 111/13/6 112/3/6
f 113/6/5 116/7/5 117/8/5 114/9/5
f 114/2/4 120/3/4 115/4/4 113/5/4
f 115/4/2 118/10/2 116/11/2 113/12/2
f 119/13/1 117/14/1 116/15/1 118/10/1
f 120/3/3 119/13/3 118/10/3 115/4/3
f 114/9/6 117/8/6 119/13/6 120/3/6
f 121/6/5 124/7/5 125/8/5 122/9/5
f 122/2/4 128/3/4 123/4/4 121/5/4
f 123/4/2 126/10/2 124/11/2 121/12/2
f 127/13/1 125/14/1 124/15/1 126/10/1
f 128/3/3 127/13/3 126/10/3 123/4/3
f 122/9/6 125/8/6 127/13/6 128/3/6
f 129/6/5 132/7/5 133/8/5 130/9/5
f 130/2/4 136/3/4 131/4/4 129/5/4
f 131/4/2 134/10/2 132/11/2 129/12/2
f 135/13/1 133/14/1 132/15/1 134/10/1
f 136/3/3 135/13/3 134/10/3 131/4/3
f 130/9/6 133/8/6 135/13/6 136/3/6
f 137/6/5 140/7/5 141/8/5 138/9/5
f 138/2/4 144/3/4 139/4/4 137/5/4
f 139/4/2 142/10/2 140/11/2 137/12/2
f 143/13/1 141/14/1 140/15/1 142/10/1
f 144/3/3 143/13/3 142/10/3 139/4/3
f 138/9/6 141/8/6 143/13/6 144/3/6
f 145/6/5 148/7/5 149/8/5 146/9/5
f 146/2/4 152/3/4 147/4/4 145/5/4
f 147/4/2 150/10/2 148/11/2 145/12/2
f 151/13/1 149/14/1 148/15/1 150/10/1
f 152/3/3 151/13/3 150/10/3 147/4/3
f 146/9/6 149/8/6 151/13/6 152/3/6
f 153/6/5 156/7/5 157/8/5 154/9/5
f 154/2/4 160/3/4 155/4/4 153/5/4
f 155/4/2 158/10/2 156/11/2 153/12/2
f 159/13/1 157/14/1 156/15/1 158/10/1
f 160/3/3 159/13/3 158/10/3 155/4/3
f 154/9/6 157/8/6 159/13/6 160/3/6
f 161/6/5 164/7/5 165/8/5 162/9/5
f 162/2/4 168/3/4 163/4/4 161/5/4
f 163/4/2 166/10/2 164/11/2 161/12/2
f 167/13/1 165/14/1 164/15/1 166/10/1
f 168/3/3 167/13/3 166/10/3 163/4/3
f 162/9/6 165/8/6 167/13/6 168/3/6
f 169/6/5 172/7/5 173/8/5 170/9/5
f 170/2/4 176/3/4 171/4/4 169/5/4
f 171/4/2 174/10/2 172/11/2 169/12/2
f 175/13/1 173/14/1 172/15/1 174/10/1
f 176/3/3 175/13/3 174/10/3 171/4/3
f 170/9/6 173/8/6 175/13/6 176/3/6
f 177/6/5 180/7/5 181/8/5 178/9/5
f 178/2/4 184/3/4 179/4/4 177/5/4
f 179/4/2 182/10/2 180/11/2 177/12/2
f 183/13/1 181/14/1 180/15/1 182/10/1
f 184/3/3 183/13/3 182/10/3 179/4/3
f 178/9/6 181/8/6 183/13/6 184/3/6
f 185/6/5 188/7/5 189/8/5 186/9/5
f 186/2/4 192/3/4 187/4/4 185/5/4
f 187/4/2 190/10/2 188/11/2 185/12/2
f 191/13/1 189/14/1 188/15/1 190/10/1
f 192/3/3 191/13/3 190/10/3 187/4/3
f 186/9/6 189/8/6 191/13/6 192/3/6
f 194/2/4 197/3/4 196/4/4 193/5/4
f 193/6/5 195/7/5 200/8/5 194/9/5
f 196/4/2 198/10/2 195/11/2 193/12/2
f 197/3/3 199/13/3 198/10/3 196/4/3
f 199/13/1 200/14/1 195/15/1 198/10/1
f 194/9/6 200/8/6 199/13/6 197/3/6
f 202/2/4 205/3/4 204/4/4 201/5/4
f 201/6/5 203/7/5 208/8/5 202/9/5
f 204/4/2 206/10/2 203/11/2 201/12/2
f 205/3/3 207/13/3 206/10/3 204/4/3
f 207/13/1 208/14/1 203/15/1 206/10/1
f 202/9/6 208/8/6 207/13/6 205/3/6
f 210/2/4 213/3/4 212/4/4 209/5/4
f 209/6/5 211/7/5 216/8/5 210/9/5
f 212/4/2 214/10/2 211/11/2 209/12/2
f 213/3/3 215/13/3 214/10/3 212/4/3
f 215/13/1 216/14/1 211/15/1 214/10/1
f 210/9/6 216/8/6 215/13/6 213/3/6
f 218/2/4 221/3/4 220/4/4 217/5/4
f 217/6/5 219/7/5 224/8/5 218/9/5
f 220/4/2 222/10/2 219/11/2 217/12/2
f 221/3/3 223/13/3 222/10/3 220/4/3
f 223/13/1 224/14/1 219/15/1 222/10/1
f 218/9/6 224/8/6 223/13/6 221/3/6
f 226/2/4 229/3/4 228/4/4 225/5/4
f 225/6/5 227/7/5 232/8/5 226/9/5
f 228/4/2 230/10/2 227/11/2 225/12/2
f 229/3/3 231/13/3 230/10/3 228/4/3
f 231/13/1 232/14/1 227/15/1 230/10/1
f 226/9/6 232/8/6 231/13/6 229/3/6
f 234/2/4 237/3/4 236/4/4 233/5/4
f 233/6/5 235/7/5 240/8/5 234/9/5
f 236/4/2 238/10/2 235/11/2 233/12/2
f 237/3/3 239/13/3 238/10/3 236/4/3
f 239/13/1 240/14/1 235/15/1 238/10/1
f 234/9/6 240/8/6 239/13/6 237/3/6
f 242/2/4 245/3/4 244/4/4 241/5/4
f 241/6/5 243/7/5 248/8/5 242/9/5
f 244/4/2 246/10/2 243/11/2 241/12/2
f 245/3/3 247/13/3 246/10/3 244/4/3
f 247/13/1 248/14/1 243/15/1 246/10/1
f 242/9/6 248/8/6 247/13/6 245/3/6
f 250/2/4 253/3/4 252/4/4 249/5/4
f 249/6/5 251/7/5 256/8/5 250/9/5
f 252/4/2 254/10/2 251/11/2 249/12/2
f 253/3/3 255/13/3 254/10/3 252/4/3
f 255/13/1 256/14/1 251/15/1 254/10/1
f 250/9/6 256/8/6 255/13/6 253/3/6
f 258/2/4 261/3/4 260/4/4 257/5/4
f 257/6/5 259/7/5 264/8/5 258/9/5
f 260/4/2 262/10/2 259/11/2 257/12/2
f 261/3/3 263/13/3 262/10/3 260/4/3
f 263/13/1 264/14/1 259/15/1 262/10/1
f 258/9/6 264/8/6 263/13/6 261/3/6
f 266/2/4 269/3/4 268/4/4 265/5/4
f 265/6/5 267/7/5 272/8/5 266/9/5
f 268/4/2 270/10/2 267/11/2 265/12/2
f 269/3/3 271/13/3 270/10/3 268/4/3
f 271/13/1 272/14/1 267/15/1 270/10/1
f 266/9/6 272/8/6 271/13/6 269/3/6
f 274/2/4 277/3/4 276/4/4 273/5/4
f 273/6/5 275/7/5 280/8/5 274/9/5
f 276/4/2 278/10/2 275/11/2 273/12/2
f 277/3/3 279/13/3 278/10/3 276/4/3
f 279/13/1 280/14/1 275/15/1 278/10/1
f 274/9/6 280/8/6 279/13/6 277/3/6
f 282/2/4 285/3/4 284/4/4 281/5/4
f 281/6/5 283/7/5 288/8/5 282/9/5
f 284/4/2 286/10/2 283/11/2 281/12/2
f 285/3/3 287/13/3 286/10/3 284/4/3
f 287/13/1 288/14/1 283/15/1 286/10/1
f 282/9/6 288/8/6 287/13/6 285/3/6
f 290/2/4 293/3/4 292/4/4 289/5/4
f 289/6/5 291/7/5 296/8/5 290/9/5
f 292/4/2 294/10/2 291/11/2 289/12/2
f 293/3/3 295/13/3 294/10/3 292/4/3
f 295/13/1 296/14/1 291/15/1 294/10/1
f 290/9/6 296/8/6 295/13/6 293/3/6
f 298/2/4 301/3/4 300/4/4 297/5/4
f 297/6/5 299/7/5 304/8/5 298/9/5
f 300/4/2 302/10/2 299/11/2 297/12/2
f 301/3/3 303/13/3 302/10/3 300/4/3
f 303/13/1 304/14/1 299/15/1 302/10/1
f 298/9/6 304/8/6 303/13/6 301/3/6
f 305/6/7 308/7/7 309/8/7 306/9/7
f 306/2/8 312/3/8 307/4/8 305/5/8
f 307/4/2 310/10/2 308/11/2 305/12/2
f 311/13/9 309/14/9 308/15/9 310/10/9
f 312/3/10 311/13/10 310/10/10 307/4/10
f 306/9/6 309/8/6 311/13/6 312/3/6
