# Blender 4.1.1
# www.blender.org
mtllib cannon.mtl
o 円柱
v -0.000262 -0.448435 -1.461647
v -0.047942 -0.367963 1.069931
v -0.190717 -0.433987 -1.463499
v -0.238396 -0.353515 1.068080
v -0.373809 -0.391281 -1.462114
v -0.421489 -0.310810 1.069464
v -0.542504 -0.321960 -1.457547
v -0.590183 -0.241488 1.074031
v -0.690316 -0.228686 -1.449975
v -0.737995 -0.148213 1.081604
v -0.811567 -0.115044 -1.439687
v -0.859247 -0.034572 1.091892
v -0.901596 0.014599 -1.427076
v -0.949276 0.095071 1.104501
v -0.956945 0.155261 -1.412631
v -1.004625 0.235733 1.118947
v -0.975485 0.301536 -1.396904
v -1.023166 0.382008 1.134673
v -0.956506 0.447802 -1.380502
v -1.004184 0.528273 1.151076
v -0.900735 0.588439 -1.364054
v -0.948413 0.668911 1.167524
v -0.810314 0.718043 -1.348191
v -0.857994 0.798515 1.183387
v -0.688722 0.831632 -1.333526
v -0.736402 0.912103 1.198053
v -0.540629 0.924841 -1.320618
v -0.588310 1.005313 1.210960
v -0.371726 0.994089 -1.309964
v -0.419407 1.074561 1.221614
v -0.188506 1.036715 -1.301977
v -0.236187 1.117187 1.229600
v 0.001992 1.051079 -1.296962
v -0.045687 1.131551 1.234617
v 0.192447 1.036631 -1.295109
v 0.144767 1.117103 1.236469
v 0.375540 0.993926 -1.296493
v 0.327860 1.074398 1.235085
v 0.544234 0.924604 -1.301060
v 0.496553 1.005076 1.230519
v 0.692046 0.831330 -1.308633
v 0.644367 0.911802 1.222946
v 0.813297 0.717688 -1.318923
v 0.765618 0.798159 1.212656
v 0.903328 0.588044 -1.331532
v 0.855647 0.668517 1.200045
v 0.958676 0.447383 -1.345978
v 0.910996 0.527856 1.185601
v 0.977217 0.301108 -1.361702
v 0.929537 0.381581 1.169875
v 0.958236 0.154842 -1.378105
v 0.910557 0.235314 1.153473
v 0.902465 0.014204 -1.394554
v 0.854784 0.094677 1.137024
v 0.812045 -0.115399 -1.410418
v 0.764365 -0.034926 1.121162
v 0.690453 -0.228988 -1.425084
v 0.642773 -0.148516 1.106495
v 0.542359 -0.322198 -1.437991
v 0.494680 -0.241726 1.093587
v 0.373458 -0.391445 -1.448643
v 0.325778 -0.310974 1.082935
v 0.190236 -0.434072 -1.456631
v 0.142558 -0.353599 1.074947
vn -0.0090 -0.8741 0.4856
vn -0.1309 -0.8590 -0.4949
vn 0.0086 -0.8723 -0.4888
vn -0.1328 -0.8637 0.4861
vn -0.2693 -0.8185 -0.5075
vn -0.2566 -0.8320 0.4918
vn -0.4047 -0.7485 -0.5253
vn -0.3798 -0.7768 0.5022
vn -0.5328 -0.6456 -0.5471
vn -0.5000 -0.6949 0.5168
vn -0.6462 -0.5076 -0.5698
vn -0.6128 -0.5825 0.5340
vn -0.7346 -0.3361 -0.5894
vn -0.7105 -0.4373 0.5514
vn -0.7868 -0.1393 -0.6013
vn -0.7824 -0.2610 0.5655
vn -0.7951 0.0673 -0.6028
vn -0.8172 -0.0618 0.5730
vn -0.7596 0.2658 -0.5936
vn -0.8079 0.1452 0.5712
vn -0.6880 0.4411 -0.5763
vn -0.7546 0.3411 0.5606
vn -0.5912 0.5850 -0.5553
vn -0.6651 0.5116 0.5440
vn -0.4794 0.6965 -0.5339
vn -0.5509 0.6483 0.5255
vn -0.3603 0.7777 -0.5151
vn -0.4222 0.7502 0.5088
vn -0.2380 0.8324 -0.5004
vn -0.2866 0.8196 0.4961
vn -0.1147 0.8639 -0.4905
vn -0.1481 0.8594 0.4894
vn 0.0090 0.8741 -0.4856
vn -0.0086 0.8723 0.4889
vn 0.1328 0.8637 -0.4861
vn 0.1309 0.8590 0.4950
vn 0.2566 0.8320 -0.4918
vn 0.2693 0.8185 0.5075
vn 0.3797 0.7769 -0.5023
vn 0.4048 0.7485 0.5253
vn 0.5000 0.6949 -0.5168
vn 0.5328 0.6456 0.5471
vn 0.6128 0.5825 -0.5340
vn 0.6463 0.5076 0.5698
vn 0.7105 0.4373 -0.5514
vn 0.7347 0.3361 0.5893
vn 0.7823 0.2610 -0.5656
vn 0.7867 0.1393 0.6014
vn 0.8172 0.0618 -0.5730
vn 0.7951 -0.0673 0.6028
vn 0.8079 -0.1451 -0.5712
vn 0.7596 -0.2658 0.5936
vn 0.7546 -0.3411 -0.5606
vn 0.6880 -0.4411 0.5763
vn 0.6651 -0.5116 -0.5440
vn 0.5911 -0.5851 0.5552
vn 0.5509 -0.6483 -0.5255
vn 0.4795 -0.6964 0.5339
vn 0.4222 -0.7502 -0.5088
vn 0.3603 -0.7777 0.5151
vn 0.2866 -0.8195 -0.4963
vn 0.2380 -0.8324 0.5004
vn 0.1481 -0.8595 -0.4893
vn 0.1147 -0.8639 0.4905
vt 0.999758 0.000242
vt 0.920438 0.008017
vt 0.920438 0.000242
vt 0.999758 0.008017
vt 0.920438 0.015791
vt 0.999758 0.015791
vt 0.920438 0.023566
vt 0.999758 0.023566
vt 0.920438 0.031341
vt 0.999758 0.031341
vt 0.920438 0.039116
vt 0.999758 0.039116
vt 0.920438 0.046890
vt 0.999758 0.046890
vt 0.920438 0.054665
vt 0.999758 0.054665
vt 0.920438 0.062440
vt 0.999758 0.062440
vt 0.920438 0.070215
vt 0.999758 0.070215
vt 0.920438 0.077989
vt 0.999758 0.077989
vt 0.920438 0.085764
vt 0.999758 0.085764
vt 0.920438 0.093539
vt 0.999758 0.093539
vt 0.920438 0.101313
vt 0.999758 0.101313
vt 0.920438 0.109088
vt 0.999758 0.109088
vt 0.920438 0.116863
vt 0.999758 0.116863
vt 0.920438 0.124638
vt 0.999758 0.124638
vt 0.920438 0.132412
vt 0.999758 0.132412
vt 0.920438 0.140187
vt 0.999758 0.140187
vt 0.920438 0.147962
vt 0.999758 0.147962
vt 0.920438 0.155737
vt 0.999758 0.155737
vt 0.920438 0.163511
vt 0.999758 0.163511
vt 0.920438 0.171286
vt 0.999758 0.171286
vt 0.920438 0.179061
vt 0.999758 0.179061
vt 0.920438 0.186835
vt 0.999758 0.186835
vt 0.920438 0.194610
vt 0.999758 0.194610
vt 0.920438 0.202385
vt 0.999758 0.202385
vt 0.920438 0.210160
vt 0.999758 0.210160
vt 0.920438 0.217934
vt 0.999758 0.217934
vt 0.920438 0.225709
vt 0.999758 0.225709
vt 0.920438 0.233484
vt 0.070369 0.832180
vt 0.064871 0.887998
vt 0.009054 0.882500
vt 0.999758 0.233484
vt 0.920438 0.241259
vt 0.999758 0.241259
vt 0.920438 0.249033
vt 0.154110 0.876036
vt 0.100438 0.892317
vt 0.084156 0.838645
vt 0.004734 0.876036
vt 0.001759 0.868853
vt 0.000242 0.861228
vt 0.000242 0.853453
vt 0.001759 0.845828
vt 0.004734 0.838645
vt 0.009054 0.832180
vt 0.014551 0.826683
vt 0.021016 0.822363
vt 0.028198 0.819388
vt 0.035824 0.817871
vt 0.043598 0.817871
vt 0.051224 0.819388
vt 0.058407 0.822363
vt 0.064871 0.826683
vt 0.074688 0.838645
vt 0.079180 0.861228
vt 0.077663 0.845828
vt 0.079180 0.853453
vt 0.077663 0.868853
vt 0.074688 0.876036
vt 0.070369 0.882500
vt 0.058407 0.892317
vt 0.035824 0.896809
vt 0.051224 0.895293
vt 0.043599 0.896809
vt 0.028198 0.895293
vt 0.021016 0.892317
vt 0.014551 0.887998
vt 0.999758 0.249033
vt 0.088476 0.832180
vt 0.093973 0.826683
vt 0.100438 0.822363
vt 0.107620 0.819388
vt 0.115246 0.817871
vt 0.123021 0.817871
vt 0.130646 0.819388
vt 0.137829 0.822363
vt 0.144293 0.826683
vt 0.149791 0.832180
vt 0.154110 0.838645
vt 0.157085 0.845828
vt 0.158602 0.853453
vt 0.158602 0.861228
vt 0.157085 0.868853
vt 0.149791 0.882500
vt 0.144293 0.887998
vt 0.137829 0.892317
vt 0.130646 0.895293
vt 0.123021 0.896809
vt 0.115246 0.896809
vt 0.107620 0.895293
vt 0.093973 0.887998
vt 0.088476 0.882500
vt 0.084156 0.876036
vt 0.081181 0.868853
vt 0.079664 0.861228
vt 0.079664 0.853453
vt 0.081181 0.845828
s 1
usemtl マテリアル.006
f 2/1/1 3/2/2 1/3/3
f 4/4/4 5/5/5 3/2/2
f 6/6/6 7/7/7 5/5/5
f 8/8/8 9/9/9 7/7/7
f 10/10/10 11/11/11 9/9/9
f 12/12/12 13/13/13 11/11/11
f 14/14/14 15/15/15 13/13/13
f 16/16/16 17/17/17 15/15/15
f 18/18/18 19/19/19 17/17/17
f 20/20/20 21/21/21 19/19/19
f 22/22/22 23/23/23 21/21/21
f 24/24/24 25/25/25 23/23/23
f 26/26/26 27/27/27 25/25/25
f 28/28/28 29/29/29 27/27/27
f 30/30/30 31/31/31 29/29/29
f 32/32/32 33/33/33 31/31/31
f 34/34/34 35/35/35 33/33/33
f 36/36/36 37/37/37 35/35/35
f 38/38/38 39/39/39 37/37/37
f 40/40/40 41/41/41 39/39/39
f 42/42/42 43/43/43 41/41/41
f 44/44/44 45/45/45 43/43/43
f 46/46/46 47/47/47 45/45/45
f 48/48/48 49/49/49 47/47/47
f 50/50/50 51/51/51 49/49/49
f 52/52/52 53/53/53 51/51/51
f 54/54/54 55/55/55 53/53/53
f 56/56/56 57/57/57 55/55/55
f 58/58/58 59/59/59 57/57/57
f 60/60/60 61/61/61 59/59/59
f 38/62/38 22/63/22 6/64/6
f 62/65/62 63/66/63 61/61/61
f 64/67/64 1/68/3 63/66/63
f 31/69/31 47/70/47 63/71/63
f 2/1/1 4/4/4 3/2/2
f 4/4/4 6/6/6 5/5/5
f 6/6/6 8/8/8 7/7/7
f 8/8/8 10/10/10 9/9/9
f 10/10/10 12/12/12 11/11/11
f 12/12/12 14/14/14 13/13/13
f 14/14/14 16/16/16 15/15/15
f 16/16/16 18/18/18 17/17/17
f 18/18/18 20/20/20 19/19/19
f 20/20/20 22/22/22 21/21/21
f 22/22/22 24/24/24 23/23/23
f 24/24/24 26/26/26 25/25/25
f 26/26/26 28/28/28 27/27/27
f 28/28/28 30/30/30 29/29/29
f 30/30/30 32/32/32 31/31/31
f 32/32/32 34/34/34 33/33/33
f 34/34/34 36/36/36 35/35/35
f 36/36/36 38/38/38 37/37/37
f 38/38/38 40/40/40 39/39/39
f 40/40/40 42/42/42 41/41/41
f 42/42/42 44/44/44 43/43/43
f 44/44/44 46/46/46 45/45/45
f 46/46/46 48/48/48 47/47/47
f 48/48/48 50/50/50 49/49/49
f 50/50/50 52/52/52 51/51/51
f 52/52/52 54/54/54 53/53/53
f 54/54/54 56/56/56 55/55/55
f 56/56/56 58/58/58 57/57/57
f 58/58/58 60/60/60 59/59/59
f 60/60/60 62/65/62 61/61/61
f 6/64/6 4/72/4 2/73/1
f 2/73/1 64/74/64 6/64/6
f 64/74/64 62/75/62 6/64/6
f 62/75/62 60/76/60 58/77/58
f 58/77/58 56/78/56 54/79/54
f 54/79/54 52/80/52 50/81/50
f 50/81/50 48/82/48 54/79/54
f 48/82/48 46/83/46 54/79/54
f 46/83/46 44/84/44 42/85/42
f 42/85/42 40/86/40 38/62/38
f 38/62/38 36/87/36 30/88/30
f 36/87/36 34/89/34 30/88/30
f 34/89/34 32/90/32 30/88/30
f 30/88/30 28/91/28 26/92/26
f 26/92/26 24/93/24 22/63/22
f 22/63/22 20/94/20 14/95/14
f 20/94/20 18/96/18 14/95/14
f 18/96/18 16/97/16 14/95/14
f 14/95/14 12/98/12 10/99/10
f 10/99/10 8/100/8 6/64/6
f 62/75/62 58/77/58 6/64/6
f 58/77/58 54/79/54 6/64/6
f 46/83/46 42/85/42 54/79/54
f 42/85/42 38/62/38 54/79/54
f 30/88/30 26/92/26 38/62/38
f 26/92/26 22/63/22 38/62/38
f 14/95/14 10/99/10 22/63/22
f 10/99/10 6/64/6 22/63/22
f 6/64/6 54/79/54 38/62/38
f 62/65/62 64/67/64 63/66/63
f 64/67/64 2/101/1 1/68/3
f 63/71/63 1/102/3 3/103/2
f 3/103/2 5/104/5 7/105/7
f 7/105/7 9/106/9 11/107/11
f 11/107/11 13/108/13 15/109/15
f 15/109/15 17/110/17 19/111/19
f 19/111/19 21/112/21 23/113/23
f 23/113/23 25/114/25 27/115/27
f 27/115/27 29/116/29 31/69/31
f 31/69/31 33/117/33 35/118/35
f 35/118/35 37/119/37 39/120/39
f 39/120/39 41/121/41 43/122/43
f 43/122/43 45/123/45 47/70/47
f 47/70/47 49/124/49 51/125/51
f 51/125/51 53/126/53 55/127/55
f 55/127/55 57/128/57 59/129/59
f 59/129/59 61/130/61 63/71/63
f 63/71/63 3/103/2 15/109/15
f 3/103/2 7/105/7 15/109/15
f 7/105/7 11/107/11 15/109/15
f 15/109/15 19/111/19 31/69/31
f 19/111/19 23/113/23 31/69/31
f 23/113/23 27/115/27 31/69/31
f 31/69/31 35/118/35 47/70/47
f 35/118/35 39/120/39 47/70/47
f 39/120/39 43/122/43 47/70/47
f 47/70/47 51/125/51 63/71/63
f 51/125/51 55/127/55 63/71/63
f 55/127/55 59/129/59 63/71/63
f 63/71/63 15/109/15 31/69/31
o 立方体
v -1.089258 0.246371 -0.189520
v -1.089258 0.022244 -0.189520
v -1.089274 0.246371 -0.394211
v -1.089274 0.022244 -0.394211
v 1.167963 0.246371 -0.189702
v 1.167963 0.022244 -0.189702
v 1.167946 0.246371 -0.394393
v 1.167946 0.022244 -0.394394
vn -1.0000 -0.0000 0.0001
vn -0.0001 -0.0000 -1.0000
vn 1.0000 -0.0000 -0.0001
vn 0.0001 -0.0000 1.0000
vn -0.0000 1.0000 -0.0000
vn -0.0000 -1.0000 -0.0000
vt 0.102325 0.000242
vt 0.102325 0.102325
vt 0.204407 0.102325
vt 0.204407 0.000242
vt 0.102325 0.204407
vt 0.204407 0.204407
vt 0.102325 0.306490
vt 0.204407 0.306490
vt 0.102325 0.408573
vt 0.204407 0.408573
vt 0.000242 0.204407
vt 0.000242 0.306490
vt 0.306490 0.306490
vt 0.306490 0.204407
s 0
usemtl マテリアル.006
f 65/131/65 67/132/65 68/133/65 66/134/65
f 67/132/66 71/135/66 72/136/66 68/133/66
f 71/135/67 69/137/67 70/138/67 72/136/67
f 69/137/68 65/139/68 66/140/68 70/138/68
f 67/141/69 65/142/69 69/137/69 71/135/69
f 72/136/70 70/138/70 66/143/70 68/144/70
o 立方体.001
v -1.090661 0.205222 -0.259839
v -1.090672 0.025612 -0.393903
v -0.886070 0.202366 -0.256030
v -0.886080 0.022756 -0.390094
v -1.115110 -0.423237 0.582122
v -1.115121 -0.602846 0.448058
v -0.910519 -0.426092 0.585932
v -0.910530 -0.605702 0.451868
vn 0.0233 0.5980 -0.8012
vn 0.9997 -0.0140 0.0186
vn -0.0233 -0.5980 0.8012
vn -0.9997 0.0140 -0.0186
vn -0.0000 0.8014 0.5982
vn -0.0000 -0.8014 -0.5982
vt 0.409057 0.000242
vt 0.409057 0.102325
vt 0.511139 0.102325
vt 0.511139 0.000242
vt 0.409057 0.204407
vt 0.511139 0.204407
vt 0.409057 0.306490
vt 0.511139 0.306490
vt 0.409057 0.408573
vt 0.511139 0.408573
vt 0.306974 0.204407
vt 0.306974 0.306490
vt 0.613222 0.306490
vt 0.613222 0.204407
s 0
usemtl マテリアル.006
f 73/145/71 75/146/71 76/147/71 74/148/71
f 75/146/72 79/149/72 80/150/72 76/147/72
f 79/149/73 77/151/73 78/152/73 80/150/73
f 77/151/74 73/153/74 74/154/74 78/152/74
f 75/155/75 73/156/75 77/151/75 79/149/75
f 80/150/76 78/152/76 74/157/76 76/158/76
o 立方体.002
v 0.943581 -0.635609 0.666010
v 0.943575 -0.427809 0.582032
v 1.148174 -0.637397 0.661567
v 1.148167 -0.429598 0.577590
v 0.918985 -1.029272 -0.308096
v 0.918979 -0.821471 -0.392073
v 1.123576 -1.031060 -0.312539
v 1.123569 -0.823261 -0.396516
vn 0.0234 0.3746 0.9269
vn 0.9997 -0.0087 -0.0217
vn -0.0234 -0.3746 -0.9269
vn -0.9997 0.0087 0.0217
vn -0.0000 -0.9272 0.3747
vn -0.0000 0.9272 -0.3747
vt 0.715789 0.000242
vt 0.715789 0.102325
vt 0.817871 0.102325
vt 0.817871 0.000242
vt 0.715789 0.204407
vt 0.817871 0.204407
vt 0.715789 0.306490
vt 0.817871 0.306490
vt 0.715789 0.408573
vt 0.817871 0.408573
vt 0.613706 0.204407
vt 0.613706 0.306490
vt 0.919954 0.306490
vt 0.919954 0.204407
s 0
usemtl マテリアル.006
f 81/159/77 83/160/77 84/161/77 82/162/77
f 83/160/78 87/163/78 88/164/78 84/161/78
f 87/163/79 85/165/79 86/166/79 88/164/79
f 85/165/80 81/167/80 82/168/80 86/166/80
f 83/169/81 81/170/81 85/165/81 87/163/81
f 88/164/82 86/166/82 82/171/82 84/172/82
o 立方体.003
v -1.112546 -0.635609 0.666176
v -1.112553 -0.427809 0.582199
v -0.907955 -0.637397 0.661734
v -0.907962 -0.429598 0.577756
v -1.137143 -1.029272 -0.307929
v -1.137150 -0.821471 -0.391907
v -0.932551 -1.031060 -0.312372
v -0.932558 -0.823261 -0.396350
vn 0.0234 0.3746 0.9269
vn 0.9997 -0.0087 -0.0217
vn -0.0234 -0.3746 -0.9269
vn -0.9997 0.0087 0.0217
vn -0.0000 -0.9272 0.3747
vn -0.0000 0.9272 -0.3747
vt 0.102325 0.409057
vt 0.102325 0.511139
vt 0.204407 0.511139
vt 0.204407 0.409057
vt 0.102325 0.613222
vt 0.204407 0.613222
vt 0.102325 0.715305
vt 0.204407 0.715305
vt 0.102325 0.817387
vt 0.204407 0.817387
vt 0.000242 0.613222
vt 0.000242 0.715305
vt 0.306490 0.715305
vt 0.306490 0.613222
s 0
usemtl マテリアル.006
f 89/173/83 91/174/83 92/175/83 90/176/83
f 91/174/84 95/177/84 96/178/84 92/175/84
f 95/177/85 93/179/85 94/180/85 96/178/85
f 93/179/86 89/181/86 90/182/86 94/180/86
f 91/183/87 89/184/87 93/179/87 95/177/87
f 96/178/88 94/180/88 90/185/88 92/186/88
o 立方体.004
v 0.965468 0.205222 -0.260006
v 0.965457 0.025612 -0.394070
v 1.170059 0.202366 -0.256196
v 1.170048 0.022756 -0.390261
v 0.941018 -0.423237 0.581956
v 0.941008 -0.602846 0.447892
v 1.145610 -0.426092 0.585765
v 1.145599 -0.605702 0.451701
vn 0.0233 0.5980 -0.8012
vn 0.9997 -0.0140 0.0186
vn -0.0233 -0.5980 0.8012
vn -0.9997 0.0140 -0.0186
vn -0.0000 0.8014 0.5982
vn -0.0001 -0.8014 -0.5982
vt 0.715789 0.409057
vt 0.715789 0.511139
vt 0.817871 0.511139
vt 0.817871 0.409057
vt 0.715789 0.613222
vt 0.817871 0.613222
vt 0.715789 0.715305
vt 0.817871 0.715305
vt 0.715789 0.817387
vt 0.817871 0.817387
vt 0.613706 0.613222
vt 0.613706 0.715305
vt 0.919954 0.715305
vt 0.919954 0.613222
s 0
usemtl マテリアル.006
f 97/187/89 99/188/89 100/189/89 98/190/89
f 99/188/90 103/191/90 104/192/90 100/189/90
f 103/191/91 101/193/91 102/194/91 104/192/91
f 101/193/92 97/195/92 98/196/92 102/194/92
f 99/197/93 97/198/93 101/193/93 103/191/93
f 104/192/94 102/194/94 98/199/94 100/200/94
o 立方体.005
v 0.797157 -1.092203 0.021014
v 0.797157 -0.650599 0.021014
v 0.797157 -1.092203 -0.420590
v 0.797157 -0.650599 -0.420590
v 1.238761 -1.092203 0.021014
v 1.238761 -0.650599 0.021014
v 1.238761 -1.092203 -0.420590
v 1.238761 -0.650599 -0.420590
vn -1.0000 -0.0000 -0.0000
vn -0.0000 -0.0000 -1.0000
vn 1.0000 -0.0000 -0.0000
vn -0.0000 -0.0000 1.0000
vn -0.0000 -1.0000 -0.0000
vn -0.0000 1.0000 -0.0000
vt 0.375000 0.000000
vt 0.625000 0.000000
vt 0.625000 0.250000
vt 0.375000 0.250000
vt 0.625000 0.500000
vt 0.375000 0.500000
vt 0.625000 0.750000
vt 0.375000 0.750000
vt 0.625000 1.000000
vt 0.375000 1.000000
vt 0.125000 0.500000
vt 0.125000 0.750000
vt 0.875000 0.500000
vt 0.875000 0.750000
s 0
f 105/201/95 106/202/95 108/203/95 107/204/95
f 107/204/96 108/203/96 112/205/96 111/206/96
f 111/206/97 112/205/97 110/207/97 109/208/97
f 109/208/98 110/207/98 106/209/98 105/210/98
f 107/211/99 111/206/99 109/208/99 105/212/99
f 112/205/100 108/213/100 106/214/100 110/207/100
o 立方体.006
v -1.229265 -1.092203 0.021014
v -1.229265 -0.650599 0.021014
v -1.229265 -1.092203 -0.420590
v -1.229265 -0.650599 -0.420590
v -0.787660 -1.092203 0.021014
v -0.787660 -0.650599 0.021014
v -0.787660 -1.092203 -0.420590
v -0.787660 -0.650599 -0.420590
vn -1.0000 -0.0000 -0.0000
vn -0.0000 -0.0000 -1.0000
vn 1.0000 -0.0000 -0.0000
vn -0.0000 -0.0000 1.0000
vn -0.0000 -1.0000 -0.0000
vn -0.0000 1.0000 -0.0000
vt 0.375000 0.000000
vt 0.625000 0.000000
vt 0.625000 0.250000
vt 0.375000 0.250000
vt 0.625000 0.500000
vt 0.375000 0.500000
vt 0.625000 0.750000
vt 0.375000 0.750000
vt 0.625000 1.000000
vt 0.375000 1.000000
vt 0.125000 0.500000
vt 0.125000 0.750000
vt 0.875000 0.500000
vt 0.875000 0.750000
s 0
f 113/215/101 114/216/101 116/217/101 115/218/101
f 115/218/102 116/217/102 120/219/102 119/220/102
f 119/220/103 120/219/103 118/221/103 117/222/103
f 117/222/104 118/221/104 114/223/104 113/224/104
f 115/225/105 119/220/105 117/222/105 113/226/105
f 120/219/106 116/227/106 114/228/106 118/221/106
